<?xml version="1.0"?>
<VTKFile type="UnstructuredGrid" version="0.1" byte_order="LittleEndian">
  <UnstructuredGrid>
    <Piece NumberOfPoints="528" NumberOfCells="576">
      <Points>
        <DataArray type="Float64" Name="Points" NumberOfComponents="3" format="ascii">
          0.5 0 0 0.4957224307 0.06526309611 0 0.4829629131 0.1294095226 0 0.4619397663 0.1913417162 0 0.4330127019 0.25 0 0.3966766701 0.3043807145 0
          0.3535533906 0.3535533906 0 0.3043807145 0.3966766701 0 0.25 0.4330127019 0 0.1913417162 0.4619397663 0 0.1294095226 0.4829629131 0 0.06526309611 0.4957224307 0
          3.061616998e-17 0.5 0 -0.06526309611 0.4957224307 0 -0.1294095226 0.4829629131 0 -0.1913417162 0.4619397663 0 -0.25 0.4330127019 0 -0.3043807145 0.3966766701 0
          -0.3535533906 0.3535533906 0 -0.3966766701 0.3043807145 0 -0.4330127019 0.25 0 -0.4619397663 0.1913417162 0 -0.4829629131 0.1294095226 0 -0.4957224307 0.06526309611 0
          -0.5 6.123233996e-17 0 -0.4957224307 -0.06526309611 0 -0.4829629131 -0.1294095226 0 -0.4619397663 -0.1913417162 0 -0.4330127019 -0.25 0 -0.3966766701 -0.3043807145 0
          -0.3535533906 -0.3535533906 0 -0.3043807145 -0.3966766701 0 -0.25 -0.4330127019 0 -0.1913417162 -0.4619397663 0 -0.1294095226 -0.4829629131 0 -0.06526309611 -0.4957224307 0
          -9.184850994e-17 -0.5 0 0.06526309611 -0.4957224307 0 0.1294095226 -0.4829629131 0 0.1913417162 -0.4619397663 0 0.25 -0.4330127019 0 0.3043807145 -0.3966766701 0
          0.3535533906 -0.3535533906 0 0.3966766701 -0.3043807145 0 0.4330127019 -0.25 0 0.4619397663 -0.1913417162 0 0.4829629131 -0.1294095226 0 0.4957224307 -0.06526309611 0
          0.641044427 0 0 0.6355602031 0.0836730881 0 0.6192013678 0.1659145065 0 0.5922478255 0.2453170816 0 0.5551607587 0.3205222135 0 0.5085747374 0.3902431214 0
          0.4532868614 0.4532868614 0 0.3902431214 0.5085747374 0 0.3205222135 0.5551607587 0 0.2453170816 0.5922478255 0 0.1659145065 0.6192013678 0 0.0836730881 0.6355602031 0
          3.925265028e-17 0.641044427 0 -0.0836730881 0.6355602031 0 -0.1659145065 0.6192013678 0 -0.2453170816 0.5922478255 0 -0.3205222135 0.5551607587 0 -0.3902431214 0.5085747374 0
          -0.4532868614 0.4532868614 0 -0.5085747374 0.3902431214 0 -0.5551607587 0.3205222135 0 -0.5922478255 0.2453170816 0 -0.6192013678 0.1659145065 0 -0.6355602031 0.0836730881 0
          -0.641044427 7.850530056e-17 0 -0.6355602031 -0.0836730881 0 -0.6192013678 -0.1659145065 0 -0.5922478255 -0.2453170816 0 -0.5551607587 -0.3205222135 0 -0.5085747374 -0.3902431214 0
          -0.4532868614 -0.4532868614 0 -0.3902431214 -0.5085747374 0 -0.3205222135 -0.5551607587 0 -0.2453170816 -0.5922478255 0 -0.1659145065 -0.6192013678 0 -0.0836730881 -0.6355602031 0
          -1.177579508e-16 -0.641044427 0 0.0836730881 -0.6355602031 0 0.1659145065 -0.6192013678 0 0.2453170816 -0.5922478255 0 0.3205222135 -0.5551607587 0 0.3902431214 -0.5085747374 0
          0.4532868614 -0.4532868614 0 0.5085747374 -0.3902431214 0 0.5551607587 -0.3205222135 0 0.5922478255 -0.2453170816 0 0.6192013678 -0.1659145065 0 0.6355602031 -0.0836730881 0
          0.8218759148 0 0 0.8148446524 0.1072763336 0 0.7938711721 0.2127171395 0 0.7593143359 0.314518296 0 0.7117654209 0.4109379574 0 0.6520380023 0.5003263563 0
          0.5811540326 0.5811540326 0 0.5003263563 0.6520380023 0 0.4109379574 0.7117654209 0 0.314518296 0.7593143359 0 0.2127171395 0.7938711721 0 0.1072763336 0.8148446524 0
          5.032538542e-17 0.8218759148 0 -0.1072763336 0.8148446524 0 -0.2127171395 0.7938711721 0 -0.314518296 0.7593143359 0 -0.4109379574 0.7117654209 0 -0.5003263563 0.6520380023 0
          -0.5811540326 0.5811540326 0 -0.6520380023 0.5003263563 0 -0.7117654209 0.4109379574 0 -0.7593143359 0.314518296 0 -0.7938711721 0.2127171395 0 -0.8148446524 0.1072763336 0
          -0.8218759148 1.006507708e-16 0 -0.8148446524 -0.1072763336 0 -0.7938711721 -0.2127171395 0 -0.7593143359 -0.314518296 0 -0.7117654209 -0.4109379574 0 -0.6520380023 -0.5003263563 0
          -0.5811540326 -0.5811540326 0 -0.5003263563 -0.6520380023 0 -0.4109379574 -0.7117654209 0 -0.314518296 -0.7593143359 0 -0.2127171395 -0.7938711721 0 -0.1072763336 -0.8148446524 0
          -1.509761562e-16 -0.8218759148 0 0.1072763336 -0.8148446524 0 0.2127171395 -0.7938711721 0 0.314518296 -0.7593143359 0 0.4109379574 -0.7117654209 0 0.5003263563 -0.6520380023 0
          0.5811540326 -0.5811540326 0 0.6520380023 -0.5003263563 0 0.7117654209 -0.4109379574 0 0.7593143359 -0.314518296 0 0.7938711721 -0.2127171395 0 0.8148446524 -0.1072763336 0
          1.05371795 0 0 1.044703247 0.1375377916 0 1.017813381 0.2727222735 0 0.9735084467 0.4032404017 0 0.9125465128 0.5268589748 0 0.8359706551 0.6414628448 0
          0.7450911077 0.7450911077 0 0.6414628448 0.8359706551 0 0.5268589748 0.9125465128 0 0.4032404017 0.9735084467 0 0.2727222735 1.017813381 0 0.1375377916 1.044703247 0
          6.452161571e-17 1.05371795 0 -0.1375377916 1.044703247 0 -0.2727222735 1.017813381 0 -0.4032404017 0.9735084467 0 -0.5268589748 0.9125465128 0 -0.6414628448 0.8359706551 0
          -0.7450911077 0.7450911077 0 -0.8359706551 0.6414628448 0 -0.9125465128 0.5268589748 0 -0.9735084467 0.4032404017 0 -1.017813381 0.2727222735 0 -1.044703247 0.1375377916 0
          -1.05371795 1.290432314e-16 0 -1.044703247 -0.1375377916 0 -1.017813381 -0.2727222735 0 -0.9735084467 -0.4032404017 0 -0.9125465128 -0.5268589748 0 -0.8359706551 -0.6414628448 0
          -0.7450911077 -0.7450911077 0 -0.6414628448 -0.8359706551 0 -0.5268589748 -0.9125465128 0 -0.4032404017 -0.9735084467 0 -0.2727222735 -1.017813381 0 -0.1375377916 -1.044703247 0
          -1.935648471e-16 -1.05371795 0 0.1375377916 -1.044703247 0 0.2727222735 -1.017813381 0 0.4032404017 -0.9735084467 0 0.5268589748 -0.9125465128 0 0.6414628448 -0.8359706551 0
          0.7450911077 -0.7450911077 0 0.8359706551 -0.6414628448 0 0.9125465128 -0.5268589748 0 0.9735084467 -0.4032404017 0 1.017813381 -0.2727222735 0 1.044703247 -0.1375377916 0
          1.350960039 0 0 1.339402388 0.1763356697 0 1.304927191 0.3496541871 0 1.248124329 0.5169900245 0 1.169965713 0.6754800193 0 1.071788659 0.8224123636 0
          0.9552730043 0.9552730043 0 0.8224123636 1.071788659 0 0.6754800193 1.169965713 0 0.5169900245 1.248124329 0 0.3496541871 1.304927191 0 0.1763356697 1.339402388 0
          8.272244435e-17 1.350960039 0 -0.1763356697 1.339402388 0 -0.3496541871 1.304927191 0 -0.5169900245 1.248124329 0 -0.6754800193 1.169965713 0 -0.8224123636 1.071788659 0
          -0.9552730043 0.9552730043 0 -1.071788659 0.8224123636 0 -1.169965713 0.6754800193 0 -1.248124329 0.5169900245 0 -1.304927191 0.3496541871 0 -1.339402388 0.1763356697 0
          -1.350960039 1.654448887e-16 0 -1.339402388 -0.1763356697 0 -1.304927191 -0.3496541871 0 -1.248124329 -0.5169900245 0 -1.169965713 -0.6754800193 0 -1.071788659 -0.8224123636 0
          -0.9552730043 -0.9552730043 0 -0.8224123636 -1.071788659 0 -0.6754800193 -1.169965713 0 -0.5169900245 -1.248124329 0 -0.3496541871 -1.304927191 0 -0.1763356697 -1.339402388 0
          -2.48167333e-16 -1.350960039 0 0.1763356697 -1.339402388 0 0.3496541871 -1.304927191 0 0.5169900245 -1.248124329 0 0.6754800193 -1.169965713 0 0.8224123636 -1.071788659 0
          0.9552730043 -0.9552730043 0 1.071788659 -0.8224123636 0 1.169965713 -0.6754800193 0 1.248124329 -0.5169900245 0 1.304927191 -0.3496541871 0 1.339402388 -0.1763356697 0
          1.732050808 0 0 1.717232873 0.2260779966 0 1.673032607 0.4482877361 0 1.60020629 0.6628271481 0 1.5 0.8660254038 0 1.374128294 1.054405725 0
          1.224744871 1.224744871 0 1.054405725 1.374128294 0 0.8660254038 1.5 0 0.6628271481 1.60020629 0 0.4482877361 1.673032607 0 0.2260779966 1.717232873 0
          1.060575239e-16 1.732050808 0 -0.2260779966 1.717232873 0 -0.4482877361 1.673032607 0 -0.6628271481 1.60020629 0 -0.8660254038 1.5 0 -1.054405725 1.374128294 0
          -1.224744871 1.224744871 0 -1.374128294 1.054405725 0 -1.5 0.8660254038 0 -1.60020629 0.6628271481 0 -1.673032607 0.4482877361 0 -1.717232873 0.2260779966 0
          -1.732050808 2.121150477e-16 0 -1.717232873 -0.2260779966 0 -1.673032607 -0.4482877361 0 -1.60020629 -0.6628271481 0 -1.5 -0.8660254038 0 -1.374128294 -1.054405725 0
          -1.224744871 -1.224744871 0 -1.054405725 -1.374128294 0 -0.8660254038 -1.5 0 -0.6628271481 -1.60020629 0 -0.4482877361 -1.673032607 0 -0.2260779966 -1.717232873 0
          -3.181725716e-16 -1.732050808 0 0.2260779966 -1.717232873 0 0.4482877361 -1.673032607 0 0.6628271481 -1.60020629 0 0.8660254038 -1.5 0 1.054405725 -1.374128294 0
          1.224744871 -1.224744871 0 1.374128294 -1.054405725 0 1.5 -0.8660254038 0 1.60020629 -0.6628271481 0 1.673032607 -0.4482877361 0 1.717232873 -0.2260779966 0
          2.220643035 0 0 2.201645126 0.2898520796 0 2.144976458 0.5747447098 0 2.051606649 0.8498032987 0 1.923133281 1.110321517 0 1.761754569 1.351841827 0
          1.570231749 1.570231749 0 1.351841827 1.761754569 0 1.110321517 1.923133281 0 0.8498032987 2.051606649 0 0.5747447098 2.144976458 0 0.2898520796 2.201645126 0
          1.359751692e-16 2.220643035 0 -0.2898520796 2.201645126 0 -0.5747447098 2.144976458 0 -0.8498032987 2.051606649 0 -1.110321517 1.923133281 0 -1.351841827 1.761754569 0
          -1.570231749 1.570231749 0 -1.761754569 1.351841827 0 -1.923133281 1.110321517 0 -2.051606649 0.8498032987 0 -2.144976458 0.5747447098 0 -2.201645126 0.2898520796 0
          -2.220643035 2.719503385e-16 0 -2.201645126 -0.2898520796 0 -2.144976458 -0.5747447098 0 -2.051606649 -0.8498032987 0 -1.923133281 -1.110321517 0 -1.761754569 -1.351841827 0
          -1.570231749 -1.570231749 0 -1.351841827 -1.761754569 0 -1.110321517 -1.923133281 0 -0.8498032987 -2.051606649 0 -0.5747447098 -2.144976458 0 -0.2898520796 -2.201645126 0
          -4.079255077e-16 -2.220643035 0 0.2898520796 -2.201645126 0 0.5747447098 -2.144976458 0 0.8498032987 -2.051606649 0 1.110321517 -1.923133281 0 1.351841827 -1.761754569 0
          1.570231749 -1.570231749 0 1.761754569 -1.351841827 0 1.923133281 -1.110321517 0 2.051606649 -0.8498032987 0 2.144976458 -0.5747447098 0 2.201645126 -0.2898520796 0
          2.847061684 0 0 2.822704676 0.3716161206 0 2.750050409 0.7368737863 0 2.630342017 1.089523337 0 2.465627744 1.423530842 0 2.258725897 1.733181339 0
          2.013176623 2.013176623 0 1.733181339 2.258725897 0 1.423530842 2.465627744 0 1.089523337 2.630342017 0 0.7368737863 2.750050409 0 0.3716161206 2.822704676 0
          1.743322489e-16 2.847061684 0 -0.3716161206 2.822704676 0 -0.7368737863 2.750050409 0 -1.089523337 2.630342017 0 -1.423530842 2.465627744 0 -1.733181339 2.258725897 0
          -2.013176623 2.013176623 0 -2.258725897 1.733181339 0 -2.465627744 1.423530842 0 -2.630342017 1.089523337 0 -2.750050409 0.7368737863 0 -2.822704676 0.3716161206 0
          -2.847061684 3.486644978e-16 0 -2.822704676 -0.3716161206 0 -2.750050409 -0.7368737863 0 -2.630342017 -1.089523337 0 -2.465627744 -1.423530842 0 -2.258725897 -1.733181339 0
          -2.013176623 -2.013176623 0 -1.733181339 -2.258725897 0 -1.423530842 -2.465627744 0 -1.089523337 -2.630342017 0 -0.7368737863 -2.750050409 0 -0.3716161206 -2.822704676 0
          -5.229967467e-16 -2.847061684 0 0.3716161206 -2.822704676 0 0.7368737863 -2.750050409 0 1.089523337 -2.630342017 0 1.423530842 -2.465627744 0 1.733181339 -2.258725897 0
          2.013176623 -2.013176623 0 2.258725897 -1.733181339 0 2.465627744 -1.423530842 0 2.630342017 -1.089523337 0 2.750050409 -0.7368737863 0 2.822704676 -0.3716161206 0
          3.650186051 0 0 3.618958204 0.4764448862 0 3.525808978 0.9447376683 0 3.372332183 1.396865727 0 3.161153849 1.825093026 0 2.895887297 2.222092477 0
          2.58107131 2.58107131 0 2.222092477 2.895887297 0 1.825093026 3.161153849 0 1.396865727 3.372332183 0 0.9447376683 3.525808978 0 0.4764448862 3.618958204 0
          2.235094332e-16 3.650186051 0 -0.4764448862 3.618958204 0 -0.9447376683 3.525808978 0 -1.396865727 3.372332183 0 -1.825093026 3.161153849 0 -2.222092477 2.895887297 0
          -2.58107131 2.58107131 0 -2.895887297 2.222092477 0 -3.161153849 1.825093026 0 -3.372332183 1.396865727 0 -3.525808978 0.9447376683 0 -3.618958204 0.4764448862 0
          -3.650186051 4.470188664e-16 0 -3.618958204 -0.4764448862 0 -3.525808978 -0.9447376683 0 -3.372332183 -1.396865727 0 -3.161153849 -1.825093026 0 -2.895887297 -2.222092477 0
          -2.58107131 -2.58107131 0 -2.222092477 -2.895887297 0 -1.825093026 -3.161153849 0 -1.396865727 -3.372332183 0 -0.9447376683 -3.525808978 0 -0.4764448862 -3.618958204 0
          -6.705282996e-16 -3.650186051 0 0.4764448862 -3.618958204 0 0.9447376683 -3.525808978 0 1.396865727 -3.372332183 0 1.825093026 -3.161153849 0 2.222092477 -2.895887297 0
          2.58107131 -2.58107131 0 2.895887297 -2.222092477 0 3.161153849 -1.825093026 0 3.372332183 -1.396865727 0 3.525808978 -0.9447376683 0 3.618958204 -0.4764448862 0
          4.679862851 0 0 4.639825976 0.6108446781 0 4.520400392 1.211237634 0 4.323629503 1.790905979 0 4.052880116 2.339931426 0 3.712784825 2.848919997 0
          3.309162757 3.309162757 0 2.848919997 3.712784825 0 2.339931426 4.052880116 0 1.790905979 4.323629503 0 1.211237634 4.520400392 0 0.6108446781 4.639825976 0
          2.865589531e-16 4.679862851 0 -0.6108446781 4.639825976 0 -1.211237634 4.520400392 0 -1.790905979 4.323629503 0 -2.339931426 4.052880116 0 -2.848919997 3.712784825 0
          -3.309162757 3.309162757 0 -3.712784825 2.848919997 0 -4.052880116 2.339931426 0 -4.323629503 1.790905979 0 -4.520400392 1.211237634 0 -4.639825976 0.6108446781 0
          -4.679862851 5.731179061e-16 0 -4.639825976 -0.6108446781 0 -4.520400392 -1.211237634 0 -4.323629503 -1.790905979 0 -4.052880116 -2.339931426 0 -3.712784825 -2.848919997 0
          -3.309162757 -3.309162757 0 -2.848919997 -3.712784825 0 -2.339931426 -4.052880116 0 -1.790905979 -4.323629503 0 -1.211237634 -4.520400392 0 -0.6108446781 -4.639825976 0
          -8.596768592e-16 -4.679862851 0 0.6108446781 -4.639825976 0 1.211237634 -4.520400392 0 1.790905979 -4.323629503 0 2.339931426 -4.052880116 0 2.848919997 -3.712784825 0
          3.309162757 -3.309162757 0 3.712784825 -2.848919997 0 4.052880116 -2.339931426 0 4.323629503 -1.790905979 0 4.520400392 -1.211237634 0 4.639825976 -0.6108446781 0
          6 0 0 5.948669168 0.7831571533 0 5.795554958 1.552914271 0 5.543277195 2.296100594 0 5.196152423 3 0 4.760120042 3.652568574 0
          4.242640687 4.242640687 0 3.652568574 4.760120042 0 3 5.196152423 0 2.296100594 5.543277195 0 1.552914271 5.795554958 0 0.7831571533 5.948669168 0
          3.673940397e-16 6 0 -0.7831571533 5.948669168 0 -1.552914271 5.795554958 0 -2.296100594 5.543277195 0 -3 5.196152423 0 -3.652568574 4.760120042 0
          -4.242640687 4.242640687 0 -4.760120042 3.652568574 0 -5.196152423 3 0 -5.543277195 2.296100594 0 -5.795554958 1.552914271 0 -5.948669168 0.7831571533 0
          -6 7.347880795e-16 0 -5.948669168 -0.7831571533 0 -5.795554958 -1.552914271 0 -5.543277195 -2.296100594 0 -5.196152423 -3 0 -4.760120042 -3.652568574 0
          -4.242640687 -4.242640687 0 -3.652568574 -4.760120042 0 -3 -5.196152423 0 -2.296100594 -5.543277195 0 -1.552914271 -5.795554958 0 -0.7831571533 -5.948669168 0
          -1.102182119e-15 -6 0 0.7831571533 -5.948669168 0 1.552914271 -5.795554958 0 2.296100594 -5.543277195 0 3 -5.196152423 0 3.652568574 -4.760120042 0
          4.242640687 -4.242640687 0 4.760120042 -3.652568574 0 5.196152423 -3 0 5.543277195 -2.296100594 0 5.795554958 -1.552914271 0 5.948669168 -0.7831571533 0
        </DataArray>
      </Points>
      <Cells>
        <DataArray type="Int64" Name="connectivity" format="ascii">
          0 1 49 48 1 2 50 49 2 3 51 50
          3 4 52 51 4 5 53 52 5 6 54 53
          6 7 55 54 7 8 56 55 8 9 57 56
          9 10 58 57 10 11 59 58 11 12 60 59
          12 13 61 60 13 14 62 61 14 15 63 62
          15 16 64 63 16 17 65 64 17 18 66 65
          18 19 67 66 19 20 68 67 20 21 69 68
          21 22 70 69 22 23 71 70 23 24 72 71
          24 25 73 72 25 26 74 73 26 27 75 74
          27 28 76 75 28 29 77 76 29 30 78 77
          30 31 79 78 31 32 80 79 32 33 81 80
          33 34 82 81 34 35 83 82 35 36 84 83
          36 37 85 84 37 38 86 85 38 39 87 86
          39 40 88 87 40 41 89 88 41 42 90 89
          42 43 91 90 43 44 92 91 44 45 93 92
          45 46 94 93 46 47 95 94 47 0 48 95
          48 49 97 96 49 50 98 97 50 51 99 98
          51 52 100 99 52 53 101 100 53 54 102 101
          54 55 103 102 55 56 104 103 56 57 105 104
          57 58 106 105 58 59 107 106 59 60 108 107
          60 61 109 108 61 62 110 109 62 63 111 110
          63 64 112 111 64 65 113 112 65 66 114 113
          66 67 115 114 67 68 116 115 68 69 117 116
          69 70 118 117 70 71 119 118 71 72 120 119
          72 73 121 120 73 74 122 121 74 75 123 122
          75 76 124 123 76 77 125 124 77 78 126 125
          78 79 127 126 79 80 128 127 80 81 129 128
          81 82 130 129 82 83 131 130 83 84 132 131
          84 85 133 132 85 86 134 133 86 87 135 134
          87 88 136 135 88 89 137 136 89 90 138 137
          90 91 139 138 91 92 140 139 92 93 141 140
          93 94 142 141 94 95 143 142 95 48 96 143
          96 97 145 96 145 144 97 98 146 97 146 145
          98 99 147 98 147 146 99 100 148 99 148 147
          100 101 149 100 149 148 101 102 150 101 150 149
          102 103 151 102 151 150 103 104 152 103 152 151
          104 105 153 104 153 152 105 106 154 105 154 153
          106 107 155 106 155 154 107 108 156 107 156 155
          108 109 157 108 157 156 109 110 158 109 158 157
          110 111 159 110 159 158 111 112 160 111 160 159
          112 113 161 112 161 160 113 114 162 113 162 161
          114 115 163 114 163 162 115 116 164 115 164 163
          116 117 165 116 165 164 117 118 166 117 166 165
          118 119 167 118 167 166 119 120 168 119 168 167
          120 121 169 120 169 168 121 122 170 121 170 169
          122 123 171 122 171 170 123 124 172 123 172 171
          124 125 173 124 173 172 125 126 174 125 174 173
          126 127 175 126 175 174 127 128 176 127 176 175
          128 129 177 128 177 176 129 130 178 129 178 177
          130 131 179 130 179 178 131 132 180 131 180 179
          132 133 181 132 181 180 133 134 182 133 182 181
          134 135 183 134 183 182 135 136 184 135 184 183
          136 137 185 136 185 184 137 138 186 137 186 185
          138 139 187 138 187 186 139 140 188 139 188 187
          140 141 189 140 189 188 141 142 190 141 190 189
          142 143 191 142 191 190 143 96 144 143 144 191
          144 145 193 192 145 146 194 193 146 147 195 194
          147 148 196 195 148 149 197 196 149 150 198 197
          150 151 199 198 151 152 200 199 152 153 201 200
          153 154 202 201 154 155 203 202 155 156 204 203
          156 157 205 204 157 158 206 205 158 159 207 206
          159 160 208 207 160 161 209 208 161 162 210 209
          162 163 211 210 163 164 212 211 164 165 213 212
          165 166 214 213 166 167 215 214 167 168 216 215
          168 169 217 216 169 170 218 217 170 171 219 218
          171 172 220 219 172 173 221 220 173 174 222 221
          174 175 223 222 175 176 224 223 176 177 225 224
          177 178 226 225 178 179 227 226 179 180 228 227
          180 181 229 228 181 182 230 229 182 183 231 230
          183 184 232 231 184 185 233 232 185 186 234 233
          186 187 235 234 187 188 236 235 188 189 237 236
          189 190 238 237 190 191 239 238 191 144 192 239
          192 193 241 240 193 194 242 241 194 195 243 242
          195 196 244 243 196 197 245 244 197 198 246 245
          198 199 247 246 199 200 248 247 200 201 249 248
          201 202 250 249 202 203 251 250 203 204 252 251
          204 205 253 252 205 206 254 253 206 207 255 254
          207 208 256 255 208 209 257 256 209 210 258 257
          210 211 259 258 211 212 260 259 212 213 261 260
          213 214 262 261 214 215 263 262 215 216 264 263
          216 217 265 264 217 218 266 265 218 219 267 266
          219 220 268 267 220 221 269 268 221 222 270 269
          222 223 271 270 223 224 272 271 224 225 273 272
          225 226 274 273 226 227 275 274 227 228 276 275
          228 229 277 276 229 230 278 277 230 231 279 278
          231 232 280 279 232 233 281 280 233 234 282 281
          234 235 283 282 235 236 284 283 236 237 285 284
          237 238 286 285 238 239 287 286 239 192 240 287
          240 241 289 240 289 288 241 242 290 241 290 289
          242 243 291 242 291 290 243 244 292 243 292 291
          244 245 293 244 293 292 245 246 294 245 294 293
          246 247 295 246 295 294 247 248 296 247 296 295
          248 249 297 248 297 296 249 250 298 249 298 297
          250 251 299 250 299 298 251 252 300 251 300 299
          252 253 301 252 301 300 253 254 302 253 302 301
          254 255 303 254 303 302 255 256 304 255 304 303
          256 257 305 256 305 304 257 258 306 257 306 305
          258 259 307 258 307 306 259 260 308 259 308 307
          260 261 309 260 309 308 261 262 310 261 310 309
          262 263 311 262 311 310 263 264 312 263 312 311
          264 265 313 264 313 312 265 266 314 265 314 313
          266 267 315 266 315 314 267 268 316 267 316 315
          268 269 317 268 317 316 269 270 318 269 318 317
          270 271 319 270 319 318 271 272 320 271 320 319
          272 273 321 272 321 320 273 274 322 273 322 321
          274 275 323 274 323 322 275 276 324 275 324 323
          276 277 325 276 325 324 277 278 326 277 326 325
          278 279 327 278 327 326 279 280 328 279 328 327
          280 281 329 280 329 328 281 282 330 281 330 329
          282 283 331 282 331 330 283 284 332 283 332 331
          284 285 333 284 333 332 285 286 334 285 334 333
          286 287 335 286 335 334 287 240 288 287 288 335
          288 289 337 336 289 290 338 337 290 291 339 338
          291 292 340 339 292 293 341 340 293 294 342 341
          294 295 343 342 295 296 344 343 296 297 345 344
          297 298 346 345 298 299 347 346 299 300 348 347
          300 301 349 348 301 302 350 349 302 303 351 350
          303 304 352 351 304 305 353 352 305 306 354 353
          306 307 355 354 307 308 356 355 308 309 357 356
          309 310 358 357 310 311 359 358 311 312 360 359
          312 313 361 360 313 314 362 361 314 315 363 362
          315 316 364 363 316 317 365 364 317 318 366 365
          318 319 367 366 319 320 368 367 320 321 369 368
          321 322 370 369 322 323 371 370 323 324 372 371
          324 325 373 372 325 326 374 373 326 327 375 374
          327 328 376 375 328 329 377 376 329 330 378 377
          330 331 379 378 331 332 380 379 332 333 381 380
          333 334 382 381 334 335 383 382 335 288 336 383
          336 337 385 384 337 338 386 385 338 339 387 386
          339 340 388 387 340 341 389 388 341 342 390 389
          342 343 391 390 343 344 392 391 344 345 393 392
          345 346 394 393 346 347 395 394 347 348 396 395
          348 349 397 396 349 350 398 397 350 351 399 398
          351 352 400 399 352 353 401 400 353 354 402 401
          354 355 403 402 355 356 404 403 356 357 405 404
          357 358 406 405 358 359 407 406 359 360 408 407
          360 361 409 408 361 362 410 409 362 363 411 410
          363 364 412 411 364 365 413 412 365 366 414 413
          366 367 415 414 367 368 416 415 368 369 417 416
          369 370 418 417 370 371 419 418 371 372 420 419
          372 373 421 420 373 374 422 421 374 375 423 422
          375 376 424 423 376 377 425 424 377 378 426 425
          378 379 427 426 379 380 428 427 380 381 429 428
          381 382 430 429 382 383 431 430 383 336 384 431
          384 385 433 432 385 386 434 433 386 387 435 434
          387 388 436 435 388 389 437 436 389 390 438 437
          390 391 439 438 391 392 440 439 392 393 441 440
          393 394 442 441 394 395 443 442 395 396 444 443
          396 397 445 444 397 398 446 445 398 399 447 446
          399 400 448 447 400 401 449 448 401 402 450 449
          402 403 451 450 403 404 452 451 404 405 453 452
          405 406 454 453 406 407 455 454 407 408 456 455
          408 409 457 456 409 410 458 457 410 411 459 458
          411 412 460 459 412 413 461 460 413 414 462 461
          414 415 463 462 415 416 464 463 416 417 465 464
          417 418 466 465 418 419 467 466 419 420 468 467
          420 421 469 468 421 422 470 469 422 423 471 470
          423 424 472 471 424 425 473 472 425 426 474 473
          426 427 475 474 427 428 476 475 428 429 477 476
          429 430 478 477 430 431 479 478 431 384 432 479
          432 433 481 480 433 434 482 481 434 435 483 482
          435 436 484 483 436 437 485 484 437 438 486 485
          438 439 487 486 439 440 488 487 440 441 489 488
          441 442 490 489 442 443 491 490 443 444 492 491
          444 445 493 492 445 446 494 493 446 447 495 494
          447 448 496 495 448 449 497 496 449 450 498 497
          450 451 499 498 451 452 500 499 452 453 501 500
          453 454 502 501 454 455 503 502 455 456 504 503
          456 457 505 504 457 458 506 505 458 459 507 506
          459 460 508 507 460 461 509 508 461 462 510 509
          462 463 511 510 463 464 512 511 464 465 513 512
          465 466 514 513 466 467 515 514 467 468 516 515
          468 469 517 516 469 470 518 517 470 471 519 518
          471 472 520 519 472 473 521 520 473 474 522 521
          474 475 523 522 475 476 524 523 476 477 525 524
          477 478 526 525 478 479 527 526 479 432 480 527
        </DataArray>
        <DataArray type="Int64" Name="offsets" format="ascii">
          4 8 12 16 20 24 28 32 36 40 44 48
          52 56 60 64 68 72 76 80 84 88 92 96
          100 104 108 112 116 120 124 128 132 136 140 144
          148 152 156 160 164 168 172 176 180 184 188 192
          196 200 204 208 212 216 220 224 228 232 236 240
          244 248 252 256 260 264 268 272 276 280 284 288
          292 296 300 304 308 312 316 320 324 328 332 336
          340 344 348 352 356 360 364 368 372 376 380 384
          387 390 393 396 399 402 405 408 411 414 417 420
          423 426 429 432 435 438 441 444 447 450 453 456
          459 462 465 468 471 474 477 480 483 486 489 492
          495 498 501 504 507 510 513 516 519 522 525 528
          531 534 537 540 543 546 549 552 555 558 561 564
          567 570 573 576 579 582 585 588 591 594 597 600
          603 606 609 612 615 618 621 624 627 630 633 636
          639 642 645 648 651 654 657 660 663 666 669 672
          676 680 684 688 692 696 700 704 708 712 716 720
          724 728 732 736 740 744 748 752 756 760 764 768
          772 776 780 784 788 792 796 800 804 808 812 816
          820 824 828 832 836 840 844 848 852 856 860 864
          868 872 876 880 884 888 892 896 900 904 908 912
          916 920 924 928 932 936 940 944 948 952 956 960
          964 968 972 976 980 984 988 992 996 1000 1004 1008
          1012 1016 1020 1024 1028 1032 1036 1040 1044 1048 1052 1056
          1059 1062 1065 1068 1071 1074 1077 1080 1083 1086 1089 1092
          1095 1098 1101 1104 1107 1110 1113 1116 1119 1122 1125 1128
          1131 1134 1137 1140 1143 1146 1149 1152 1155 1158 1161 1164
          1167 1170 1173 1176 1179 1182 1185 1188 1191 1194 1197 1200
          1203 1206 1209 1212 1215 1218 1221 1224 1227 1230 1233 1236
          1239 1242 1245 1248 1251 1254 1257 1260 1263 1266 1269 1272
          1275 1278 1281 1284 1287 1290 1293 1296 1299 1302 1305 1308
          1311 1314 1317 1320 1323 1326 1329 1332 1335 1338 1341 1344
          1348 1352 1356 1360 1364 1368 1372 1376 1380 1384 1388 1392
          1396 1400 1404 1408 1412 1416 1420 1424 1428 1432 1436 1440
          1444 1448 1452 1456 1460 1464 1468 1472 1476 1480 1484 1488
          1492 1496 1500 1504 1508 1512 1516 1520 1524 1528 1532 1536
          1540 1544 1548 1552 1556 1560 1564 1568 1572 1576 1580 1584
          1588 1592 1596 1600 1604 1608 1612 1616 1620 1624 1628 1632
          1636 1640 1644 1648 1652 1656 1660 1664 1668 1672 1676 1680
          1684 1688 1692 1696 1700 1704 1708 1712 1716 1720 1724 1728
          1732 1736 1740 1744 1748 1752 1756 1760 1764 1768 1772 1776
          1780 1784 1788 1792 1796 1800 1804 1808 1812 1816 1820 1824
          1828 1832 1836 1840 1844 1848 1852 1856 1860 1864 1868 1872
          1876 1880 1884 1888 1892 1896 1900 1904 1908 1912 1916 1920
          1924 1928 1932 1936 1940 1944 1948 1952 1956 1960 1964 1968
          1972 1976 1980 1984 1988 1992 1996 2000 2004 2008 2012 2016
          2020 2024 2028 2032 2036 2040 2044 2048 2052 2056 2060 2064
          2068 2072 2076 2080 2084 2088 2092 2096 2100 2104 2108 2112
        </DataArray>
        <DataArray type="UInt8" Name="types" format="ascii">
          9 9 9 9 9 9 9 9 9 9 9 9 9 9 9 9 9 9 9 9
          9 9 9 9 9 9 9 9 9 9 9 9 9 9 9 9 9 9 9 9
          9 9 9 9 9 9 9 9 9 9 9 9 9 9 9 9 9 9 9 9
          9 9 9 9 9 9 9 9 9 9 9 9 9 9 9 9 9 9 9 9
          9 9 9 9 9 9 9 9 9 9 9 9 9 9 9 9 5 5 5 5
          5 5 5 5 5 5 5 5 5 5 5 5 5 5 5 5 5 5 5 5
          5 5 5 5 5 5 5 5 5 5 5 5 5 5 5 5 5 5 5 5
          5 5 5 5 5 5 5 5 5 5 5 5 5 5 5 5 5 5 5 5
          5 5 5 5 5 5 5 5 5 5 5 5 5 5 5 5 5 5 5 5
          5 5 5 5 5 5 5 5 5 5 5 5 9 9 9 9 9 9 9 9
          9 9 9 9 9 9 9 9 9 9 9 9 9 9 9 9 9 9 9 9
          9 9 9 9 9 9 9 9 9 9 9 9 9 9 9 9 9 9 9 9
          9 9 9 9 9 9 9 9 9 9 9 9 9 9 9 9 9 9 9 9
          9 9 9 9 9 9 9 9 9 9 9 9 9 9 9 9 9 9 9 9
          9 9 9 9 9 9 9 9 5 5 5 5 5 5 5 5 5 5 5 5
          5 5 5 5 5 5 5 5 5 5 5 5 5 5 5 5 5 5 5 5
          5 5 5 5 5 5 5 5 5 5 5 5 5 5 5 5 5 5 5 5
          5 5 5 5 5 5 5 5 5 5 5 5 5 5 5 5 5 5 5 5
          5 5 5 5 5 5 5 5 5 5 5 5 5 5 5 5 5 5 5 5
          5 5 5 5 9 9 9 9 9 9 9 9 9 9 9 9 9 9 9 9
          9 9 9 9 9 9 9 9 9 9 9 9 9 9 9 9 9 9 9 9
          9 9 9 9 9 9 9 9 9 9 9 9 9 9 9 9 9 9 9 9
          9 9 9 9 9 9 9 9 9 9 9 9 9 9 9 9 9 9 9 9
          9 9 9 9 9 9 9 9 9 9 9 9 9 9 9 9 9 9 9 9
          9 9 9 9 9 9 9 9 9 9 9 9 9 9 9 9 9 9 9 9
          9 9 9 9 9 9 9 9 9 9 9 9 9 9 9 9 9 9 9 9
          9 9 9 9 9 9 9 9 9 9 9 9 9 9 9 9 9 9 9 9
          9 9 9 9 9 9 9 9 9 9 9 9 9 9 9 9 9 9 9 9
          9 9 9 9 9 9 9 9 9 9 9 9 9 9 9 9
        </DataArray>
      </Cells>
      <CellData Scalars="density" Vectors="velocity">
        <DataArray type="Float64" Name="density" format="ascii">
          1.011143713 1.011101064 1.010899686 1.010521677 1.009311379 1.008570056
          1.007802353 1.007060587 1.006395351 1.005852058 1.005467821 1.005268902
          1.005268902 1.005467821 1.005852058 1.006395351 1.007060587 1.007802353
          1.008570056 1.009311379 1.009975845 1.01051825 1.010901718 1.011100193
          1.011100193 1.010901718 1.01051825 1.009975845 1.009311379 1.008570056
          1.007802353 1.007060587 1.006395351 1.005852058 1.005467821 1.005268902
          1.005268902 1.005467821 1.005852058 1.006395351 1.007060587 1.007802353
          1.008570056 1.009311379 1.010450164 1.01069145 1.010901934 1.011063736
          1.010377586 1.010828281 1.010642895 1.009655777 1.007834127 1.005309396
          0.9962867521 0.993644584 0.9912732895 0.9893354517 0.9879642768 0.9872542054
          0.9872542054 0.9879642768 0.9893354517 0.9912732895 0.993644584 0.9962867521
          0.9990191761 1.00165566 1.004017108 1.005943577 1.007304905 1.008009291
          1.008009291 1.007304905 1.005943577 1.004017108 1.00165566 0.9990191761
          0.9962867521 0.993644584 0.9912732895 0.9893354517 0.9879642768 0.9872542054
          0.9872542054 0.9879642768 0.9893354517 0.9912732895 0.993644584 0.9962867521
          1.004136583 1.005302382 1.006366948 1.007416029 1.008485432 1.009522789
          1.008577973 1.00765584 1.009094151 1.008225534 1.009134022 1.008439664
          1.008539678 1.008135461 1.007265443 1.007228037 1.005408929 1.005754269
          1.003195507 1.003876744 0.9959142932 1.00184518 0.9943813684 0.9957862787
          0.9931569943 0.9946512898 0.9923251158 0.9938275587 0.9919428377 0.9933715509
          0.9920364205 0.993314549 0.9925994346 0.9936604644 0.9935932119 0.9943855639
          0.9949495632 0.9954401304 0.9965755503 0.9967519324 0.9983599559 0.9982312455
          1.000180973 0.9997770541 1.001914557 1.00128399 1.003442866 1.002649517
          1.004662208 1.003780879 1.005489988 1.004601335 1.005870198 1.005055297
          1.005777132 1.005112032 1.005217082 1.004767699 1.00422792 1.004045607
          1.0028766 1.002994668 1.001254712 1.001686141 0.9994723743 1.000208873
          0.9976508407 0.9986633317 0.9959142932 0.9971548139 0.9943813684 0.9957862787
          0.9931569943 0.9946512898 0.9923251158 0.9938275587 0.9919428377 0.9933715509
          0.9920364205 0.993314549 0.9925994346 0.9936604644 0.9935932119 0.9943855639
          0.9949495632 0.9954401304 1.001613315 1.001091453 1.002754748 1.002180862
          1.003724643 1.003134039 1.004551877 1.003948896 1.005311404 1.004674552
          1.006086411 1.005382738 1.00692276 1.006127588 1.00779207 1.006909482
          1.007171128 1.007302997 1.007087605 1.006490863 1.005515216 1.004220666
          1.002731546 1.001216143 0.9998472628 0.9965580264 0.9960472021 0.9957827389
          0.9957827389 0.9960472021 0.9965580264 0.9972802623 0.9981645321 0.9991504374
          1.000170712 1.001155826 1.002038726 1.00275938 1.003268834 1.003532507
          1.003532507 1.003268834 1.00275938 1.002038726 1.001155826 1.000170712
          0.9991504374 0.9981645321 0.9972802623 0.9965580264 0.9960472021 0.9957827389
          0.9957827389 0.9960472021 0.9965580264 0.9997764326 1.000705715 1.001660347
          1.002599461 1.003515214 1.004415345 1.005290265 1.00609219 1.00674528
          1.007762605 1.007292095 1.006382339 1.005176728 1.003853827 1.002552794
          1.001352093 1.000298925 0.9994306336 0.9979875108 0.9976769341 0.9975161527
          0.9975161527 0.9976769341 0.9979875108 0.9984266665 0.9989644149 0.9995640589
          1.000184704 1.000784056 1.001321297 1.001759868 1.002069938 1.002230426
          1.002230426 1.002069938 1.001759868 1.001321297 1.000784056 1.000184704
          0.9995640589 0.9989644149 0.9984266665 0.9979875108 0.9976769341 0.9975161527
          0.9975161527 0.9976769341 0.9979875108 0.9993374173 1.000050006 1.000917224
          1.001963713 1.003214092 1.004624159 1.006014125 1.00711311 1.007714652
          1.005948268 1.005191057 1.005464671 1.00485272 1.004572185 1.004152049
          1.003380382 1.003110023 1.00217171 1.001995796 1.001139966 1.001047906
          1.000320603 1.000320654 0.9996816624 0.9997696547 0.9991927176 0.9993487967
          0.9988388416 0.9990352519 0.9984631439 0.9987476325 0.9983772873 0.9986451677
          0.9983983043 0.9986323605 0.99852476 0.9987100848 0.9987480216 0.998873036
          0.9990528508 0.9991100939 0.9994184486 0.9994050851 0.9998198794 0.9997378898
          1.000229776 1.000085818 1.000620207 1.000425157 1.00096458 1.000732789
          1.001239451 1.000987766 1.001426112 1.00117273 1.001511864 1.001275091
          1.001490873 1.001287885 1.001364568 1.00121024 1.00114154 1.001047441
          1.000836965 1.000810567 1.000471575 1.000515742 1.000070248 1.000183041
          0.9996603258 0.9998351262 0.9992697448 0.9994957072 0.9989251378 0.9991879222
          0.9986500126 0.9989327616 0.9984631439 0.9987476325 0.9983772873 0.9986451677
          0.9983983043 0.9986323605 0.99852476 0.9987100848 0.9989522269 0.9989627941
          0.9993313957 0.9992376609 0.999839147 0.9996114092 1.000514738 1.00011063
          1.001428355 1.000797954 1.002629151 1.001752872 1.004011236 1.002962652
          1.005234981 1.004176868 1.005946546 1.005000161 1.006118492 1.005277303
          1.005460047 1.004443966 1.002995365 1.001724728 1.00085874 1.000316717
          0.9999547522 0.9996818178 0.999463191 0.9992929703 0.9991697584 0.9991102888
          0.9991102888 0.9991697584 0.9992846408 0.9994471 0.9996460568 0.9998679456
          1.000097641 1.00031949 1.000518377 1.000680756 1.000795569 1.000854999
          1.000854999 1.000795569 1.000680756 1.000518377 1.00031949 1.000097641
          0.9998679456 0.9996460568 0.9994471 0.9992846408 0.9991697584 0.9991102888
          0.9991102888 0.9991697584 0.9992926118 0.9994620618 0.9996802064 0.9999563287
          1.000333282 1.000910654 1.00182416 1.003119636 1.004542128 1.005495634
          1.003966325 1.003072876 1.001714809 1.000750798 1.000303852 1.000085141
          0.9999280421 0.9997897048 0.9996679909 0.9995690064 0.9994990815 0.999462869
          0.999462869 0.9994990433 0.9995689251 0.9996677495 0.9997887789 0.9999237627
          1.000063501 1.00019847 1.000319473 1.000418268 1.000488124 1.000524284
          1.000524284 1.000488124 1.000418268 1.000319473 1.00019847 1.000063501
          0.9999237627 0.9997887789 0.9996677495 0.9995689251 0.9994990433 0.999462869
          0.999462869 0.9994990812 0.9995690036 0.9996679859 0.999789732 0.9999282952
          1.000086012 1.000303928 1.000739511 1.001671893 1.003004004 1.003929719
          1.003344249 1.001971754 1.000716153 1.000265052 1.00012901 1.00004065
          0.9999551711 0.9998730224 0.9997993933 0.9997392755 0.999696765 0.9996747597
          0.9996747597 0.999696765 0.9997392755 0.9997993931 0.9998730199 0.9999551373
          1.000040149 1.000122261 1.000195878 1.000255985 1.000298486 1.000320485
          1.000320485 1.000298486 1.000255985 1.000195878 1.000122261 1.000040149
          0.9999551373 0.9998730199 0.9997993931 0.9997392755 0.999696765 0.9996747597
          0.9996747597 0.999696765 0.9997392755 0.9997993933 0.9998730225 0.999955171
          1.000040634 1.000128828 1.000264649 1.000720003 1.001989409 1.003358582
          1.002441249 1.000967038 1.000242586 1.000123352 1.000075016 1.000024988
          0.9999732687 0.9999233121 0.9998785213 0.9998419492 0.9998160885 0.9998027019
          0.9998027019 0.9998160885 0.9998419492 0.9998785213 0.9999233121 0.9999732687
          1.000024987 1.000074941 1.000119728 1.000156296 1.000182154 1.000195538
          1.000195538 1.000182154 1.000156296 1.000119728 1.000074941 1.000024987
          0.9999732687 0.9999233121 0.9998785213 0.9998419492 0.9998160885 0.9998027019
          0.9998027019 0.9998160885 0.9998419492 0.9998785213 0.9999233121 0.9999732687
          1.000024988 1.000075018 1.000123374 1.000242126 1.000961632 1.002434435
        </DataArray>
        <DataArray type="Float64" Name="velocity" NumberOfComponents="3" format="ascii">
          -0.08510404069 0.001490617366 0 -0.06160794168 -0.08518966096 0 -0.01630130689 -0.1696048508 0 0.04758280892 -0.2459912575 0 0.2906000871 -0.2938281338 0 0.3707954899 -0.3153164272 0
          0.4538198803 -0.3153164272 0 0.5340152831 -0.2938281338 0 0.6059165143 -0.2523159386 0 0.6646236237 -0.1936088292 0 0.7061358189 -0.121707598 0 0.7276241123 -0.04151219517 0
          0.7276241123 0.04151219517 0 0.7061358189 0.121707598 0 0.6646236237 0.1936088292 0 0.6059165143 0.2523159386 0 0.5340152831 0.2938281338 0 0.4538198803 0.3153164272 0
          0.3707954899 0.3153164272 0 0.2906000871 0.2938281338 0 0.2186988559 0.2523159386 0 0.1599917465 0.1936088292 0 0.1184795513 0.121707598 0 0.09699125788 0.04151219517 0
          0.09699125788 -0.04151219517 0 0.1184795513 -0.121707598 0 0.1599917465 -0.1936088292 0 0.2186988559 -0.2523159386 0 0.2906000871 -0.2938281338 0 0.3707954899 -0.3153164272 0
          0.4538198803 -0.3153164272 0 0.5340152831 -0.2938281338 0 0.6059165143 -0.2523159386 0 0.6646236237 -0.1936088292 0 0.7061358189 -0.121707598 0 0.7276241123 -0.04151219517 0
          0.7276241123 0.04151219517 0 0.7061358189 0.121707598 0 0.6646236237 0.1936088292 0 0.6059165143 0.2523159386 0 0.5340152831 0.2938281338 0 0.4538198803 0.3153164272 0
          0.3707954899 0.3153164272 0 0.2906000871 0.2938281338 0 0.04758280892 0.2586406197 0 -0.01630130689 0.2176128076 0 -0.06160794168 0.1582255351 0 -0.08510404069 0.08451500771 0
          0.1103754483 0.2519018105 0 0.1499104793 0.1137233601 0 0.2257976841 -0.03115867108 0 0.3320528218 -0.1726132077 0 0.4605546949 -0.3007211197 0 0.6018426764 -0.406618355 0
          1.056143808 -0.4630134253 0 1.173903446 -0.4314598255 0 1.279483849 -0.3705029516 0 1.365689886 -0.2842969139 0 1.42664676 -0.1787165113 0 1.45820036 -0.06095687385 0
          1.45820036 0.06095687385 0 1.42664676 0.1787165113 0 1.365689886 0.2842969139 0 1.279483849 0.3705029516 0 1.173903446 0.4314598255 0 1.056143808 0.4630134253 0
          0.9342300608 0.4630134253 0 0.8164704233 0.4314598255 0 0.7108900207 0.3705029516 0 0.624683983 0.2842969139 0 0.5637271091 0.1787165113 0 0.5321735094 0.06095687385 0
          0.5321735094 -0.06095687385 0 0.5637271091 -0.1787165113 0 0.624683983 -0.2842969139 0 0.7108900207 -0.3705029516 0 0.8164704233 -0.4314598255 0 0.9342300608 -0.4630134253 0
          1.056143808 -0.4630134253 0 1.173903446 -0.4314598255 0 1.279483849 -0.3705029516 0 1.365689886 -0.2842969139 0 1.42664676 -0.1787165113 0 1.45820036 -0.06095687385 0
          1.45820036 0.06095687385 0 1.42664676 0.1787165113 0 1.365689886 0.2842969139 0 1.279483849 0.3705029516 0 1.173903446 0.4314598255 0 1.056143808 0.4630134253 0
          0.6018426764 0.5194084956 0 0.4605546949 0.5621985313 0 0.3320528218 0.5683926956 0 0.2257976841 0.5374351568 0 0.1499104793 0.4711563828 0 0.1103754483 0.3738155582 0
          0.2903162425 0.3897744361 0 0.3391825624 0.4509940833 0 0.3293277892 0.2858436573 0 0.36652071 0.3651069563 0 0.3969361203 0.1704351431 0 0.4226134195 0.2644643398 0
          0.4867855028 0.0516058678 0 0.5014424198 0.1556557701 0 0.5910943218 -0.06207462956 0 0.5953475154 0.04627874844 0 0.7016736757 -0.1622983903 0 0.6963027768 -0.05553288351 0
          0.8106835665 -0.2420034637 0 0.7968299861 -0.1421110038 0 1.133281109 -0.2802692605 0 0.8904492692 -0.207421298 0 1.201278683 -0.2362235939 0 1.152468612 -0.2146000524 0
          1.255559439 -0.1760796798 0 1.20281595 -0.1678259524 0 1.292424233 -0.1039362265 0 1.239341717 -0.1096147911 0 1.309360789 -0.02470969114 0 1.259556742 -0.04393356295 0
          1.30521491 0.05620076885 0 1.262083403 0.02474166494 0 1.28026913 0.1332812393 0 1.246749513 0.09173078924 0 1.236223464 0.2012788136 0 1.214600052 0.1524686119 0
          1.17607955 0.2555595693 0 1.167825952 0.2028159505 0 1.103936096 0.2924243628 0 1.109614791 0.2393417174 0 1.024709561 0.3093609191 0 1.043933563 0.2595567417 0
          0.9437991009 0.3052150401 0 0.9752583349 0.262083403 0 0.8667186304 0.2802692605 0 0.9082692106 0.2467495135 0 0.7987210562 0.2362235939 0 0.847531388 0.2146000524 0
          0.7444403004 0.1760796798 0 0.7971840493 0.1678259524 0 0.707575507 0.1039362265 0 0.7606582825 0.1096147911 0 0.6906389506 0.02470969114 0 0.7404432582 0.04393356295 0
          0.6947848297 -0.05620076885 0 0.7379165969 -0.02474166494 0 0.7197306093 -0.1332812393 0 0.7532504864 -0.09173078924 0 0.7637762758 -0.2012788136 0 0.7853999474 -0.1524686119 0
          0.82392019 -0.2555595693 0 0.8321740474 -0.2028159505 0 0.8960636433 -0.2924243628 0 0.8903852087 -0.2393417174 0 0.9752901786 -0.3093609191 0 0.9560664369 -0.2595567417 0
          1.056200639 -0.3052150401 0 1.024741665 -0.262083403 0 1.133281109 -0.2802692605 0 1.091730789 -0.2467495135 0 1.201278683 -0.2362235939 0 1.152468612 -0.2146000524 0
          1.255559439 -0.1760796798 0 1.20281595 -0.1678259524 0 1.292424233 -0.1039362265 0 1.239341717 -0.1096147911 0 1.309360789 -0.02470969114 0 1.259556742 -0.04393356295 0
          1.30521491 0.05620076885 0 1.262083403 0.02474166494 0 1.28026913 0.1332812393 0 1.246749513 0.09173078924 0 1.236223464 0.2012788136 0 1.214600052 0.1524686119 0
          1.17607955 0.2555595693 0 1.167825952 0.2028159505 0 0.8732479708 0.3065713292 0 0.91474562 0.2572960764 0 0.7687069629 0.4050780979 0 0.8240812145 0.3563021282 0
          0.6581937396 0.4852372262 0 0.724887897 0.4424723995 0 0.5491010399 0.5417644693 0 0.6233358689 0.5100612059 0 0.4494746038 0.5703917969 0 0.5266501634 0.5538373402 0
          0.3674515559 0.5686011467 0 0.4427746316 0.5700617934 0 0.3103858657 0.5361467251 0 0.3795902689 0.5572881307 0 0.2837803881 0.4751447716 0 0.3437140172 0.5165626379 0
          0.4526487262 0.395932586 0 0.4844291989 0.3394500418 0 0.5427579486 0.2729700878 0 0.6190407467 0.1976737089 0 0.7039343978 0.1170248595 0 0.7893800571 0.03731452142 0
          0.8694359391 -0.0338296105 0 0.940116259 -0.08974129305 0 0.9988031455 -0.1263665553 0 1.137788987 -0.1057292086 0 1.160458674 -0.06646415903 0 1.172193368 -0.02266968691 0
          1.172193368 0.02266968691 0 1.160458674 0.06646415903 0 1.137788987 0.1057292086 0 1.105729209 0.1377889872 0 1.066464159 0.1604586741 0 1.022669687 0.1721933676 0
          0.9773303131 0.1721933676 0 0.933535841 0.1604586741 0 0.8942707914 0.1377889872 0 0.8622110128 0.1057292086 0 0.8395413259 0.06646415903 0 0.8278066324 0.02266968691 0
          0.8278066324 -0.02266968691 0 0.8395413259 -0.06646415903 0 0.8622110128 -0.1057292086 0 0.8942707914 -0.1377889872 0 0.933535841 -0.1604586741 0 0.9773303131 -0.1721933676 0
          1.022669687 -0.1721933676 0 1.066464159 -0.1604586741 0 1.105729209 -0.1377889872 0 1.137788987 -0.1057292086 0 1.160458674 -0.06646415903 0 1.172193368 -0.02266968691 0
          1.172193368 0.02266968691 0 1.160458674 0.06646415903 0 1.137788987 0.1057292086 0 0.9988031455 0.1492114192 0 0.940116259 0.2311760552 0 0.8694359391 0.3105571247 0
          0.7893800571 0.3817012566 0 0.7039343978 0.4379422078 0 0.6190407467 0.4732516834 0 0.5427579486 0.4844285049 0 0.4844291989 0.4723783598 0 0.4526487262 0.4412719599 0
          0.5521427926 0.06371347431 0 0.5894749137 0.05821622558 0 0.6541886966 0.06320522435 0 0.7317159434 0.06294659221 0 0.8092270614 0.04822161094 0 0.8789518123 0.02031973341 0
          0.9378838255 -0.01246461688 0 0.9857740949 -0.04094793739 0 1.023283618 -0.05912039497 0 1.083825907 -0.06432188038 0 1.097617336 -0.04043442437 0 1.104756305 -0.01379142916 0
          1.104756305 0.01379142916 0 1.097617336 0.04043442437 0 1.083825907 0.06432188038 0 1.06432188 0.08382590654 0 1.040434424 0.0976173357 0 1.013791429 0.1047563047 0
          0.9862085708 0.1047563047 0 0.9595655756 0.0976173357 0 0.9356781196 0.08382590654 0 0.9161740935 0.06432188038 0 0.9023826643 0.04043442437 0 0.8952436953 0.01379142916 0
          0.8952436953 -0.01379142916 0 0.9023826643 -0.04043442437 0 0.9161740935 -0.06432188038 0 0.9356781196 -0.08382590654 0 0.9595655756 -0.0976173357 0 0.9862085708 -0.1047563047 0
          1.013791429 -0.1047563047 0 1.040434424 -0.0976173357 0 1.06432188 -0.08382590654 0 1.083825907 -0.06432188038 0 1.097617336 -0.04043442437 0 1.104756305 -0.01379142916 0
          1.104756305 0.01379142916 0 1.097617336 0.04043442437 0 1.083825907 0.06432188038 0 1.023283618 0.1085314181 0 0.9857740949 0.154286734 0 0.9378838255 0.1970479926 0
          0.8789518123 0.2298323429 0 0.8092270614 0.2434562823 0 0.7317159434 0.2305984053 0 0.6541886966 0.1918489851 0 0.5894749137 0.1390850743 0 0.5521427926 0.09129633263 0
          0.624285279 -0.2844374619 0 0.6391600624 -0.3599563838 0 0.6773450029 -0.2343605579 0 0.6831213194 -0.3187070302 0 0.7537427863 -0.1583794773 0 0.7584330039 -0.23537663 0
          0.8313058604 -0.090825077 0 0.8375102902 -0.1481828399 0 0.8968319773 -0.05067219247 0 0.9028821663 -0.08560913106 0 0.9472450549 -0.03705904927 0 0.95073731 -0.05414665233 0
          0.9849027455 -0.03829805942 0 0.9846567745 -0.04412050411 0 1.0131521 -0.04263443754 0 1.00929054 -0.04250647631 0 1.03434888 -0.04323471487 0 1.02772869 -0.04063169752 0
          1.049642866 -0.03794680239 0 1.04139923 -0.03502118636 0 1.06584228 -0.02340228448 0 1.053890183 -0.02468086708 0 1.069655716 -0.00556363494 0 1.058441798 -0.009892081317 0
          1.068722229 0.01265416712 0 1.059010701 0.005570833437 0 1.063105437 0.03000960861 0 1.055558122 0.0206541051 0 1.053188113 0.04531994486 0 1.048319349 0.03432983363 0
          1.039646107 0.05754180177 0 1.037787693 0.04566604073 0 1.023402284 0.06584227997 0 1.024680867 0.05389018262 0 1.005563635 0.06965571561 0 1.009892081 0.05844179763 0
          0.9873458329 0.06872222934 0 0.9944291666 0.05901070071 0 0.9699903914 0.06310543671 0 0.9793458949 0.05555812205 0 0.9546800551 0.05318811285 0 0.9656701664 0.04831934919 0
          0.9424581982 0.039646107 0 0.9543339593 0.03778769253 0 0.93415772 0.02340228448 0 0.9461098174 0.02468086708 0 0.9303442844 0.00556363494 0 0.9415582024 0.009892081317 0
          0.9312777707 -0.01265416712 0 0.9409892993 -0.005570833437 0 0.9368945633 -0.03000960861 0 0.944441878 -0.0206541051 0 0.9468118871 -0.04531994486 0 0.9516806508 -0.03432983363 0
          0.960353893 -0.05754180177 0 0.9622123075 -0.04566604073 0 0.9765977155 -0.06584227997 0 0.9753191329 -0.05389018262 0 0.9944363651 -0.06965571561 0 0.9901079187 -0.05844179763 0
          1.012654167 -0.06872222934 0 1.005570833 -0.05901070071 0 1.030009609 -0.06310543671 0 1.020654105 -0.05555812205 0 1.045319945 -0.05318811285 0 1.034329834 -0.04831934919 0
          1.057541802 -0.039646107 0 1.045666041 -0.03778769253 0 1.06584228 -0.02340228448 0 1.053890183 -0.02468086708 0 1.069655716 -0.00556363494 0 1.058441798 -0.009892081317 0
          1.068722229 0.01265416712 0 1.059010701 0.005570833437 0 1.063105437 0.03000960861 0 1.055558122 0.0206541051 0 1.044329388 0.04991990602 0 1.044453433 0.03597192997 0
          1.026802187 0.07141997532 0 1.032019895 0.05184666645 0 1.003043938 0.09055631764 0 1.015008861 0.06554184405 0 0.9714676042 0.1024279901 0 0.9923464245 0.07358411458 0
          0.929235552 0.09757138158 0 0.9614571874 0.06826041662 0 0.873014022 0.06341443241 0 0.9180120865 0.03726015477 0 0.8019308111 -0.008177760908 0 0.8576420344 -0.03077973604 0
          0.7226261771 -0.1095127664 0 0.7812987256 -0.1341091876 0 0.6524917192 -0.2122374804 0 0.7023539356 -0.2485883129 0 0.6146600225 -0.2786796522 0 0.6468141764 -0.3347285937 0
          0.6988648074 -0.1603779335 0 0.7607311534 -0.1609910595 0 0.844984949 -0.1399511465 0 0.9144252085 -0.1022960215 0 0.9586556924 -0.0680715774 0 0.9846399967 -0.0482669396 0
          1.001223208 -0.0396746541 0 1.013432974 -0.03513781414 0 1.023131581 -0.03021592248 0 1.030673221 -0.02347143915 0 1.036128876 -0.01496507047 0 1.03877106 -0.00510430685 0
          1.03877106 0.00510430685 0 1.036128876 0.01496507047 0 1.031024569 0.02380598928 0 1.023805989 0.03102456925 0 1.01496507 0.0361288761 0 1.005104307 0.03877105975 0
          0.9948956931 0.03877105975 0 0.9850349295 0.0361288761 0 0.9761940107 0.03102456925 0 0.9689754307 0.02380598928 0 0.9638711239 0.01496507047 0 0.9612289402 0.00510430685 0
          0.9612289402 -0.00510430685 0 0.9638711239 -0.01496507047 0 0.9689754307 -0.02380598928 0 0.9761940107 -0.03102456925 0 0.9850349295 -0.0361288761 0 0.9948956931 -0.03877105975 0
          1.005104307 -0.03877105975 0 1.01496507 -0.0361288761 0 1.023805989 -0.03102456925 0 1.031024569 -0.02380598928 0 1.036128876 -0.01496507047 0 1.03877106 -0.00510430685 0
          1.03877106 0.00510430685 0 1.036128876 0.01496507047 0 1.030673221 0.0241405394 0 1.023131581 0.03183321602 0 1.013432974 0.03711993806 0 1.001223208 0.0378674654 0
          0.9846399967 0.0292751799 0 0.9586556924 0.004186174805 0 0.9144252085 -0.04024688303 0 0.844984949 -0.09233916791 0 0.7607311534 -0.1310609186 0 0.6988648074 -0.1501693198 0
          0.7615348892 0.2592738223 0 0.8374605833 0.1592088695 0 0.919171923 0.05141233581 0 0.9660337617 -0.005581414233 0 0.9861555888 -0.02205648002 0 0.9959096593 -0.02440805002 0
          1.002910024 -0.02382541917 0 1.009062838 -0.02200697989 0 1.01447225 -0.01886839423 0 1.018870756 -0.01447845609 0 1.021977864 -0.009103467985 0 1.02358693 -0.003105278278 0
          1.02358693 0.003105278278 0 1.02197952 0.00910421525 0 1.018874242 0.014482715 0 1.014482715 0.01887424165 0 1.009104215 0.02197951993 0 1.003105278 0.02358693025 0
          0.9968947217 0.02358693025 0 0.9908957847 0.02197951993 0 0.985517285 0.01887424165 0 0.9811257583 0.014482715 0 0.9780204801 0.00910421525 0 0.9764130698 0.003105278278 0
          0.9764130698 -0.003105278278 0 0.9780204801 -0.00910421525 0 0.9811257583 -0.014482715 0 0.985517285 -0.01887424165 0 0.9908957847 -0.02197951993 0 0.9968947217 -0.02358693025 0
          1.003105278 -0.02358693025 0 1.009104215 -0.02197951993 0 1.014482715 -0.01887424165 0 1.018874242 -0.014482715 0 1.02197952 -0.00910421525 0 1.02358693 -0.003105278278 0
          1.02358693 0.003105278278 0 1.021977864 0.009104962516 0 1.018870756 0.0144869739 0 1.01447225 0.01888008908 0 1.009062838 0.02195205997 0 1.002910024 0.02334844133 0
          0.9959096593 0.02276581048 0 0.9861555888 0.02190255985 0 0.9660337617 0.03216706908 0 0.919171923 0.08037776581 0 0.8374605833 0.1774173 0 0.7615348892 0.2654843788 0
          0.8206041789 -0.1707146811 0 0.9048877284 -0.07643383091 0 0.9674655918 -0.0185242607 0 0.9880911051 -0.01070394299 0 0.9941636589 -0.01306873017 0 0.9980888808 -0.01432428557 0
          1.001887645 -0.01434923727 0 1.005538567 -0.01337168057 0 1.008810756 -0.0114824244 0 1.011482414 -0.008810765863 0 1.013371556 -0.005538679432 0 1.014349447 -0.001889140576 0
          1.014349447 0.001889140576 0 1.013371556 0.005538679919 0 1.011482416 0.008810767379 0 1.008810767 0.0114824156 0 1.00553868 0.01337155618 0 1.001889141 0.0143494473 0
          0.9981108594 0.0143494473 0 0.9944613201 0.01337155618 0 0.9911892326 0.0114824156 0 0.9885175844 0.008810767379 0 0.9866284438 0.005538679919 0 0.9856505527 0.001889140576 0
          0.9856505527 -0.001889140576 0 0.9866284438 -0.005538679919 0 0.9885175844 -0.008810767379 0 0.9911892326 -0.0114824156 0 0.9944613201 -0.01337155618 0 0.9981108594 -0.0143494473 0
          1.001889141 -0.0143494473 0 1.00553868 -0.01337155618 0 1.008810767 -0.0114824156 0 1.011482416 -0.008810767379 0 1.013371556 -0.005538679919 0 1.014349447 -0.001889140576 0
          1.014349447 0.001889140576 0 1.013371556 0.005538680406 0 1.011482414 0.008810768895 0 1.008810756 0.01148240681 0 1.005538567 0.01337143178 0 1.001887645 0.01434965732 0
          0.9980888808 0.01437460903 0 0.9941636589 0.01367438218 0 0.9880911051 0.01226088821 0 0.9674655918 -0.0009027259404 0 0.9048877284 -0.06535647108 0 0.8206041789 -0.1669364 0
          0.8751027325 0.1307264287 0 0.9555006219 0.03229547598 0 0.9891531043 -0.003452285063 0 0.9944774173 -0.007052746806 0 0.9966270944 -0.008138788865 0 0.9988506691 -0.008729722693 0
          1.001149285 -0.008729691593 0 1.003369535 -0.008134777969 0 1.005360157 -0.006985492212 0 1.006985492 -0.005360156698 0 1.008134778 -0.003369535364 0 1.008729692 -0.001149285763 0
          1.008729692 0.001149285763 0 1.008134778 0.003369535364 0 1.006985492 0.005360156698 0 1.005360157 0.006985492212 0 1.003369535 0.008134777975 0 1.001149286 0.008729692062 0
          0.9988507142 0.008729692062 0 0.9966304646 0.008134777975 0 0.9946398433 0.006985492212 0 0.9930145078 0.005360156698 0 0.991865222 0.003369535364 0 0.9912703079 0.001149285763 0
          0.9912703079 -0.001149285763 0 0.991865222 -0.003369535364 0 0.9930145078 -0.005360156698 0 0.9946398433 -0.006985492212 0 0.9966304646 -0.008134777975 0 0.9988507142 -0.008729692062 0
          1.001149286 -0.008729692062 0 1.003369535 -0.008134777975 0 1.005360157 -0.006985492212 0 1.006985492 -0.005360156698 0 1.008134778 -0.003369535364 0 1.008729692 -0.001149285763 0
          1.008729692 0.001149285763 0 1.008134778 0.003369535364 0 1.006985492 0.005360156698 0 1.005360157 0.006985492211 0 1.003369535 0.008134777981 0 1.001149285 0.008729692532 0
          0.9988506691 0.008729661432 0 0.9966270944 0.008130767085 0 0.9944774173 0.006918237617 0 0.9891531043 0.007268028334 0 0.9555006219 0.03903454671 0 0.8751027325 0.1330250002 0
        </DataArray>
        <DataArray type="Float64" Name="pressure" format="ascii">
          32.24240929 32.24050534 32.23151598 32.21464383 32.16064005 32.12757487
          32.09334328 32.0602781 32.03063267 32.00642728 31.98931148 31.98045169
          31.98045169 31.98931148 32.00642728 32.03063267 32.0602781 32.09334328
          32.12757487 32.16064005 32.19028548 32.21449088 32.23160667 32.24046646
          32.24046646 32.23160667 32.21449088 32.19028548 32.16064005 32.12757487
          32.09334328 32.0602781 32.03063267 32.00642728 31.98931148 31.98045169
          31.98045169 31.98931148 32.00642728 32.03063267 32.0602781 32.09334328
          32.12757487 32.16064005 32.2114522 32.22222121 32.23161632 32.238839
          32.20821312 32.22832867 32.22005402 32.17600455 32.09475984 31.9822552
          31.58112116 31.46392831 31.35885607 31.27306495 31.21240146 31.18099973
          31.18099973 31.21240146 31.27306495 31.35885607 31.46392831 31.58112116
          31.70244813 31.81964098 31.92471322 32.01050434 32.07116782 32.10256955
          32.10256955 32.07116782 32.01050434 31.92471322 31.81964098 31.70244813
          31.58112116 31.46392831 31.35885607 31.27306495 31.21240146 31.18099973
          31.18099973 31.21240146 31.27306495 31.35885607 31.46392831 31.58112116
          31.93003185 31.98194284 32.02936708 32.07612118 32.123801 32.17007134
          32.12792793 32.08681151 32.15095005 32.11221149 32.15272854 32.12176
          32.1262201 32.10819514 32.06940887 32.06774155 31.98668839 32.00207102
          31.88814499 31.91846496 31.56459328 31.82807 31.49659572 31.5589132
          31.44231497 31.50856587 31.40545018 31.4720401 31.38851362 31.45182507
          31.3926595 31.44929841 31.41760528 31.4646323 31.46165094 31.49678176
          31.52179485 31.54355586 31.59393829 31.60176703 31.67316481 31.66744825
          31.75407526 31.73612348 31.83115572 31.80311261 31.89915329 31.86385043
          31.95343404 31.91419777 31.99029883 31.95072353 32.00723538 31.97093856
          32.0030895 31.97346522 31.97814373 31.95813133 31.93409807 31.92598187
          31.87395416 31.87920777 31.80181072 31.82099661 31.72258419 31.75531538
          31.64167374 31.68664015 31.56459328 31.61965103 31.49659572 31.5589132
          31.44231497 31.50856587 31.40545018 31.4720401 31.38851362 31.45182507
          31.3926595 31.44929841 31.41760528 31.4646323 31.46165094 31.49678176
          31.52179485 31.54355586 31.81775775 31.79455134 31.86853242 31.84300122
          31.91169466 31.8854096 31.9485214 31.92167673 31.98234464 31.95398365
          32.01686779 31.98552183 32.0541354 32.01870233 32.09288481 32.0535436
          32.06520501 32.07108276 32.06148232 32.03488858 31.99142252 31.93377512
          31.8675001 31.80009571 31.73924363 31.59316052 31.57049084 31.55875614
          31.55875614 31.57049084 31.59316052 31.6252203 31.66448535 31.70827982
          31.7536192 31.79741367 31.83667872 31.8687385 31.89140818 31.90314288
          31.90314288 31.89140818 31.8687385 31.83667872 31.79741367 31.7536192
          31.70827982 31.66448535 31.6252203 31.59316052 31.57049084 31.55875614
          31.55875614 31.57049084 31.59316052 31.73609586 31.77740127 31.81984946
          31.86162338 31.90237324 31.94244245 31.98140316 32.01712526 32.04622584
          32.09157121 32.07059684 32.03005287 31.9763465 31.91744487 31.85954716
          31.80614103 31.7593181 31.72072945 31.6566238 31.64283237 31.6356934
          31.6356934 31.64283237 31.6566238 31.67612782 31.70001528 31.72665827
          31.75424113 31.78088413 31.80477158 31.82427561 31.83806704 31.84520601
          31.84520601 31.83806704 31.82427561 31.80477158 31.78088413 31.75424113
          31.72665827 31.70001528 31.67612782 31.6566238 31.64283237 31.6356934
          31.6356934 31.64283237 31.6566238 31.71658753 31.74825426 31.78680476
          31.83334215 31.88897205 31.95173982 32.0136473 32.06261908 32.0894334
          32.01071336 31.97698465 31.98917118 31.96191729 31.94942562 31.93072036
          31.89637243 31.88434093 31.84259411 31.83476918 31.79670846 31.7926151
          31.76028167 31.76028395 31.73188431 31.73579465 31.71015832 31.71709315
          31.69443669 31.70316233 31.67774803 31.69038491 31.67393459 31.6858333
          31.67486808 31.6852644 31.68048487 31.68871698 31.6904022 31.69595575
          31.7039442 31.70648741 31.72018803 31.71959423 31.73802667 31.73438302
          31.75624448 31.74984593 31.77359992 31.7649292 31.78891025 31.77860493
          31.80113211 31.78994114 31.80943259 31.79816528 31.81324603 31.8027169
          31.81231254 31.8032858 31.80669575 31.79983322 31.79677842 31.79259445
          31.78323642 31.78206279 31.76699259 31.76895596 31.74915394 31.75416718
          31.73093614 31.73870426 31.7135807 31.72362099 31.69827036 31.70994526
          31.68604851 31.69860906 31.67774803 31.69038491 31.67393459 31.6858333
          31.67486808 31.6852644 31.68048487 31.68871698 31.69947381 31.69994327
          31.71631997 31.71215518 31.73888295 31.72876238 31.76891135 31.75094872
          31.8095323 31.78150204 31.86294431 31.82396449 31.9244518 31.87778312
          31.97894093 31.93182526 32.01063665 31.96848315 32.0182971 31.98082584
          31.9889652 31.94371674 31.8792388 31.82271278 31.78420451 31.76010894
          31.74402075 31.73189122 31.72217613 31.71461265 31.70913825 31.70649606
          31.70649606 31.70913825 31.71424255 31.72146113 31.73030205 31.74016281
          31.75037143 31.76023219 31.76907311 31.77629169 31.781396 31.78403818
          31.78403818 31.781396 31.77629169 31.76907311 31.76023219 31.75037143
          31.74016281 31.73030205 31.72146113 31.71424255 31.70913825 31.70649606
          31.70649606 31.70913825 31.71459672 31.72212595 31.7318196 31.74409082
          31.76084527 31.78651262 31.82713511 31.8847687 31.94808732 31.99055032
          31.92245259 31.8826879 31.82227162 31.77940556 31.75953708 31.74981584
          31.74283366 31.73668569 31.73127677 31.72687812 31.72377093 31.72216182
          31.72216182 31.72376923 31.72687451 31.73126604 31.73664454 31.74264347
          31.74885403 31.75485297 31.76023147 31.76462299 31.76772827 31.76933568
          31.76933568 31.76772827 31.76462299 31.76023147 31.75485297 31.74885403
          31.74264347 31.73664454 31.73126604 31.72687451 31.72376923 31.72216182
          31.72216182 31.72377092 31.726878 31.73127654 31.73668689 31.74284491
          31.74985458 31.75954046 31.77890377 31.82036294 31.87962318 31.92082307
          31.89476439 31.83369978 31.77786534 31.75781244 31.75176566 31.74783845
          31.74403937 31.74038844 31.73711625 31.73444459 31.73255545 31.73157756
          31.73157756 31.73255545 31.73444459 31.73711624 31.74038833 31.74403787
          31.74781615 31.75146569 31.75473778 31.75740942 31.75929856 31.76027646
          31.76027646 31.75929856 31.75740942 31.75473778 31.75146569 31.74781615
          31.74403787 31.74038833 31.73711624 31.73444459 31.73255545 31.73157756
          31.73157756 31.73255545 31.73444459 31.73711625 31.74038844 31.74403936
          31.74783772 31.75175756 31.75779457 31.7780365 31.83448511 31.89540226
          31.85458465 31.78901953 31.75681385 31.75151421 31.74936584 31.74714231
          31.7448437 31.74262345 31.74063283 31.73900749 31.7378582 31.73726329
          31.73726329 31.7378582 31.73900749 31.74063283 31.74262345 31.7448437
          31.74714227 31.74936252 31.75135314 31.75297847 31.75412776 31.75472267
          31.75472267 31.75412776 31.75297847 31.75135314 31.74936252 31.74714227
          31.7448437 31.74262345 31.74063283 31.73900749 31.7378582 31.73726329
          31.73726329 31.7378582 31.73900749 31.74063283 31.74262345 31.7448437
          31.74714231 31.74936591 31.75151515 31.7567934 31.78877918 31.85428152
        </DataArray>
        <DataArray type="Float64" Name="mach" format="ascii">
          0.0127392972 0.01573507552 0.02550261231 0.03750406459 0.06187411939 0.07288617738
          0.08276263322 0.0912985357 0.09832737657 0.1037162708 0.1073649929 0.1092062605
          0.1092062605 0.1073649929 0.1037162708 0.09832737657 0.0912985357 0.08276263322
          0.07288617738 0.06187411939 0.04998640829 0.03759536026 0.02542280468 0.01579032445
          0.01579032445 0.02542280468 0.03759536026 0.04998640829 0.06187411939 0.07288617738
          0.08276263322 0.0912985357 0.09832737657 0.1037162708 0.1073649929 0.1092062605
          0.1092062605 0.1073649929 0.1037162708 0.09832737657 0.0912985357 0.08276263322
          0.07288617738 0.06187411939 0.03936524208 0.03266382951 0.02541430516 0.01795137815
          0.04116825105 0.02816405358 0.03411829328 0.05602797994 0.08237730681 0.1088339516
          0.1731055572 0.1878417567 0.2001577404 0.2096942652 0.2161924988 0.2194834559
          0.2194834559 0.2161924988 0.2096942652 0.2001577404 0.1878417567 0.1731055572
          0.1564316667 0.1384734341 0.1201505933 0.1028282058 0.08857765431 0.08021989355
          0.08021989355 0.08857765431 0.1028282058 0.1201505933 0.1384734341 0.1564316667
          0.1731055572 0.1878417567 0.2001577404 0.2096942652 0.2161924988 0.2194834559
          0.2194834559 0.2161924988 0.2096942652 0.2001577404 0.1878417567 0.1731055572
          0.1191492105 0.1088985243 0.09861637405 0.08731215053 0.07403934354 0.05835481129
          0.07277736476 0.08451678038 0.06529326344 0.07747394187 0.06467922119 0.07465561386
          0.07330222813 0.07862936524 0.08902273834 0.08944260173 0.1079133746 0.1046568939
          0.1268241492 0.1213165651 0.1752569245 0.137092723 0.1838497085 0.1759903534
          0.190438255 0.1823656559 0.1947894322 0.1868582111 0.1967571762 0.1893000282
          0.1962772616 0.1896030814 0.1933652527 0.1877565962 0.1881169864 0.1838267315
          0.1807117402 0.1779585822 0.1714190691 0.170380942 0.1606111541 0.1614146856
          0.1487831957 0.151485704 0.13658383 0.1411422469 0.124852255 0.1310723705
          0.1146404027 0.1221065331 0.1071578581 0.1151715653 0.1035408495 0.1111496716
          0.10443773 0.1106368043 0.1096808811 0.1137140874 0.1183779822 0.1199124845
          0.1293223274 0.1284030648 0.1413503538 0.1382522926 0.1534930394 0.1485947234
          0.1649900225 0.1587012708 0.1752569245 0.1679859383 0.1838497085 0.1759903534
          0.190438255 0.1823656559 0.1947894322 0.1868582111 0.1967571762 0.1893000282
          0.1962772616 0.1896030814 0.1933652527 0.1877565962 0.1881169864 0.1838267315
          0.1807117402 0.1779585822 0.1387800672 0.1425052819 0.1302642982 0.1346126913
          0.1225675806 0.1273094549 0.115601327 0.1207186159 0.1088154559 0.1145324015
          0.1014267138 0.1081563687 0.09279837695 0.1010190928 0.08288696144 0.09294160357
          0.09007762582 0.08859923076 0.09100162773 0.0973492946 0.1069216364 0.1184394156
          0.1304428919 0.1416240386 0.1510193981 0.1715218695 0.1744922328 0.1760105913
          0.1760105913 0.1744922328 0.1715218695 0.1672332651 0.1618296198 0.1555861972
          0.1488524496 0.1420510033 0.1356682924 0.1302286165 0.1262427906 0.1241299729
          0.1241299729 0.1262427906 0.1302286165 0.1356682924 0.1420510033 0.1488524496
          0.1555861972 0.1618296198 0.1672332651 0.1715218695 0.1744922328 0.1760105913
          0.1760105913 0.1744922328 0.1715218695 0.1514898256 0.1451978696 0.1384394483
          0.1314550203 0.1242696325 0.1167795561 0.1090099995 0.1013696032 0.09469487978
          0.08324216684 0.08872237732 0.09845987804 0.1100490675 0.1215058732 0.1318107702
          0.1406569818 0.1479847829 0.15376602 0.162925563 0.1648309317 0.1658088085
          0.1658088085 0.1648309317 0.162925563 0.1601931149 0.1567830554 0.1528917362
          0.1487580008 0.1446550443 0.1408766212 0.1377159481 0.135437194 0.1342426575
          0.1342426575 0.135437194 0.1377159481 0.1408766212 0.1446550443 0.1487580008
          0.1528917362 0.1567830554 0.1601931149 0.162925563 0.1648309317 0.1658088085
          0.1658088085 0.1648309317 0.162925563 0.1543739196 0.1496647541 0.1437276508
          0.136222115 0.1266770524 0.1149726932 0.1021383801 0.09072046522 0.08381704042
          0.1027824726 0.1099184726 0.1073943931 0.1129620171 0.1154250532 0.1190189708
          0.1253532755 0.1274985618 0.1346809071 0.1359855202 0.1421630587 0.1428117743
          0.1478375833 0.1478372335 0.1521169991 0.1515347659 0.1553128948 0.1542998371
          0.157585899 0.1563283642 0.1599640736 0.1581665076 0.1605026515 0.1588162605
          0.1603709774 0.1588972896 0.1595764473 0.1584049127 0.1581640356 0.1573676815
          0.156215196 0.1558465377 0.153845618 0.1539328681 0.15120144 0.151745205
          0.1484533654 0.1494242124 0.1457880669 0.1471255714 0.1433964286 0.1450104975
          0.1414587092 0.1432339825 0.1401276764 0.1419314787 0.1395119789 0.141205533
          0.1396629417 0.1411145393 0.1405679167 0.1416658808 0.1421519462 0.14281504
          0.1442872888 0.1444708879 0.146808368 0.1465059142 0.149528836 0.1487692346
          0.152257848 0.1511001074 0.1548137573 0.1533402349 0.1570346075 0.1553439163
          0.1587855978 0.1569858115 0.1599640736 0.1581665076 0.1605026515 0.1588162605
          0.1603709774 0.1588972896 0.1595764473 0.1584049127 0.1568611571 0.1567934443
          0.1544131075 0.1550218549 0.1510733738 0.1525802751 0.1465127944 0.1492573291
          0.1401116111 0.1445585289 0.1312281922 0.1377669258 0.1201996006 0.1286529865
          0.1095171713 0.1188096694 0.1027992583 0.1116458414 0.101109272 0.1091291258
          0.1074375455 0.1165335469 0.1283976153 0.1379718358 0.1441356701 0.147863981
          0.1503027068 0.1521159725 0.1535531389 0.1546629429 0.1554613641 0.1558452814
          0.1558452814 0.1554613641 0.1547170473 0.1536583882 0.1523519701 0.1508817566
          0.1493447127 0.1478451447 0.1464878486 0.1453703863 0.144575097 0.1441617307
          0.1441617307 0.144575097 0.1453703863 0.1464878486 0.1478451447 0.1493447127
          0.1508817566 0.1523519701 0.1536583882 0.1547170473 0.1554613641 0.1558452814
          0.1558452814 0.1554613641 0.1546652719 0.1535605272 0.1521266149 0.15029217
          0.1477514182 0.1437735488 0.1372465365 0.1274228981 0.1156858544 0.1071050335
          0.1205737292 0.1277905279 0.1380439833 0.1448857334 0.1479513426 0.1494287627
          0.1504811136 0.1514017865 0.1522072637 0.1528592219 0.1533181244 0.1535552455
          0.1535552455 0.1533183749 0.1528597563 0.152208857 0.1514079302 0.1505096775
          0.1495741586 0.1486650279 0.1478452554 0.1471725872 0.1466951098 0.1464473484
          0.1464473484 0.1466951098 0.1471725872 0.1478452554 0.1486650279 0.1495741586
          0.1505096775 0.1514079302 0.152208857 0.1528597563 0.1533183749 0.1535552455
          0.1535552455 0.1533181264 0.1528592402 0.1522072965 0.1514016063 0.1504794238
          0.1494229042 0.1479508259 0.1449639405 0.1383557049 0.1283300995 0.1208778296
          0.125642093 0.1361628596 0.1451256574 0.1482145061 0.1491335851 0.1497275324
          0.1502999069 0.1508479517 0.1513374875 0.1517360312 0.1520172243 0.1521625801
          0.1521625801 0.1520172243 0.1517360314 0.1513374892 0.1508479686 0.1503001328
          0.1497308981 0.1491790344 0.1486825366 0.1482759369 0.1479877651 0.1478383797
          0.1478383797 0.1479877651 0.1482759369 0.1486825366 0.1491790344 0.1497308981
          0.1503001328 0.1508479686 0.1513374892 0.1517360314 0.1520172243 0.1521625801
          0.1521625801 0.1520172243 0.1517360312 0.1513374875 0.1508479512 0.1502999079
          0.1497276414 0.1491348123 0.1482172316 0.1450990136 0.1360326499 0.1255276051
          0.1326572557 0.1433792179 0.1483666717 0.1491716839 0.149496806 0.1498325737
          0.1501789046 0.1505126852 0.150811328 0.1510547389 0.1512266242 0.1513155233
          0.1513155233 0.1512266242 0.1510547389 0.150811328 0.1505126852 0.1501789047
          0.1498325804 0.1494973089 0.1491960835 0.1489496904 0.1487752222 0.1486848319
          0.1486848319 0.1487752222 0.1489496904 0.1491960835 0.1494973089 0.1498325804
          0.1501789047 0.1505126852 0.150811328 0.1510547389 0.1512266242 0.1513155233
          0.1513155233 0.1512266242 0.1510547389 0.150811328 0.1505126852 0.1501789046
          0.1498325736 0.1494967961 0.1491715416 0.1483697867 0.1434170704 0.1327087892
        </DataArray>
        <DataArray type="Float64" Name="temperature" format="ascii">
          31.88706893 31.88653093 31.88399049 31.87922096 31.86394281 31.85457934
          31.84487829 31.83550079 31.82708727 31.82021354 31.81535083 31.81283298
          31.81283298 31.81535083 31.82021354 31.82708727 31.83550079 31.84487829
          31.85457934 31.86394281 31.87233203 31.87917771 31.88401612 31.88651995
          31.88651995 31.88401612 31.87917771 31.87233203 31.86394281 31.85457934
          31.84487829 31.83550079 31.82708727 31.82021354 31.81535083 31.81283298
          31.81283298 31.81535083 31.82021354 31.82708727 31.83550079 31.84487829
          31.85457934 31.86394281 31.87831853 31.8813632 31.88401885 31.88606005
          31.87740261 31.88308962 31.88075054 31.86829143 31.84527989 31.81334556
          31.69882676 31.66517366 31.6349249 31.61017316 31.59264175 31.58355727
          31.58355727 31.59264175 31.61017316 31.6349249 31.66517366 31.69882676
          31.73357317 31.76704556 31.7969813 31.82137158 31.83858995 31.8474937
          31.8474937 31.83858995 31.82137158 31.7969813 31.76704556 31.73357317
          31.69882676 31.66517366 31.6349249 31.61017316 31.59264175 31.58355727
          31.58355727 31.59264175 31.61017316 31.6349249 31.66517366 31.69882676
          31.79849474 31.81325678 31.82672797 31.83999485 31.8535102 31.86661233
          31.85467935 31.84302639 31.86119949 31.85022635 31.86170304 31.85293195
          31.85419554 31.84908813 31.83809103 31.83761808 31.81460543 31.81897607
          31.78657078 31.7952031 31.69408602 31.76944965 31.67456342 31.69245638
          31.65895739 31.67800232 31.64834758 31.66750592 31.6434702 31.66169299
          31.6446643 31.66096625 31.65184684 31.66537608 31.6645188 31.67461688
          31.68180178 31.68804924 31.70250191 31.70474618 31.72519553 31.72355944
          31.74832969 31.7432005 31.77032963 31.7623301 31.7897056 31.7796497
          31.80515179 31.79398856 31.81563139 31.80438093 31.82044308 31.8101289
          31.8192654 31.81084715 31.812177 31.80648758 31.79965168 31.79734232
          31.78252853 31.78402517 31.7619586 31.76743224 31.73933068 31.74868394
          31.7161801 31.72905137 31.69408602 31.70987151 31.67456342 31.69245638
          31.65895739 31.67800232 31.64834758 31.66750592 31.6434702 31.66169299
          31.6446643 31.66096625 31.65184684 31.66537608 31.6645188 31.67461688
          31.68180178 31.68804924 31.76650837 31.75988693 31.78098381 31.77370714
          31.79327606 31.78579171 31.80375462 31.79611717 31.81337098 31.80530809
          31.82317884 31.81427392 31.83375792 31.82369981 31.84474832 31.83358999
          31.83689853 31.83856582 31.83584243 31.82829546 31.81595069 31.7995598
          31.78068967 31.76146921 31.74409214 31.70227893 31.69577784 31.69241132
          31.69241132 31.69577784 31.70227893 31.71146717 31.72271137 31.7352409
          31.7481994 31.76070382 31.77190451 31.78104253 31.78750012 31.79084152
          31.79084152 31.78750012 31.78104253 31.77190451 31.76070382 31.7481994
          31.7352409 31.72271137 31.71146717 31.70227893 31.69577784 31.69241132
          31.69241132 31.69577784 31.70227893 31.7431926 31.75499131 31.76710503
          31.77901507 31.7906224 31.80202553 31.8131034 31.82325196 31.83151338
          31.8443759 31.83842799 31.82692267 31.81166616 31.79491277 31.77842339
          31.76319423 31.74982728 31.73880046 31.72046088 31.71651191 31.71446729
          31.71446729 31.71651191 31.72046088 31.72604347 31.73287737 31.74049526
          31.74837707 31.75598567 31.76280348 31.76836748 31.77230036 31.77433569
          31.77433569 31.77230036 31.76836748 31.76280348 31.75598567 31.74837707
          31.74049526 31.73287737 31.72604347 31.72046088 31.71651191 31.71446729
          31.71446729 31.71651191 31.72046088 31.73761632 31.74666674 31.75767584
          31.77095311 31.78680633 31.80466997 31.82226424 31.83616493 31.84376979
          31.82143095 31.81184755 31.81531097 31.8075641 31.80401179 31.79869064
          31.78891377 31.78548732 31.77359107 31.77136003 31.76050256 31.75933431
          31.7501025 31.75010315 31.74198898 31.74310652 31.73577806 31.73776088
          31.73128174 31.73377743 31.72650711 31.73012269 31.72541583 31.72882053
          31.72568297 31.72865776 31.72729024 31.72964553 31.73012763 31.73171625
          31.73400104 31.73472833 31.73864568 31.73847592 31.74374438 31.7427031
          31.74894933 31.74712147 31.75390593 31.75142987 31.75827684 31.75533496
          31.76176496 31.75857109 31.76413337 31.76091831 31.76522132 31.76221719
          31.76495501 31.76237952 31.7633525 31.7613943 31.76052253 31.75932841
          31.75665721 31.75632216 31.75201915 31.75257983 31.74692377 31.74835594
          31.74171798 31.74393801 31.73675663 31.73962706 31.7323783 31.73571713
          31.7288821 31.73247517 31.72650711 31.73012269 31.72541583 31.72882053
          31.72568297 31.72865776 31.72729024 31.72964553 31.73272251 31.73285678
          31.73753983 31.73634903 31.74398907 31.74109668 31.75256709 31.74743652
          31.76416182 31.75616207 31.77939149 31.76827875 31.79690691 31.78361933
          31.81240359 31.79900502 31.82140916 31.80943087 31.82358474 31.81293932
          31.81525243 31.80238801 31.78403401 31.76792174 31.75693357 31.75005316
          31.74545716 31.74199095 31.73921403 31.73705169 31.73548637 31.73473081
          31.73473081 31.73548637 31.73694587 31.73900963 31.74153675 31.7443548
          31.74727159 31.75008837 31.75261329 31.7546745 31.7561318 31.75688609
          31.75688609 31.7561318 31.7546745 31.75261329 31.75008837 31.74727159
          31.7443548 31.74153675 31.73900963 31.73694587 31.73548637 31.73473081
          31.73473081 31.73548637 31.73704713 31.73919968 31.74197048 31.74547718
          31.75026348 31.75759245 31.76918302 31.78560916 31.80363116 31.81570286
          31.79633798 31.78501648 31.76779591 31.75556354 31.74988983 31.74711287
          31.74511797 31.74336116 31.74181534 31.7405581 31.73966992 31.73920994
          31.73920994 31.73966943 31.74055707 31.74181227 31.7433494 31.74506363
          31.74683809 31.74855185 31.75008816 31.75134242 31.75222924 31.75268827
          31.75268827 31.75222924 31.75134242 31.75008816 31.74855185 31.74683809
          31.74506363 31.7433494 31.74181227 31.74055707 31.73966943 31.73920994
          31.73920994 31.73966992 31.74055807 31.74181527 31.74336151 31.74512119
          31.74712394 31.74989079 31.75542028 31.76725149 31.7841435 31.79587423
          31.78845587 31.77105509 31.7551238 31.74939721 31.7476699 31.74654794
          31.74546248 31.74441927 31.74348421 31.7427207 31.74218079 31.74190131
          31.74190131 31.74218079 31.7427207 31.7434842 31.74441924 31.74546205
          31.74654157 31.74758421 31.74851894 31.7492821 31.7498217 31.75010101
          31.75010101 31.7498217 31.7492821 31.74851894 31.74758421 31.74654157
          31.74546205 31.74441924 31.7434842 31.7427207 31.74218079 31.74190131
          31.74190131 31.74218079 31.7427207 31.74348421 31.74441927 31.74546248
          31.74654773 31.74766759 31.74939211 31.75517267 31.77127903 31.78863751
          31.77700906 31.75830803 31.74911197 31.74759807 31.74698431 31.74634905
          31.7456923 31.74505791 31.7444891 31.74402466 31.74369623 31.74352623
          31.74352623 31.74369623 31.74402466 31.7444891 31.74505791 31.7456923
          31.74634903 31.74698336 31.74755205 31.74801637 31.74834468 31.74851463
          31.74851463 31.74834468 31.74801637 31.74755205 31.74698336 31.74634903
          31.7456923 31.74505791 31.7444891 31.74402466 31.74369623 31.74352623
          31.74352623 31.74369623 31.74402466 31.7444891 31.74505791 31.7456923
          31.74634905 31.74698433 31.74759834 31.74910613 31.75823943 31.77692266
        </DataArray>
        <DataArray type="Float64" Name="total_energy" format="ascii">
          80.60968604 80.6068511 80.59346393 80.56832775 80.48778694 80.43840924
          80.38723799 80.33776042 80.2933583 80.25707484 80.23140266 80.2181086
          80.2181086 80.23140266 80.25707484 80.2933583 80.33776042 80.38723799
          80.43840924 80.48778694 80.53201609 80.56809982 80.59359902 80.60679322
          80.60679322 80.59359902 80.56809982 80.53201609 80.48778694 80.43840924
          80.38723799 80.33776042 80.2933583 80.25707484 80.23140266 80.2181086
          80.2181086 80.23140266 80.25707484 80.2933583 80.33776042 80.38723799
          80.43840924 80.48778694 80.56357141 80.57961813 80.59361338 80.60436983
          80.55874388 80.58871644 80.57638925 80.51071474 80.38935658 80.22081504
          79.61524451 79.43695361 79.27657372 79.14525291 79.05219345 79.00395666
          79.00395666 79.05219345 79.14525291 79.27657372 79.43695361 79.61524451
          79.79917078 79.97619917 80.13439234 80.26318813 80.35406085 80.40103511
          80.40103511 80.35406085 80.26318813 80.13439234 79.97619917 79.79917078
          79.61524451 79.43695361 79.27657372 79.14525291 79.05219345 79.00395666
          79.00395666 79.05219345 79.14525291 79.27657372 79.43695361 79.61524451
          80.14238668 80.2203463 80.29146186 80.36147357 80.43277043 80.50186211
          80.43893673 80.37746797 80.47332151 80.41544972 80.47597678 80.42972056
          80.43638505 80.40944582 80.35142829 80.34893276 80.2274671 80.25054209
          80.07939285 80.12499908 79.59013751 79.98890796 79.48671451 79.58150623
          79.40400436 79.50493605 79.34775565 79.44931448 79.32189302 79.418505
          79.3282251 79.41465284 79.36630884 79.43802649 79.43348279 79.48699778
          79.5250663 79.55816234 79.63470612 79.64658967 79.75483944 79.74618075
          79.87723367 79.85010329 79.99355964 79.95126936 80.09595594 80.04281998
          80.17754696 80.11858302 80.23288396 80.17347586 80.2582866 80.20383026
          80.25206951 80.20762294 80.21464493 80.18460136 80.14849768 80.13629934
          80.0580333 80.06594191 79.94930519 79.97824333 79.82963185 79.87910731
          79.70712262 79.77524425 79.59013751 79.67372612 79.48671451 79.58150623
          79.40400436 79.50493605 79.34775565 79.44931448 79.32189302 79.418505
          79.3282251 79.41465284 79.36630884 79.43802649 79.43348279 79.48699778
          79.5250663 79.55816234 79.97335931 79.93835152 80.04987029 80.01141253
          80.11481903 80.07527635 80.17016808 80.12982768 80.22094925 80.17837241
          80.27272822 80.22571675 80.3285633 80.27547822 80.3865523 80.32767715
          80.34513599 80.35393353 80.33956323 80.29973511 80.23456975 80.14801236
          80.04831587 79.94671763 79.85481979 79.63352537 79.59909772 79.58126754
          79.58126754 79.59909772 79.63352537 79.68217376 79.74169236 79.80799463
          79.8765446 79.94267078 80.00188438 80.05018059 80.08430323 80.10195732
          80.10195732 80.08430323 80.05018059 80.00188438 79.94267078 79.8765446
          79.80799463 79.74169236 79.68217376 79.63352537 79.59909772 79.58126754
          79.58126754 79.59909772 79.63352537 79.85006153 79.91246437 79.97651354
          80.03946608 80.10079964 80.16103587 80.21953645 80.27311418 80.31671825
          80.38458758 80.3532063 80.2924895 80.21194758 80.12346536 80.0363391
          79.95583806 79.88515438 79.82682684 79.72978126 79.70887902 79.69805586
          79.69805586 79.70887902 79.72978126 79.75932683 79.79548922 79.83579274
          79.87748428 79.91772264 79.95377216 79.98318739 80.00397676 80.01473477
          80.01473477 80.00397676 79.98318739 79.95377216 79.91772264 79.87748428
          79.83579274 79.79548922 79.75932683 79.72978126 79.70887902 79.69805586
          79.69805586 79.70887902 79.72978126 79.82056224 79.86843804 79.92666009
          79.99685537 80.08063744 80.17500233 80.26790029 80.341265 80.38138995
          80.26350152 80.21290537 80.23119218 80.19028641 80.17152632 80.14342147
          80.09177238 80.073668 80.01079906 79.99900631 79.94160665 79.93542953
          79.88660998 79.88661344 79.84369454 79.84960619 79.81083663 79.82132702
          79.7870463 79.8002515 79.76178042 79.78091324 79.75600529 79.77402272
          79.75741904 79.77316141 79.76592474 79.77838832 79.78093941 79.78934545
          79.80143461 79.80528271 79.82600798 79.82510991 79.85298026 79.84747216
          79.880511 79.87084322 79.90672463 79.89363009 79.92983806 79.91428167
          79.94828134 79.93139396 79.96080327 79.94380489 79.9665551 79.95067236
          79.96514717 79.95153065 79.95667487 79.94632158 79.94171222 79.93539837
          79.92127371 79.91950201 79.89674654 79.89971174 79.86979757 79.87737255
          79.842261 79.8540045 79.81601397 79.83119979 79.79284853 79.8105143
          79.77434854 79.7933611 79.76178042 79.78091324 79.75600529 79.77402272
          79.75741904 79.77316141 79.76592474 79.77838832 79.7946698 79.79538024
          79.82015754 79.81385751 79.8542746 79.83897432 79.89964436 79.8725096
          79.96095368 79.91865548 80.04145541 79.98271831 80.13399937 80.06379742
          80.21584135 80.14508203 80.26338651 80.20014425 80.27487079 80.21867008
          80.23088314 80.16295034 80.06598863 79.98083102 79.9227351 79.88634905
          79.86204016 79.84370498 79.82901473 79.81757499 79.80929336 79.80529581
          79.80529581 79.80929336 79.81701515 79.82793341 79.84130228 79.85620917
          79.87163729 79.88653524 79.89988866 79.91078906 79.91849539 79.92248402
          79.92248402 79.91849539 79.91078906 79.89988866 79.88653524 79.87163729
          79.85620917 79.84130228 79.82793341 79.81701515 79.80929336 79.80529581
          79.80529581 79.80929336 79.81755089 79.82893885 79.84359671 79.86214605
          79.88746135 79.92621913 79.98749854 80.07431181 80.16951603 80.23326126
          80.13099406 80.07118011 79.98016584 79.91549042 79.88548519 79.87079776
          79.86024603 79.85095316 79.84277599 79.83612518 79.83142653 79.82899309
          79.82899309 79.83142396 79.83611972 79.84275977 79.85089096 79.85995858
          79.86934436 79.87840868 79.88653415 79.8931676 79.89785763 79.90028519
          79.90028519 79.89785763 79.8931676 79.88653415 79.87840868 79.86934436
          79.85995858 79.85089096 79.84275977 79.83611972 79.83142396 79.82899309
          79.82899309 79.83142651 79.83612499 79.84277566 79.85095499 79.86026303
          79.87085629 79.8854903 79.91473285 79.97728783 80.06656721 80.12854434
          80.08935305 79.99739443 79.91316503 79.88287981 79.873744 79.86780967
          79.8620683 79.8565502 79.85160403 79.84756525 79.84470922 79.84323077
          79.84323077 79.84470922 79.84756525 79.85160402 79.85655003 79.86206603
          79.86777597 79.87329074 79.87823464 79.88227096 79.88512488 79.88660211
          79.88660211 79.88512488 79.88227096 79.87823464 79.87329074 79.86777597
          79.86206603 79.85655003 79.85160402 79.84756525 79.84470922 79.84323077
          79.84323077 79.84470922 79.84756525 79.85160403 79.85655021 79.86206829
          79.86780858 79.87373176 79.88285281 79.91342346 79.99857815 80.09031275
          80.02886434 79.93000299 79.88137121 79.87336406 79.87011777 79.86675768
          79.86328389 79.85992831 79.85691959 79.85446284 79.85272559 79.8518263
          79.8518263 79.85272559 79.85446284 79.85691959 79.85992831 79.86328389
          79.86675761 79.87011274 79.87312068 79.87557652 79.87731299 79.87821183
          79.87821183 79.87731299 79.87557652 79.87312068 79.87011274 79.86675761
          79.86328389 79.85992831 79.85691959 79.85446284 79.85272559 79.8518263
          79.8518263 79.85272559 79.85446284 79.85691959 79.85992831 79.86328389
          79.86675768 79.87011787 79.87336548 79.88134031 79.92964022 80.02840772
        </DataArray>
        <DataArray type="Float64" Name="vorticity" format="ascii">
          -9.612159242 -9.546045762 -9.492667639 -9.458803765 -11.13522281 -11.13522281
          -11.13522281 -11.13522281 -11.13522281 -11.13522281 -11.13522281 -11.13522281
          -11.13522281 -11.13522281 -11.13522281 -11.13522281 -11.13522281 -11.13522281
          -11.13522281 -11.13522281 -11.13522281 -11.13522281 -11.13522281 -11.13522281
          11.13522281 11.13522281 11.13522281 11.13522281 11.13522281 11.13522281
          11.13522281 11.13522281 11.13522281 11.13522281 11.13522281 11.13522281
          11.13522281 11.13522281 11.13522281 11.13522281 11.13522281 11.13522281
          11.13522281 11.13522281 12.34719681 12.43002396 12.50879575 12.58520024
          1.051065046 1.151174149 1.249916781 1.333495606 1.388912548 1.406403267
          -0.0911949227 -0.0911949227 -0.0911949227 -0.0911949227 -0.0911949227 -0.0911949227
          -0.0911949227 -0.0911949227 -0.0911949227 -0.0911949227 -0.0911949227 -0.0911949227
          -0.0911949227 -0.0911949227 -0.0911949227 -0.0911949227 -0.0911949227 -0.0911949227
          0.0911949227 0.0911949227 0.0911949227 0.0911949227 0.0911949227 0.0911949227
          0.0911949227 0.0911949227 0.0911949227 0.0911949227 0.0911949227 0.0911949227
          0.0911949227 0.0911949227 0.0911949227 0.0911949227 0.0911949227 0.0911949227
          0.8744112324 0.9267491572 0.9697113595 1.014359868 1.070406157 1.143530863
          0.5709790711 0.2236329062 0.7179830751 0.380505935 0.8759371654 0.5655968786
          1.020370089 0.7488242453 1.130105709 0.9024085477 1.191233999 1.006800366
          1.19828787 1.053034241 -2.467567566e-06 1.041653432 -2.467567566e-06 -2.996762859e-09
          -2.467567566e-06 -2.996762859e-09 -2.467567566e-06 -2.996762859e-09 -2.467567566e-06 -2.996762859e-09
          -2.467567566e-06 -2.996762859e-09 -2.467567566e-06 -2.996762859e-09 -2.467567566e-06 -2.996762859e-09
          -2.467567566e-06 -2.996762859e-09 -2.467567566e-06 -2.996762859e-09 -2.467567566e-06 -2.996762859e-09
          -2.467567566e-06 -2.996762859e-09 -2.467567566e-06 -2.996762859e-09 -2.467567566e-06 -2.996762859e-09
          -2.467567566e-06 -2.996762859e-09 -2.467567566e-06 -2.996762859e-09 -2.467567566e-06 -2.996762859e-09
          2.467567566e-06 2.996762859e-09 2.467567566e-06 2.996762859e-09 2.467567566e-06 2.996762859e-09
          2.467567566e-06 2.996762859e-09 2.467567566e-06 2.996762859e-09 2.467567566e-06 2.996762859e-09
          2.467567566e-06 2.996762859e-09 2.467567566e-06 2.996762859e-09 2.467567566e-06 2.996762859e-09
          2.467567566e-06 2.996762859e-09 2.467567566e-06 2.996762859e-09 2.467567566e-06 2.996762859e-09
          2.467567566e-06 2.996762859e-09 2.467567566e-06 2.996762859e-09 2.467567566e-06 2.996762859e-09
          2.467567566e-06 2.996762859e-09 0.4248073829 0.3186619225 0.4517059924 0.3281090201
          0.4446398629 0.2959338941 0.4156991019 0.2329146913 0.3829901483 0.1584947634
          0.3676621707 0.09851077922 0.3886327325 0.07921854488 0.4567719521 0.1193663439
          -0.5736815919 -0.3556300877 -0.09233129986 0.1693132826 0.3902889372 0.5470982236
          0.6330505913 0.6544858116 0.624639099 -9.75320561e-21 -9.75320561e-21 -9.75320561e-21
          -9.75320561e-21 -9.75320561e-21 -9.75320561e-21 -9.75320561e-21 -9.75320561e-21 -9.75320561e-21
          -9.75320561e-21 -9.75320561e-21 -9.75320561e-21 -9.75320561e-21 -9.75320561e-21 -9.75320561e-21
          9.75320561e-21 9.75320561e-21 9.75320561e-21 9.75320561e-21 9.75320561e-21 9.75320561e-21
          9.75320561e-21 9.75320561e-21 9.75320561e-21 9.75320561e-21 9.75320561e-21 9.75320561e-21
          9.75320561e-21 9.75320561e-21 9.75320561e-21 0.1132776768 0.09430533428 0.01873250785
          -0.113701321 -0.2898962058 -0.4797921359 -0.6398762964 -0.7250453112 -0.7045172703
          -1.119686192 -0.8712863699 -0.5828680766 -0.3038138786 -0.0701895517 0.0983527189
          0.1990444133 0.2422317177 0.2443037384 -2.779680403e-46 -2.779680403e-46 -2.779680403e-46
          -2.779680403e-46 -2.779680403e-46 -2.779680403e-46 -2.779680403e-46 -2.779680403e-46 -2.779680403e-46
          -2.779680403e-46 -2.779680403e-46 -2.779680403e-46 -2.779680403e-46 -2.779680403e-46 -2.779680403e-46
          2.779680403e-46 2.779680403e-46 2.779680403e-46 2.779680403e-46 2.779680403e-46 2.779680403e-46
          2.779680403e-46 2.779680403e-46 2.779680403e-46 2.779680403e-46 2.779680403e-46 2.779680403e-46
          2.779680403e-46 2.779680403e-46 2.779680403e-46 -0.007319919666 -0.06847476241 -0.191115173
          -0.385117365 -0.6411958603 -0.9205326328 -1.158583634 -1.288620334 -1.273095628
          -0.5535374467 -0.1392496113 -0.4017357335 -0.04218888388 -0.2828450421 -0.03568399212
          -0.1797164743 -0.05419385246 -0.08549134669 -0.04955761558 -0.009487805084 -0.02198685966
          0.03921014985 0.00753121634 0.06145166204 0.0257579133 0.06504054554 0.0318401655
          0.05841950307 0.03025519056 -1.468150882e-83 -2.597514529e-104 -1.468150882e-83 -2.597514529e-104
          -1.468150882e-83 -2.597514529e-104 -1.468150882e-83 -2.597514529e-104 -1.468150882e-83 -2.597514529e-104
          -1.468150882e-83 -2.597514529e-104 -1.468150882e-83 -2.597514529e-104 -1.468150882e-83 -2.597514529e-104
          -1.468150882e-83 -2.597514529e-104 -1.468150882e-83 -2.597514529e-104 -1.468150882e-83 -2.597514529e-104
          -1.468150882e-83 -2.597514529e-104 -1.468150882e-83 -2.597514529e-104 -1.468150882e-83 -2.597514529e-104
          1.468150882e-83 2.597514529e-104 1.468150882e-83 2.597514529e-104 1.468150882e-83 2.597514529e-104
          1.468150882e-83 2.597514529e-104 1.468150882e-83 2.597514529e-104 1.468150882e-83 2.597514529e-104
          1.468150882e-83 2.597514529e-104 1.468150882e-83 2.597514529e-104 1.468150882e-83 2.597514529e-104
          1.468150882e-83 2.597514529e-104 1.468150882e-83 2.597514529e-104 1.468150882e-83 2.597514529e-104
          1.468150882e-83 2.597514529e-104 1.468150882e-83 2.597514529e-104 -0.008098409354 -0.004565554945
          -0.0303080577 -0.01568044245 -0.0843422521 -0.04575952016 -0.1870060881 -0.1083182635
          -0.3488628012 -0.2156142145 -0.5562996267 -0.362811323 -0.7573661044 -0.5083076297
          -0.8754853793 -0.5764340821 -0.8590449917 -0.5076578683 -0.7269701344 -0.3261814563
          0.9365288454 0.8326624 0.5309870344 0.2424277318 0.07782824094 0.01699985151
          0.003321618704 0.002372281482 0.002740106605 0.002554629914 -3.665017244e-178 -3.665017244e-178
          -3.665017244e-178 -3.665017244e-178 -3.665017244e-178 -3.665017244e-178 -3.665017244e-178 -3.665017244e-178
          -3.665017244e-178 -3.665017244e-178 -3.665017244e-178 -3.665017244e-178 -3.665017244e-178 -3.665017244e-178
          3.665017244e-178 3.665017244e-178 3.665017244e-178 3.665017244e-178 3.665017244e-178 3.665017244e-178
          3.665017244e-178 3.665017244e-178 3.665017244e-178 3.665017244e-178 3.665017244e-178 3.665017244e-178
          3.665017244e-178 3.665017244e-178 -0.001184093303 -0.004056960571 -0.01194301875 -0.02946887541
          -0.05898838107 -0.08686248132 -0.0645754999 0.08311341995 0.3873148741 0.7437004779
          0.06834981631 0.2537491927 0.2335229114 0.1151816279 0.03553523361 0.007398790295
          0.001092565827 0.0001334143684 3.366207924e-05 2.29890304e-05 1.688385933e-05 0
          0 0 0 0 0 0
          0 0 0 0 0 0
          0 0 0 0 0 0
          0 0 0 0 0 0
          0 -6.514323838e-06 -2.456257783e-05 -0.0001015647706 -0.0003622622303 -0.001022439855
          -0.00195877962 -0.002406862731 -0.008971991975 -0.05339221975 -0.1413291407 -0.1341277461
          -0.173426024 -0.03603205254 -0.003121273139 0.001877385175 0.0008757917826 0.0001544172356
          1.552157003e-05 1.07426646e-06 6.589678157e-08 1.085523304e-08 5.662436752e-09 0
          0 0 0 0 0 0
          0 0 0 0 0 0
          0 0 0 0 0 0
          0 0 0 0 0 0
          0 -3.642560113e-09 -2.083081913e-08 -1.235689104e-07 -6.652095043e-07 -5.252577933e-06
          -0.0001132641222 -0.002178885401 -0.02343361504 -0.1281174095 -0.330595153 -0.3728184683
          0.2072514266 0.1508359404 0.02654868364 0.001400915693 2.585483052e-05 2.289700462e-07
          3.310242938e-09 8.876091135e-11 2.060997641e-12 5.945003591e-14 1.018847645e-14 0
          0 0 0 0 0 0
          0 0 0 0 0 0
          0 0 0 0 0 0
          0 0 0 0 0 0
          0 -1.054761296e-14 -1.072338199e-13 -1.354393641e-12 -5.440706465e-11 -6.052871773e-09
          -4.756213558e-07 -1.848844184e-05 -0.0003003955582 -0.002845857399 -0.01717472389 0.02732052332
        </DataArray>
        <DataArray type="Int32" Name="rank" format="ascii">
          2 2 2 2 2 2
          2 2 2 2 2 2
          3 3 3 3 3 3
          3 3 3 3 3 3
          0 0 0 0 0 0
          0 0 0 0 0 0
          1 1 1 1 1 1
          1 1 1 1 1 1
          2 2 2 2 2 2
          2 2 2 2 2 2
          3 3 3 3 3 3
          3 3 3 3 3 3
          0 0 0 0 0 0
          0 0 0 0 0 0
          1 1 1 1 1 1
          1 1 1 1 1 1
          2 2 2 2 2 2
          2 2 2 2 2 2
          2 2 2 2 2 2
          2 2 2 2 2 2
          3 3 3 3 3 3
          3 3 3 3 3 3
          3 3 3 3 3 3
          3 3 3 3 3 3
          0 0 0 0 0 0
          0 0 0 0 0 0
          0 0 0 0 0 0
          0 0 0 0 0 0
          1 1 1 1 1 1
          1 1 1 1 1 1
          1 1 1 1 1 1
          1 1 1 1 1 1
          2 2 2 2 2 2
          2 2 2 2 2 2
          3 3 3 3 3 3
          3 3 3 3 3 3
          0 0 0 0 0 0
          0 0 0 0 0 0
          1 1 1 1 1 1
          1 1 1 1 1 1
          2 2 2 2 2 2
          2 2 2 2 2 2
          3 3 3 3 3 3
          3 3 3 3 3 3
          0 0 0 0 0 0
          0 0 0 0 0 0
          1 1 1 1 1 1
          1 1 1 1 1 1
          2 2 2 2 2 2
          2 2 2 2 2 2
          2 2 2 2 2 2
          2 2 2 2 2 2
          3 3 3 3 3 3
          3 3 3 3 3 3
          3 3 3 3 3 3
          3 3 3 3 3 3
          0 0 0 0 0 0
          0 0 0 0 0 0
          0 0 0 0 0 0
          0 0 0 0 0 0
          1 1 1 1 1 1
          1 1 1 1 1 1
          1 1 1 1 1 1
          1 1 1 1 1 1
          2 2 2 2 2 2
          2 2 2 2 2 2
          3 3 3 3 3 3
          3 3 3 3 3 3
          0 0 0 0 0 0
          0 0 0 0 0 0
          1 1 1 1 1 1
          1 1 1 1 1 1
          2 2 2 2 2 2
          2 2 2 2 2 2
          3 3 3 3 3 3
          3 3 3 3 3 3
          0 0 0 0 0 0
          0 0 0 0 0 0
          1 1 1 1 1 1
          1 1 1 1 1 1
          2 2 2 2 2 2
          2 2 2 2 2 2
          3 3 3 3 3 3
          3 3 3 3 3 3
          0 0 0 0 0 0
          0 0 0 0 0 0
          1 1 1 1 1 1
          1 1 1 1 1 1
          2 2 2 2 2 2
          2 2 2 2 2 2
          3 3 3 3 3 3
          3 3 3 3 3 3
          0 0 0 0 0 0
          0 0 0 0 0 0
          1 1 1 1 1 1
          1 1 1 1 1 1
        </DataArray>
      </CellData>
    </Piece>
  </UnstructuredGrid>
</VTKFile>
