<?xml version="1.0"?>
<VTKFile type="UnstructuredGrid" version="0.1" byte_order="LittleEndian">
  <UnstructuredGrid>
    <Piece NumberOfPoints="528" NumberOfCells="576">
      <Points>
        <DataArray type="Float64" Name="Points" NumberOfComponents="3" format="ascii">
          0.5 0 0 0.4957224307 0.06526309611 0 0.4829629131 0.1294095226 0 0.4619397663 0.1913417162 0 0.4330127019 0.25 0 0.3966766701 0.3043807145 0
          0.3535533906 0.3535533906 0 0.3043807145 0.3966766701 0 0.25 0.4330127019 0 0.1913417162 0.4619397663 0 0.1294095226 0.4829629131 0 0.06526309611 0.4957224307 0
          3.061616998e-17 0.5 0 -0.06526309611 0.4957224307 0 -0.1294095226 0.4829629131 0 -0.1913417162 0.4619397663 0 -0.25 0.4330127019 0 -0.3043807145 0.3966766701 0
          -0.3535533906 0.3535533906 0 -0.3966766701 0.3043807145 0 -0.4330127019 0.25 0 -0.4619397663 0.1913417162 0 -0.4829629131 0.1294095226 0 -0.4957224307 0.06526309611 0
          -0.5 6.123233996e-17 0 -0.4957224307 -0.06526309611 0 -0.4829629131 -0.1294095226 0 -0.4619397663 -0.1913417162 0 -0.4330127019 -0.25 0 -0.3966766701 -0.3043807145 0
          -0.3535533906 -0.3535533906 0 -0.3043807145 -0.3966766701 0 -0.25 -0.4330127019 0 -0.1913417162 -0.4619397663 0 -0.1294095226 -0.4829629131 0 -0.06526309611 -0.4957224307 0
          -9.184850994e-17 -0.5 0 0.06526309611 -0.4957224307 0 0.1294095226 -0.4829629131 0 0.1913417162 -0.4619397663 0 0.25 -0.4330127019 0 0.3043807145 -0.3966766701 0
          0.3535533906 -0.3535533906 0 0.3966766701 -0.3043807145 0 0.4330127019 -0.25 0 0.4619397663 -0.1913417162 0 0.4829629131 -0.1294095226 0 0.4957224307 -0.06526309611 0
          0.641044427 0 0 0.6355602031 0.0836730881 0 0.6192013678 0.1659145065 0 0.5922478255 0.2453170816 0 0.5551607587 0.3205222135 0 0.5085747374 0.3902431214 0
          0.4532868614 0.4532868614 0 0.3902431214 0.5085747374 0 0.3205222135 0.5551607587 0 0.2453170816 0.5922478255 0 0.1659145065 0.6192013678 0 0.0836730881 0.6355602031 0
          3.925265028e-17 0.641044427 0 -0.0836730881 0.6355602031 0 -0.1659145065 0.6192013678 0 -0.2453170816 0.5922478255 0 -0.3205222135 0.5551607587 0 -0.3902431214 0.5085747374 0
          -0.4532868614 0.4532868614 0 -0.5085747374 0.3902431214 0 -0.5551607587 0.3205222135 0 -0.5922478255 0.2453170816 0 -0.6192013678 0.1659145065 0 -0.6355602031 0.0836730881 0
          -0.641044427 7.850530056e-17 0 -0.6355602031 -0.0836730881 0 -0.6192013678 -0.1659145065 0 -0.5922478255 -0.2453170816 0 -0.5551607587 -0.3205222135 0 -0.5085747374 -0.3902431214 0
          -0.4532868614 -0.4532868614 0 -0.3902431214 -0.5085747374 0 -0.3205222135 -0.5551607587 0 -0.2453170816 -0.5922478255 0 -0.1659145065 -0.6192013678 0 -0.0836730881 -0.6355602031 0
          -1.177579508e-16 -0.641044427 0 0.0836730881 -0.6355602031 0 0.1659145065 -0.6192013678 0 0.2453170816 -0.5922478255 0 0.3205222135 -0.5551607587 0 0.3902431214 -0.5085747374 0
          0.4532868614 -0.4532868614 0 0.5085747374 -0.3902431214 0 0.5551607587 -0.3205222135 0 0.5922478255 -0.2453170816 0 0.6192013678 -0.1659145065 0 0.6355602031 -0.0836730881 0
          0.8218759148 0 0 0.8148446524 0.1072763336 0 0.7938711721 0.2127171395 0 0.7593143359 0.314518296 0 0.7117654209 0.4109379574 0 0.6520380023 0.5003263563 0
          0.5811540326 0.5811540326 0 0.5003263563 0.6520380023 0 0.4109379574 0.7117654209 0 0.314518296 0.7593143359 0 0.2127171395 0.7938711721 0 0.1072763336 0.8148446524 0
          5.032538542e-17 0.8218759148 0 -0.1072763336 0.8148446524 0 -0.2127171395 0.7938711721 0 -0.314518296 0.7593143359 0 -0.4109379574 0.7117654209 0 -0.5003263563 0.6520380023 0
          -0.5811540326 0.5811540326 0 -0.6520380023 0.5003263563 0 -0.7117654209 0.4109379574 0 -0.7593143359 0.314518296 0 -0.7938711721 0.2127171395 0 -0.8148446524 0.1072763336 0
          -0.8218759148 1.006507708e-16 0 -0.8148446524 -0.1072763336 0 -0.7938711721 -0.2127171395 0 -0.7593143359 -0.314518296 0 -0.7117654209 -0.4109379574 0 -0.6520380023 -0.5003263563 0
          -0.5811540326 -0.5811540326 0 -0.5003263563 -0.6520380023 0 -0.4109379574 -0.7117654209 0 -0.314518296 -0.7593143359 0 -0.2127171395 -0.7938711721 0 -0.1072763336 -0.8148446524 0
          -1.509761562e-16 -0.8218759148 0 0.1072763336 -0.8148446524 0 0.2127171395 -0.7938711721 0 0.314518296 -0.7593143359 0 0.4109379574 -0.7117654209 0 0.5003263563 -0.6520380023 0
          0.5811540326 -0.5811540326 0 0.6520380023 -0.5003263563 0 0.7117654209 -0.4109379574 0 0.7593143359 -0.314518296 0 0.7938711721 -0.2127171395 0 0.8148446524 -0.1072763336 0
          1.05371795 0 0 1.044703247 0.1375377916 0 1.017813381 0.2727222735 0 0.9735084467 0.4032404017 0 0.9125465128 0.5268589748 0 0.8359706551 0.6414628448 0
          0.7450911077 0.7450911077 0 0.6414628448 0.8359706551 0 0.5268589748 0.9125465128 0 0.4032404017 0.9735084467 0 0.2727222735 1.017813381 0 0.1375377916 1.044703247 0
          6.452161571e-17 1.05371795 0 -0.1375377916 1.044703247 0 -0.2727222735 1.017813381 0 -0.4032404017 0.9735084467 0 -0.5268589748 0.9125465128 0 -0.6414628448 0.8359706551 0
          -0.7450911077 0.7450911077 0 -0.8359706551 0.6414628448 0 -0.9125465128 0.5268589748 0 -0.9735084467 0.4032404017 0 -1.017813381 0.2727222735 0 -1.044703247 0.1375377916 0
          -1.05371795 1.290432314e-16 0 -1.044703247 -0.1375377916 0 -1.017813381 -0.2727222735 0 -0.9735084467 -0.4032404017 0 -0.9125465128 -0.5268589748 0 -0.8359706551 -0.6414628448 0
          -0.7450911077 -0.7450911077 0 -0.6414628448 -0.8359706551 0 -0.5268589748 -0.9125465128 0 -0.4032404017 -0.9735084467 0 -0.2727222735 -1.017813381 0 -0.1375377916 -1.044703247 0
          -1.935648471e-16 -1.05371795 0 0.1375377916 -1.044703247 0 0.2727222735 -1.017813381 0 0.4032404017 -0.9735084467 0 0.5268589748 -0.9125465128 0 0.6414628448 -0.8359706551 0
          0.7450911077 -0.7450911077 0 0.8359706551 -0.6414628448 0 0.9125465128 -0.5268589748 0 0.9735084467 -0.4032404017 0 1.017813381 -0.2727222735 0 1.044703247 -0.1375377916 0
          1.350960039 0 0 1.339402388 0.1763356697 0 1.304927191 0.3496541871 0 1.248124329 0.5169900245 0 1.169965713 0.6754800193 0 1.071788659 0.8224123636 0
          0.9552730043 0.9552730043 0 0.8224123636 1.071788659 0 0.6754800193 1.169965713 0 0.5169900245 1.248124329 0 0.3496541871 1.304927191 0 0.1763356697 1.339402388 0
          8.272244435e-17 1.350960039 0 -0.1763356697 1.339402388 0 -0.3496541871 1.304927191 0 -0.5169900245 1.248124329 0 -0.6754800193 1.169965713 0 -0.8224123636 1.071788659 0
          -0.9552730043 0.9552730043 0 -1.071788659 0.8224123636 0 -1.169965713 0.6754800193 0 -1.248124329 0.5169900245 0 -1.304927191 0.3496541871 0 -1.339402388 0.1763356697 0
          -1.350960039 1.654448887e-16 0 -1.339402388 -0.1763356697 0 -1.304927191 -0.3496541871 0 -1.248124329 -0.5169900245 0 -1.169965713 -0.6754800193 0 -1.071788659 -0.8224123636 0
          -0.9552730043 -0.9552730043 0 -0.8224123636 -1.071788659 0 -0.6754800193 -1.169965713 0 -0.5169900245 -1.248124329 0 -0.3496541871 -1.304927191 0 -0.1763356697 -1.339402388 0
          -2.48167333e-16 -1.350960039 0 0.1763356697 -1.339402388 0 0.3496541871 -1.304927191 0 0.5169900245 -1.248124329 0 0.6754800193 -1.169965713 0 0.8224123636 -1.071788659 0
          0.9552730043 -0.9552730043 0 1.071788659 -0.8224123636 0 1.169965713 -0.6754800193 0 1.248124329 -0.5169900245 0 1.304927191 -0.3496541871 0 1.339402388 -0.1763356697 0
          1.732050808 0 0 1.717232873 0.2260779966 0 1.673032607 0.4482877361 0 1.60020629 0.6628271481 0 1.5 0.8660254038 0 1.374128294 1.054405725 0
          1.224744871 1.224744871 0 1.054405725 1.374128294 0 0.8660254038 1.5 0 0.6628271481 1.60020629 0 0.4482877361 1.673032607 0 0.2260779966 1.717232873 0
          1.060575239e-16 1.732050808 0 -0.2260779966 1.717232873 0 -0.4482877361 1.673032607 0 -0.6628271481 1.60020629 0 -0.8660254038 1.5 0 -1.054405725 1.374128294 0
          -1.224744871 1.224744871 0 -1.374128294 1.054405725 0 -1.5 0.8660254038 0 -1.60020629 0.6628271481 0 -1.673032607 0.4482877361 0 -1.717232873 0.2260779966 0
          -1.732050808 2.121150477e-16 0 -1.717232873 -0.2260779966 0 -1.673032607 -0.4482877361 0 -1.60020629 -0.6628271481 0 -1.5 -0.8660254038 0 -1.374128294 -1.054405725 0
          -1.224744871 -1.224744871 0 -1.054405725 -1.374128294 0 -0.8660254038 -1.5 0 -0.6628271481 -1.60020629 0 -0.4482877361 -1.673032607 0 -0.2260779966 -1.717232873 0
          -3.181725716e-16 -1.732050808 0 0.2260779966 -1.717232873 0 0.4482877361 -1.673032607 0 0.6628271481 -1.60020629 0 0.8660254038 -1.5 0 1.054405725 -1.374128294 0
          1.224744871 -1.224744871 0 1.374128294 -1.054405725 0 1.5 -0.8660254038 0 1.60020629 -0.6628271481 0 1.673032607 -0.4482877361 0 1.717232873 -0.2260779966 0
          2.220643035 0 0 2.201645126 0.2898520796 0 2.144976458 0.5747447098 0 2.051606649 0.8498032987 0 1.923133281 1.110321517 0 1.761754569 1.351841827 0
          1.570231749 1.570231749 0 1.351841827 1.761754569 0 1.110321517 1.923133281 0 0.8498032987 2.051606649 0 0.5747447098 2.144976458 0 0.2898520796 2.201645126 0
          1.359751692e-16 2.220643035 0 -0.2898520796 2.201645126 0 -0.5747447098 2.144976458 0 -0.8498032987 2.051606649 0 -1.110321517 1.923133281 0 -1.351841827 1.761754569 0
          -1.570231749 1.570231749 0 -1.761754569 1.351841827 0 -1.923133281 1.110321517 0 -2.051606649 0.8498032987 0 -2.144976458 0.5747447098 0 -2.201645126 0.2898520796 0
          -2.220643035 2.719503385e-16 0 -2.201645126 -0.2898520796 0 -2.144976458 -0.5747447098 0 -2.051606649 -0.8498032987 0 -1.923133281 -1.110321517 0 -1.761754569 -1.351841827 0
          -1.570231749 -1.570231749 0 -1.351841827 -1.761754569 0 -1.110321517 -1.923133281 0 -0.8498032987 -2.051606649 0 -0.5747447098 -2.144976458 0 -0.2898520796 -2.201645126 0
          -4.079255077e-16 -2.220643035 0 0.2898520796 -2.201645126 0 0.5747447098 -2.144976458 0 0.8498032987 -2.051606649 0 1.110321517 -1.923133281 0 1.351841827 -1.761754569 0
          1.570231749 -1.570231749 0 1.761754569 -1.351841827 0 1.923133281 -1.110321517 0 2.051606649 -0.8498032987 0 2.144976458 -0.5747447098 0 2.201645126 -0.2898520796 0
          2.847061684 0 0 2.822704676 0.3716161206 0 2.750050409 0.7368737863 0 2.630342017 1.089523337 0 2.465627744 1.423530842 0 2.258725897 1.733181339 0
          2.013176623 2.013176623 0 1.733181339 2.258725897 0 1.423530842 2.465627744 0 1.089523337 2.630342017 0 0.7368737863 2.750050409 0 0.3716161206 2.822704676 0
          1.743322489e-16 2.847061684 0 -0.3716161206 2.822704676 0 -0.7368737863 2.750050409 0 -1.089523337 2.630342017 0 -1.423530842 2.465627744 0 -1.733181339 2.258725897 0
          -2.013176623 2.013176623 0 -2.258725897 1.733181339 0 -2.465627744 1.423530842 0 -2.630342017 1.089523337 0 -2.750050409 0.7368737863 0 -2.822704676 0.3716161206 0
          -2.847061684 3.486644978e-16 0 -2.822704676 -0.3716161206 0 -2.750050409 -0.7368737863 0 -2.630342017 -1.089523337 0 -2.465627744 -1.423530842 0 -2.258725897 -1.733181339 0
          -2.013176623 -2.013176623 0 -1.733181339 -2.258725897 0 -1.423530842 -2.465627744 0 -1.089523337 -2.630342017 0 -0.7368737863 -2.750050409 0 -0.3716161206 -2.822704676 0
          -5.229967467e-16 -2.847061684 0 0.3716161206 -2.822704676 0 0.7368737863 -2.750050409 0 1.089523337 -2.630342017 0 1.423530842 -2.465627744 0 1.733181339 -2.258725897 0
          2.013176623 -2.013176623 0 2.258725897 -1.733181339 0 2.465627744 -1.423530842 0 2.630342017 -1.089523337 0 2.750050409 -0.7368737863 0 2.822704676 -0.3716161206 0
          3.650186051 0 0 3.618958204 0.4764448862 0 3.525808978 0.9447376683 0 3.372332183 1.396865727 0 3.161153849 1.825093026 0 2.895887297 2.222092477 0
          2.58107131 2.58107131 0 2.222092477 2.895887297 0 1.825093026 3.161153849 0 1.396865727 3.372332183 0 0.9447376683 3.525808978 0 0.4764448862 3.618958204 0
          2.235094332e-16 3.650186051 0 -0.4764448862 3.618958204 0 -0.9447376683 3.525808978 0 -1.396865727 3.372332183 0 -1.825093026 3.161153849 0 -2.222092477 2.895887297 0
          -2.58107131 2.58107131 0 -2.895887297 2.222092477 0 -3.161153849 1.825093026 0 -3.372332183 1.396865727 0 -3.525808978 0.9447376683 0 -3.618958204 0.4764448862 0
          -3.650186051 4.470188664e-16 0 -3.618958204 -0.4764448862 0 -3.525808978 -0.9447376683 0 -3.372332183 -1.396865727 0 -3.161153849 -1.825093026 0 -2.895887297 -2.222092477 0
          -2.58107131 -2.58107131 0 -2.222092477 -2.895887297 0 -1.825093026 -3.161153849 0 -1.396865727 -3.372332183 0 -0.9447376683 -3.525808978 0 -0.4764448862 -3.618958204 0
          -6.705282996e-16 -3.650186051 0 0.4764448862 -3.618958204 0 0.9447376683 -3.525808978 0 1.396865727 -3.372332183 0 1.825093026 -3.161153849 0 2.222092477 -2.895887297 0
          2.58107131 -2.58107131 0 2.895887297 -2.222092477 0 3.161153849 -1.825093026 0 3.372332183 -1.396865727 0 3.525808978 -0.9447376683 0 3.618958204 -0.4764448862 0
          4.679862851 0 0 4.639825976 0.6108446781 0 4.520400392 1.211237634 0 4.323629503 1.790905979 0 4.052880116 2.339931426 0 3.712784825 2.848919997 0
          3.309162757 3.309162757 0 2.848919997 3.712784825 0 2.339931426 4.052880116 0 1.790905979 4.323629503 0 1.211237634 4.520400392 0 0.6108446781 4.639825976 0
          2.865589531e-16 4.679862851 0 -0.6108446781 4.639825976 0 -1.211237634 4.520400392 0 -1.790905979 4.323629503 0 -2.339931426 4.052880116 0 -2.848919997 3.712784825 0
          -3.309162757 3.309162757 0 -3.712784825 2.848919997 0 -4.052880116 2.339931426 0 -4.323629503 1.790905979 0 -4.520400392 1.211237634 0 -4.639825976 0.6108446781 0
          -4.679862851 5.731179061e-16 0 -4.639825976 -0.6108446781 0 -4.520400392 -1.211237634 0 -4.323629503 -1.790905979 0 -4.052880116 -2.339931426 0 -3.712784825 -2.848919997 0
          -3.309162757 -3.309162757 0 -2.848919997 -3.712784825 0 -2.339931426 -4.052880116 0 -1.790905979 -4.323629503 0 -1.211237634 -4.520400392 0 -0.6108446781 -4.639825976 0
          -8.596768592e-16 -4.679862851 0 0.6108446781 -4.639825976 0 1.211237634 -4.520400392 0 1.790905979 -4.323629503 0 2.339931426 -4.052880116 0 2.848919997 -3.712784825 0
          3.309162757 -3.309162757 0 3.712784825 -2.848919997 0 4.052880116 -2.339931426 0 4.323629503 -1.790905979 0 4.520400392 -1.211237634 0 4.639825976 -0.6108446781 0
          6 0 0 5.948669168 0.7831571533 0 5.795554958 1.552914271 0 5.543277195 2.296100594 0 5.196152423 3 0 4.760120042 3.652568574 0
          4.242640687 4.242640687 0 3.652568574 4.760120042 0 3 5.196152423 0 2.296100594 5.543277195 0 1.552914271 5.795554958 0 0.7831571533 5.948669168 0
          3.673940397e-16 6 0 -0.7831571533 5.948669168 0 -1.552914271 5.795554958 0 -2.296100594 5.543277195 0 -3 5.196152423 0 -3.652568574 4.760120042 0
          -4.242640687 4.242640687 0 -4.760120042 3.652568574 0 -5.196152423 3 0 -5.543277195 2.296100594 0 -5.795554958 1.552914271 0 -5.948669168 0.7831571533 0
          -6 7.347880795e-16 0 -5.948669168 -0.7831571533 0 -5.795554958 -1.552914271 0 -5.543277195 -2.296100594 0 -5.196152423 -3 0 -4.760120042 -3.652568574 0
          -4.242640687 -4.242640687 0 -3.652568574 -4.760120042 0 -3 -5.196152423 0 -2.296100594 -5.543277195 0 -1.552914271 -5.795554958 0 -0.7831571533 -5.948669168 0
          -1.102182119e-15 -6 0 0.7831571533 -5.948669168 0 1.552914271 -5.795554958 0 2.296100594 -5.543277195 0 3 -5.196152423 0 3.652568574 -4.760120042 0
          4.242640687 -4.242640687 0 4.760120042 -3.652568574 0 5.196152423 -3 0 5.543277195 -2.296100594 0 5.795554958 -1.552914271 0 5.948669168 -0.7831571533 0
        </DataArray>
      </Points>
      <Cells>
        <DataArray type="Int64" Name="connectivity" format="ascii">
 0 1 49 48 1 2 50 49 2 3 51 50 3 4 52 51 4 5 53 52 5 6 54 53 6 7 55 54 7 8 56 55 8 9 57 56 9 10 58 57 10 11 59 58 11 12 60 59 12 13 61 60 13 14 62 61 14 15 63 62 15 16 64 63 16 17 65 64 17 18 66 65 18 19 67 66 19 20 68 67 20 21 69 68 21 22 70 69 22 23 71 70 23 24 72 71 24 25 73 72 25 26 74 73 26 27 75 74 27 28 76 75 28 29 77 76 29 30 78 77 30 31 79 78 31 32 80 79 32 33 81 80 33 34 82 81 34 35 83 82 35 36 84 83 36 37 85 84 37 38 86 85 38 39 87 86 39 40 88 87 40 41 89 88 41 42 90 89 42 43 91 90 43 44 92 91 44 45 93 92 45 46 94 93 46 47 95 94 47 0 48 95 48 49 97 96 49 50 98 97 50 51 99 98 51 52 100 99 52 53 101 100 53 54 102 101 54 55 103 102 55 56 104 103 56 57 105 104 57 58 106 105 58 59 107 106 59 60 108 107 60 61 109 108 61 62 110 109 62 63 111 110 63 64 112 111 64 65 113 112 65 66 114 113 66 67 115 114 67 68 116 115 68 69 117 116 69 70 118 117 70 71 119 118 71 72 120 119 72 73 121 120 73 74 122 121 74 75 123 122 75 76 124 123 76 77 125 124 77 78 126 125 78 79 127 126 79 80 128 127 80 81 129 128 81 82 130 129 82 83 131 130 83 84 132 131 84 85 133 132 85 86 134 133 86 87 135 134 87 88 136 135 88 89 137 136 89 90 138 137 90 91 139 138 91 92 140 139 92 93 141 140 93 94 142 141 94 95 143 142 95 48 96 143 96 97 145 96 145 144 97 98 146 97 146 145 98 99 147 98 147 146 99 100 148 99 148 147 100 101 149 100 149 148 101 102 150 101 150 149 102 103 151 102 151 150 103 104 152 103 152 151 104 105 153 104 153 152 105 106 154 105 154 153 106 107 155 106 155 154 107 108 156 107 156 155 108 109 157 108 157 156 109 110 158 109 158 157 110 111 159 110 159 158 111 112 160 111 160 159 112 113 161 112 161 160 113 114 162 113 162 161 114 115 163 114 163 162 115 116 164 115 164 163 116 117 165 116 165 164 117 118 166 117 166 165 118 119 167 118 167 166 119 120 168 119 168 167 120 121 169 120 169 168 121 122 170 121 170 169 122 123 171 122 171 170 123 124 172 123 172 171 124 125 173 124 173 172 125 126 174 125 174 173 126 127 175 126 175 174 127 128 176 127 176 175 128 129 177 128 177 176 129 130 178 129 178 177 130 131 179 130 179 178 131 132 180 131 180 179 132 133 181 132 181 180 133 134 182 133 182 181 134 135 183 134 183 182 135 136 184 135 184 183 136 137 185 136 185 184 137 138 186 137 186 185 138 139 187 138 187 186 139 140 188 139 188 187 140 141 189 140 189 188 141 142 190 141 190 189 142 143 191 142 191 190 143 96 144 143 144 191 144 145 193 192 145 146 194 193 146 147 195 194 147 148 196 195 148 149 197 196 149 150 198 197 150 151 199 198 151 152 200 199 152 153 201 200 153 154 202 201 154 155 203 202 155 156 204 203 156 157 205 204 157 158 206 205 158 159 207 206 159 160 208 207 160 161 209 208 161 162 210 209 162 163 211 210 163 164 212 211 164 165 213 212 165 166 214 213 166 167 215 214 167 168 216 215 168 169 217 216 169 170 218 217 170 171 219 218 171 172 220 219 172 173 221 220 173 174 222 221 174 175 223 222 175 176 224 223 176 177 225 224 177 178 226 225 178 179 227 226 179 180 228 227 180 181 229 228 181 182 230 229 182 183 231 230 183 184 232 231 184 185 233 232 185 186 234 233 186 187 235 234 187 188 236 235 188 189 237 236 189 190 238 237 190 191 239 238 191 144 192 239 192 193 241 240 193 194 242 241 194 195 243 242 195 196 244 243 196 197 245 244 197 198 246 245 198 199 247 246 199 200 248 247 200 201 249 248 201 202 250 249 202 203 251 250 203 204 252 251 204 205 253 252 205 206 254 253 206 207 255 254 207 208 256 255 208 209 257 256 209 210 258 257 210 211 259 258 211 212 260 259 212 213 261 260 213 214 262 261 214 215 263 262 215 216 264 263 216 217 265 264 217 218 266 265 218 219 267 266 219 220 268 267 220 221 269 268 221 222 270 269 222 223 271 270 223 224 272 271 224 225 273 272 225 226 274 273 226 227 275 274 227 228 276 275 228 229 277 276 229 230 278 277 230 231 279 278 231 232 280 279 232 233 281 280 233 234 282 281 234 235 283 282 235 236 284 283 236 237 285 284 237 238 286 285 238 239 287 286 239 192 240 287 240 241 289 240 289 288 241 242 290 241 290 289 242 243 291 242 291 290 243 244 292 243 292 291 244 245 293 244 293 292 245 246 294 245 294 293 246 247 295 246 295 294 247 248 296 247 296 295 248 249 297 248 297 296 249 250 298 249 298 297 250 251 299 250 299 298 251 252 300 251 300 299 252 253 301 252 301 300 253 254 302 253 302 301 254 255 303 254 303 302 255 256 304 255 304 303 256 257 305 256 305 304 257 258 306 257 306 305 258 259 307 258 307 306 259 260 308 259 308 307 260 261 309 260 309 308 261 262 310 261 310 309 262 263 311 262 311 310 263 264 312 263 312 311 264 265 313 264 313 312 265 266 314 265 314 313 266 267 315 266 315 314 267 268 316 267 316 315 268 269 317 268 317 316 269 270 318 269 318 317 270 271 319 270 319 318 271 272 320 271 320 319 272 273 321 272 321 320 273 274 322 273 322 321 274 275 323 274 323 322 275 276 324 275 324 323 276 277 325 276 325 324 277 278 326 277 326 325 278 279 327 278 327 326 279 280 328 279 328 327 280 281 329 280 329 328 281 282 330 281 330 329 282 283 331 282 331 330 283 284 332 283 332 331 284 285 333 284 333 332 285 286 334 285 334 333 286 287 335 286 335 334 287 240 288 287 288 335 288 289 337 336 289 290 338 337 290 291 339 338 291 292 340 339 292 293 341 340 293 294 342 341 294 295 343 342 295 296 344 343 296 297 345 344 297 298 346 345 298 299 347 346 299 300 348 347 300 301 349 348 301 302 350 349 302 303 351 350 303 304 352 351 304 305 353 352 305 306 354 353 306 307 355 354 307 308 356 355 308 309 357 356 309 310 358 357 310 311 359 358 311 312 360 359 312 313 361 360 313 314 362 361 314 315 363 362 315 316 364 363 316 317 365 364 317 318 366 365 318 319 367 366 319 320 368 367 320 321 369 368 321 322 370 369 322 323 371 370 323 324 372 371 324 325 373 372 325 326 374 373 326 327 375 374 327 328 376 375 328 329 377 376 329 330 378 377 330 331 379 378 331 332 380 379 332 333 381 380 333 334 382 381 334 335 383 382 335 288 336 383 336 337 385 384 337 338 386 385 338 339 387 386 339 340 388 387 340 341 389 388 341 342 390 389 342 343 391 390 343 344 392 391 344 345 393 392 345 346 394 393 346 347 395 394 347 348 396 395 348 349 397 396 349 350 398 397 350 351 399 398 351 352 400 399 352 353 401 400 353 354 402 401 354 355 403 402 355 356 404 403 356 357 405 404 357 358 406 405 358 359 407 406 359 360 408 407 360 361 409 408 361 362 410 409 362 363 411 410 363 364 412 411 364 365 413 412 365 366 414 413 366 367 415 414 367 368 416 415 368 369 417 416 369 370 418 417 370 371 419 418 371 372 420 419 372 373 421 420 373 374 422 421 374 375 423 422 375 376 424 423 376 377 425 424 377 378 426 425 378 379 427 426 379 380 428 427 380 381 429 428 381 382 430 429 382 383 431 430 383 336 384 431 384 385 433 432 385 386 434 433 386 387 435 434 387 388 436 435 388 389 437 436 389 390 438 437 390 391 439 438 391 392 440 439 392 393 441 440 393 394 442 441 394 395 443 442 395 396 444 443 396 397 445 444 397 398 446 445 398 399 447 446 399 400 448 447 400 401 449 448 401 402 450 449 402 403 451 450 403 404 452 451 404 405 453 452 405 406 454 453 406 407 455 454 407 408 456 455 408 409 457 456 409 410 458 457 410 411 459 458 411 412 460 459 412 413 461 460 413 414 462 461 414 415 463 462 415 416 464 463 416 417 465 464 417 418 466 465 418 419 467 466 419 420 468 467 420 421 469 468 421 422 470 469 422 423 471 470 423 424 472 471 424 425 473 472 425 426 474 473 426 427 475 474 427 428 476 475 428 429 477 476 429 430 478 477 430 431 479 478 431 384 432 479 432 433 481 480 433 434 482 481 434 435 483 482 435 436 484 483 436 437 485 484 437 438 486 485 438 439 487 486 439 440 488 487 440 441 489 488 441 442 490 489 442 443 491 490 443 444 492 491 444 445 493 492 445 446 494 493 446 447 495 494 447 448 496 495 448 449 497 496 449 450 498 497 450 451 499 498 451 452 500 499 452 453 501 500 453 454 502 501 454 455 503 502 455 456 504 503 456 457 505 504 457 458 506 505 458 459 507 506 459 460 508 507 460 461 509 508 461 462 510 509 462 463 511 510 463 464 512 511 464 465 513 512 465 466 514 513 466 467 515 514 467 468 516 515 468 469 517 516 469 470 518 517 470 471 519 518 471 472 520 519 472 473 521 520 473 474 522 521 474 475 523 522 475 476 524 523 476 477 525 524 477 478 526 525 478 479 527 526
</DataArray>
        <DataArray type="Int64" Name="offsets" format="ascii">
          4 8 12 16 20 24 28 32 36 40 44 48
          52 56 60 64 68 72 76 80 84 88 92 96
          100 104 108 112 116 120 124 128 132 136 140 144
          148 152 156 160 164 168 172 176 180 184 188 192
          196 200 204 208 212 216 220 224 228 232 236 240
          244 248 252 256 260 264 268 272 276 280 284 288
          292 296 300 304 308 312 316 320 324 328 332 336
          340 344 348 352 356 360 364 368 372 376 380 384
          387 390 393 396 399 402 405 408 411 414 417 420
          423 426 429 432 435 438 441 444 447 450 453 456
          459 462 465 468 471 474 477 480 483 486 489 492
          495 498 501 504 507 510 513 516 519 522 525 528
          531 534 537 540 543 546 549 552 555 558 561 564
          567 570 573 576 579 582 585 588 591 594 597 600
          603 606 609 612 615 618 621 624 627 630 633 636
          639 642 645 648 651 654 657 660 663 666 669 672
          676 680 684 688 692 696 700 704 708 712 716 720
          724 728 732 736 740 744 748 752 756 760 764 768
          772 776 780 784 788 792 796 800 804 808 812 816
          820 824 828 832 836 840 844 848 852 856 860 864
          868 872 876 880 884 888 892 896 900 904 908 912
          916 920 924 928 932 936 940 944 948 952 956 960
          964 968 972 976 980 984 988 992 996 1000 1004 1008
          1012 1016 1020 1024 1028 1032 1036 1040 1044 1048 1052 1056
          1059 1062 1065 1068 1071 1074 1077 1080 1083 1086 1089 1092
          1095 1098 1101 1104 1107 1110 1113 1116 1119 1122 1125 1128
          1131 1134 1137 1140 1143 1146 1149 1152 1155 1158 1161 1164
          1167 1170 1173 1176 1179 1182 1185 1188 1191 1194 1197 1200
          1203 1206 1209 1212 1215 1218 1221 1224 1227 1230 1233 1236
          1239 1242 1245 1248 1251 1254 1257 1260 1263 1266 1269 1272
          1275 1278 1281 1284 1287 1290 1293 1296 1299 1302 1305 1308
          1311 1314 1317 1320 1323 1326 1329 1332 1335 1338 1341 1344
          1348 1352 1356 1360 1364 1368 1372 1376 1380 1384 1388 1392
          1396 1400 1404 1408 1412 1416 1420 1424 1428 1432 1436 1440
          1444 1448 1452 1456 1460 1464 1468 1472 1476 1480 1484 1488
          1492 1496 1500 1504 1508 1512 1516 1520 1524 1528 1532 1536
          1540 1544 1548 1552 1556 1560 1564 1568 1572 1576 1580 1584
          1588 1592 1596 1600 1604 1608 1612 1616 1620 1624 1628 1632
          1636 1640 1644 1648 1652 1656 1660 1664 1668 1672 1676 1680
          1684 1688 1692 1696 1700 1704 1708 1712 1716 1720 1724 1728
          1732 1736 1740 1744 1748 1752 1756 1760 1764 1768 1772 1776
          1780 1784 1788 1792 1796 1800 1804 1808 1812 1816 1820 1824
          1828 1832 1836 1840 1844 1848 1852 1856 1860 1864 1868 1872
          1876 1880 1884 1888 1892 1896 1900 1904 1908 1912 1916 1920
          1924 1928 1932 1936 1940 1944 1948 1952 1956 1960 1964 1968
          1972 1976 1980 1984 1988 1992 1996 2000 2004 2008 2012 2016
          2020 2024 2028 2032 2036 2040 2044 2048 2052 2056 2060 2064
          2068 2072 2076 2080 2084 2088 2092 2096 2100 2104 2108 2112
        </DataArray>
        <DataArray type="UInt8" Name="types" format="ascii">
          9 9 9 9 9 9 9 9 9 9 9 9 9 9 9 9 9 9 9 9
          9 9 9 9 9 9 9 9 9 9 9 9 9 9 9 9 9 9 9 9
          9 9 9 9 9 9 9 9 9 9 9 9 9 9 9 9 9 9 9 9
          9 9 9 9 9 9 9 9 9 9 9 9 9 9 9 9 9 9 9 9
          9 9 9 9 9 9 9 9 9 9 9 9 9 9 9 9 5 5 5 5
          5 5 5 5 5 5 5 5 5 5 5 5 5 5 5 5 5 5 5 5
          5 5 5 5 5 5 5 5 5 5 5 5 5 5 5 5 5 5 5 5
          5 5 5 5 5 5 5 5 5 5 5 5 5 5 5 5 5 5 5 5
          5 5 5 5 5 5 5 5 5 5 5 5 5 5 5 5 5 5 5 5
          5 5 5 5 5 5 5 5 5 5 5 5 9 9 9 9 9 9 9 9
          9 9 9 9 9 9 9 9 9 9 9 9 9 9 9 9 9 9 9 9
          9 9 9 9 9 9 9 9 9 9 9 9 9 9 9 9 9 9 9 9
          9 9 9 9 9 9 9 9 9 9 9 9 9 9 9 9 9 9 9 9
          9 9 9 9 9 9 9 9 9 9 9 9 9 9 9 9 9 9 9 9
          9 9 9 9 9 9 9 9 5 5 5 5 5 5 5 5 5 5 5 5
          5 5 5 5 5 5 5 5 5 5 5 5 5 5 5 5 5 5 5 5
          5 5 5 5 5 5 5 5 5 5 5 5 5 5 5 5 5 5 5 5
          5 5 5 5 5 5 5 5 5 5 5 5 5 5 5 5 5 5 5 5
          5 5 5 5 5 5 5 5 5 5 5 5 5 5 5 5 5 5 5 5
          5 5 5 5 9 9 9 9 9 9 9 9 9 9 9 9 9 9 9 9
          9 9 9 9 9 9 9 9 9 9 9 9 9 9 9 9 9 9 9 9
          9 9 9 9 9 9 9 9 9 9 9 9 9 9 9 9 9 9 9 9
          9 9 9 9 9 9 9 9 9 9 9 9 9 9 9 9 9 9 9 9
          9 9 9 9 9 9 9 9 9 9 9 9 9 9 9 9 9 9 9 9
          9 9 9 9 9 9 9 9 9 9 9 9 9 9 9 9 9 9 9 9
          9 9 9 9 9 9 9 9 9 9 9 9 9 9 9 9 9 9 9 9
          9 9 9 9 9 9 9 9 9 9 9 9 9 9 9 9 9 9 9 9
          9 9 9 9 9 9 9 9 9 9 9 9 9 9 9 9 9 9 9 9
          9 9 9 9 9 9 9 9 9 9 9 9 9 9 9 9
        </DataArray>
      </Cells>
      <CellData Scalars="density" Vectors="velocity">
        <DataArray type="Float64" Name="density" format="ascii">
          1.004958862 1.00493986 1.004850142 1.004681741 1.004142654 1.003812526
          1.003470708 1.003140492 1.002844392 1.002602601 1.002431615 1.002343102
          1.002343102 1.002431615 1.002602601 1.002844392 1.003140492 1.003470708
          1.003812526 1.004142654 1.004438601 1.004680215 1.004851047 1.004939472
          1.004939472 1.004851047 1.004680215 1.004438601 1.004142654 1.003812526
          1.003470708 1.003140492 1.002844392 1.002602601 1.002431615 1.002343102
          1.002343102 1.002431615 1.002602601 1.002844392 1.003140492 1.003470708
          1.003812526 1.004142654 1.004649884 1.004757372 1.004851144 1.00492323
          1.004617553 1.00481833 1.004735742 1.00429604 1.003484854 1.00236112
          0.9983503497 0.9971773712 0.9961252381 0.9952658453 0.9946579836 0.9943432729
          0.9943432729 0.9946579836 0.9952658453 0.9961252381 0.9971773712 0.9983503497
          0.9995641258 1.000735984 1.001786177 1.002643329 1.003249251 1.003562841
          1.003562841 1.003249251 1.002643329 1.001786177 1.000735984 0.9995641258
          0.9983503497 0.9971773712 0.9961252381 0.9952658453 0.9946579836 0.9943432729
          0.9943432729 0.9946579836 0.9952658453 0.9961252381 0.9971773712 0.9983503497
          1.001839325 1.002357999 1.00283175 1.003298719 1.003774845 1.004236809
          1.003816052 1.00340548 1.004045912 1.003659122 1.004063668 1.003754465
          1.003798999 1.003619016 1.003231684 1.003215032 1.00240541 1.002559084
          1.001420729 1.001723738 0.9981849562 1.000820248 0.9975043935 0.9981281135
          0.996960984 0.9976242118 0.9965918597 0.9972585796 0.9964222569 0.9970561991
          0.9964637748 0.9970309025 0.9967135738 0.9971844192 0.9971545717 0.9975062558
          0.997756624 0.9979744202 0.9984786024 0.9985569362 0.9992712244 0.9992140415
          1.000080434 0.9999009154 1.000851095 1.000570743 1.001530747 1.001177909
          1.002073164 1.001681095 1.002441479 1.002046081 1.002610674 1.002248058
          1.002569258 1.002273302 1.002320044 1.002120097 1.001879957 1.001798854
          1.001278897 1.001331406 1.000557727 1.000749536 0.9997655134 1.000092835
          0.998956202 0.9994060135 0.9981849562 0.9987358731 0.9975043935 0.9981281135
          0.996960984 0.9976242118 0.9965918597 0.9972585796 0.9964222569 0.9970561991
          0.9964637748 0.9970309025 0.9967135738 0.9971844192 0.9971545717 0.9975062558
          0.997756624 0.9979744202 1.000717157 1.000485149 1.001224707 1.000969507
          1.001656081 1.00139339 1.002024077 1.001755833 1.002362014 1.002078655
          1.002706896 1.002393755 1.003079141 1.002725221 1.00346613 1.003073231
          1.003189699 1.003248401 1.003152519 1.002886902 1.002452705 1.00187673
          1.001214389 1.000540581 0.9999321179 0.99847082 0.998243974 0.9981265417
          0.9981265417 0.998243974 0.99847082 0.9987915934 0.999184403 0.9996224523
          1.000075873 1.000513766 1.000906305 1.001226767 1.001453342 1.001570618
          1.001570618 1.001453342 1.001226767 1.000906305 1.000513766 1.000075873
          0.9996224523 0.999184403 0.9987915934 0.99847082 0.998243974 0.9981265417
          0.9981265417 0.998243974 0.99847082 0.9999006392 1.000313676 1.000738068
          1.001155649 1.001562927 1.001963336 1.002352608 1.002709468 1.003000142
          1.003453012 1.003243548 1.002838601 1.002302088 1.001713544 1.001134897
          1.000601021 1.00013286 0.9997469643 0.9991057605 0.9989677931 0.9988963729
          0.9988963729 0.9989677931 0.9991057605 0.999300863 0.999539793 0.9998062578
          1.000082093 1.0003485 1.000587329 1.000782316 1.000920184 1.000991546
          1.000991546 1.000920184 1.000782316 1.000587329 1.0003485 1.000082093
          0.9998062578 0.999539793 0.999300863 0.9991057605 0.9989677931 0.9988963729
          0.9988963729 0.9989677931 0.9991057605 0.9997055405 1.000022225 1.000407697
          1.000872952 1.001428995 1.002056235 1.002674726 1.003163873 1.003431663
          1.002645417 1.002308464 1.002430214 1.002157925 1.002033112 1.001846205
          1.001502955 1.00138271 1.000965437 1.000887217 1.000506716 1.00046579
          1.000142495 1.000142518 0.9998585216 0.9998976269 0.99964124 0.9997105973
          0.9994839962 0.999571269 0.9993170695 0.9994434697 0.9992789245 0.999397943
          0.999288262 0.9993922526 0.9993444453 0.9994267866 0.9994436426 0.9994991899
          0.9995790891 0.9996045253 0.9997415494 0.9997356109 0.999919948 0.99988351
          1.000102125 1.000038142 1.000275667 1.000188967 1.000428748 1.000325711
          1.000550943 1.000439055 1.000633928 1.000521281 1.000672052 1.000566787
          1.00066272 1.000572475 1.000606566 1.000537957 1.000507415 1.000465584
          1.000372019 1.000360284 1.0002096 1.000229232 1.000031222 1.000081353
          0.9998490394 0.9999267241 0.9996754685 0.9997758824 0.9995223406 0.9996391091
          0.9994000956 0.9995257281 0.9993170695 0.9994434697 0.9992789245 0.999397943
          0.999288262 0.9993922526 0.9993444453 0.9994267866 0.9995343773 0.9995390727
          0.9997028646 0.9996612113 0.999928511 0.9998273004 1.000228786 1.000049169
          1.000634925 1.000354678 1.001168852 1.000779206 1.001783564 1.001317167
          1.002328008 1.001857246 1.002644651 1.002223526 1.002721173 1.00234684
          1.002428156 1.001976069 1.001331716 1.000766693 1.000381698 1.000140768
          0.99997989 0.9998585907 0.9997614324 0.9996857893 0.9996310378 0.9996046119
          0.9996046119 0.9996310378 0.9996820878 0.9997542818 0.9998426981 0.99994131
          1.000043396 1.000142 1.000230403 1.000302581 1.000353618 1.000380035
          1.000380035 1.000353618 1.000302581 1.000230403 1.000142 1.000043396
          0.99994131 0.9998426981 0.9997542818 0.9996820878 0.9996310378 0.9996046119
          0.9996046119 0.9996310378 0.99968563 0.9997609306 0.9998578745 0.9999805906
          1.000148131 1.000404776 1.000810902 1.001386985 1.00201974 1.002443992
          1.001763587 1.001366188 1.000762283 1.000333716 1.00013505 1.000037841
          0.999968019 0.9999065377 0.9998524458 0.9998084564 0.9997773819 0.9997612894
          0.9997612894 0.999777365 0.9998084203 0.9998523386 0.9999061262 0.9999661171
          1.000028223 1.000088211 1.000141993 1.000185906 1.000216956 1.000233029
          1.000233029 1.000216956 1.000185906 1.000141993 1.000088211 1.000028223
          0.9999661171 0.9999061262 0.9998523386 0.9998084203 0.999777365 0.9997612894
          0.9997612894 0.9997773818 0.9998084552 0.9998524436 0.9999065497 0.9999681315
          1.000038228 1.000135084 1.000328699 1.000743202 1.001335558 1.001747303
          1.001486884 1.000876527 1.000318316 1.000117804 1.000057338 1.000018067
          0.9999800762 0.9999435663 0.9999108435 0.9998841258 0.9998652334 0.999855454
          0.999855454 0.9998652334 0.9998841258 0.9999108434 0.9999435652 0.9999800611
          1.000017844 1.000054339 1.000087059 1.000113774 1.000132665 1.000142443
          1.000142443 1.000132665 1.000113774 1.000087059 1.000054339 1.000017844
          0.9999800611 0.9999435652 0.9999108434 0.9998841258 0.9998652334 0.999855454
          0.999855454 0.9998652334 0.9998841258 0.9999108435 0.9999435663 0.9999800761
          1.00001806 1.000057257 1.000117625 1.000320027 1.000884377 1.001493259
          1.001085294 1.000429841 1.000107819 1.000054824 1.000033341 1.000011106
          0.9999881195 0.9999659168 0.9999460102 0.9999297564 0.9999182632 0.9999123139
          0.9999123139 0.9999182632 0.9999297564 0.9999460102 0.9999659168 0.9999881195
          1.000011105 1.000033307 1.000053213 1.000069466 1.000080959 1.000086908
          1.000086908 1.000080959 1.000069466 1.000053213 1.000033307 1.000011105
          0.9999881195 0.9999659168 0.9999460102 0.9999297564 0.9999182632 0.9999123139
          0.9999123139 0.9999182632 0.9999297564 0.9999460102 0.9999659168 0.9999881195
          1.000011106 1.000033341 1.000054833 1.000107614 1.000427438 1.001082264
        </DataArray>
        <DataArray type="Float64" Name="velocity" NumberOfComponents="3" format="ascii">
          -0.08510404069 0.001490617366 0 -0.06160794168 -0.08518966096 0 -0.01630130689 -0.1696048508 0 0.04758280892 -0.2459912575 0 0.2906000871 -0.2938281338 0 0.3707954899 -0.3153164272 0
          0.4538198803 -0.3153164272 0 0.5340152831 -0.2938281338 0 0.6059165143 -0.2523159386 0 0.6646236237 -0.1936088292 0 0.7061358189 -0.121707598 0 0.7276241123 -0.04151219517 0
          0.7276241123 0.04151219517 0 0.7061358189 0.121707598 0 0.6646236237 0.1936088292 0 0.6059165143 0.2523159386 0 0.5340152831 0.2938281338 0 0.4538198803 0.3153164272 0
          0.3707954899 0.3153164272 0 0.2906000871 0.2938281338 0 0.2186988559 0.2523159386 0 0.1599917465 0.1936088292 0 0.1184795513 0.121707598 0 0.09699125788 0.04151219517 0
          0.09699125788 -0.04151219517 0 0.1184795513 -0.121707598 0 0.1599917465 -0.1936088292 0 0.2186988559 -0.2523159386 0 0.2906000871 -0.2938281338 0 0.3707954899 -0.3153164272 0
          0.4538198803 -0.3153164272 0 0.5340152831 -0.2938281338 0 0.6059165143 -0.2523159386 0 0.6646236237 -0.1936088292 0 0.7061358189 -0.121707598 0 0.7276241123 -0.04151219517 0
          0.7276241123 0.04151219517 0 0.7061358189 0.121707598 0 0.6646236237 0.1936088292 0 0.6059165143 0.2523159386 0 0.5340152831 0.2938281338 0 0.4538198803 0.3153164272 0
          0.3707954899 0.3153164272 0 0.2906000871 0.2938281338 0 0.04758280892 0.2586406197 0 -0.01630130689 0.2176128076 0 -0.06160794168 0.1582255351 0 -0.08510404069 0.08451500771 0
          0.1103754483 0.2519018105 0 0.1499104793 0.1137233601 0 0.2257976841 -0.03115867108 0 0.3320528218 -0.1726132077 0 0.4605546949 -0.3007211197 0 0.6018426764 -0.406618355 0
          1.056143808 -0.4630134253 0 1.173903446 -0.4314598255 0 1.279483849 -0.3705029516 0 1.365689886 -0.2842969139 0 1.42664676 -0.1787165113 0 1.45820036 -0.06095687385 0
          1.45820036 0.06095687385 0 1.42664676 0.1787165113 0 1.365689886 0.2842969139 0 1.279483849 0.3705029516 0 1.173903446 0.4314598255 0 1.056143808 0.4630134253 0
          0.9342300608 0.4630134253 0 0.8164704233 0.4314598255 0 0.7108900207 0.3705029516 0 0.624683983 0.2842969139 0 0.5637271091 0.1787165113 0 0.5321735094 0.06095687385 0
          0.5321735094 -0.06095687385 0 0.5637271091 -0.1787165113 0 0.624683983 -0.2842969139 0 0.7108900207 -0.3705029516 0 0.8164704233 -0.4314598255 0 0.9342300608 -0.4630134253 0
          1.056143808 -0.4630134253 0 1.173903446 -0.4314598255 0 1.279483849 -0.3705029516 0 1.365689886 -0.2842969139 0 1.42664676 -0.1787165113 0 1.45820036 -0.06095687385 0
          1.45820036 0.06095687385 0 1.42664676 0.1787165113 0 1.365689886 0.2842969139 0 1.279483849 0.3705029516 0 1.173903446 0.4314598255 0 1.056143808 0.4630134253 0
          0.6018426764 0.5194084956 0 0.4605546949 0.5621985313 0 0.3320528218 0.5683926956 0 0.2257976841 0.5374351568 0 0.1499104793 0.4711563828 0 0.1103754483 0.3738155582 0
          0.2903162425 0.3897744361 0 0.3391825624 0.4509940833 0 0.3293277892 0.2858436573 0 0.36652071 0.3651069563 0 0.3969361203 0.1704351431 0 0.4226134195 0.2644643398 0
          0.4867855028 0.0516058678 0 0.5014424198 0.1556557701 0 0.5910943218 -0.06207462956 0 0.5953475154 0.04627874844 0 0.7016736757 -0.1622983903 0 0.6963027768 -0.05553288351 0
          0.8106835665 -0.2420034637 0 0.7968299861 -0.1421110038 0 1.133281109 -0.2802692605 0 0.8904492692 -0.207421298 0 1.201278683 -0.2362235939 0 1.152468612 -0.2146000524 0
          1.255559439 -0.1760796798 0 1.20281595 -0.1678259524 0 1.292424233 -0.1039362265 0 1.239341717 -0.1096147911 0 1.309360789 -0.02470969114 0 1.259556742 -0.04393356295 0
          1.30521491 0.05620076885 0 1.262083403 0.02474166494 0 1.28026913 0.1332812393 0 1.246749513 0.09173078924 0 1.236223464 0.2012788136 0 1.214600052 0.1524686119 0
          1.17607955 0.2555595693 0 1.167825952 0.2028159505 0 1.103936096 0.2924243628 0 1.109614791 0.2393417174 0 1.024709561 0.3093609191 0 1.043933563 0.2595567417 0
          0.9437991009 0.3052150401 0 0.9752583349 0.262083403 0 0.8667186304 0.2802692605 0 0.9082692106 0.2467495135 0 0.7987210562 0.2362235939 0 0.847531388 0.2146000524 0
          0.7444403004 0.1760796798 0 0.7971840493 0.1678259524 0 0.707575507 0.1039362265 0 0.7606582825 0.1096147911 0 0.6906389506 0.02470969114 0 0.7404432582 0.04393356295 0
          0.6947848297 -0.05620076885 0 0.7379165969 -0.02474166494 0 0.7197306093 -0.1332812393 0 0.7532504864 -0.09173078924 0 0.7637762758 -0.2012788136 0 0.7853999474 -0.1524686119 0
          0.82392019 -0.2555595693 0 0.8321740474 -0.2028159505 0 0.8960636433 -0.2924243628 0 0.8903852087 -0.2393417174 0 0.9752901786 -0.3093609191 0 0.9560664369 -0.2595567417 0
          1.056200639 -0.3052150401 0 1.024741665 -0.262083403 0 1.133281109 -0.2802692605 0 1.091730789 -0.2467495135 0 1.201278683 -0.2362235939 0 1.152468612 -0.2146000524 0
          1.255559439 -0.1760796798 0 1.20281595 -0.1678259524 0 1.292424233 -0.1039362265 0 1.239341717 -0.1096147911 0 1.309360789 -0.02470969114 0 1.259556742 -0.04393356295 0
          1.30521491 0.05620076885 0 1.262083403 0.02474166494 0 1.28026913 0.1332812393 0 1.246749513 0.09173078924 0 1.236223464 0.2012788136 0 1.214600052 0.1524686119 0
          1.17607955 0.2555595693 0 1.167825952 0.2028159505 0 0.8732479708 0.3065713292 0 0.91474562 0.2572960764 0 0.7687069629 0.4050780979 0 0.8240812145 0.3563021282 0
          0.6581937396 0.4852372262 0 0.724887897 0.4424723995 0 0.5491010399 0.5417644693 0 0.6233358689 0.5100612059 0 0.4494746038 0.5703917969 0 0.5266501634 0.5538373402 0
          0.3674515559 0.5686011467 0 0.4427746316 0.5700617934 0 0.3103858657 0.5361467251 0 0.3795902689 0.5572881307 0 0.2837803881 0.4751447716 0 0.3437140172 0.5165626379 0
          0.4526487262 0.395932586 0 0.4844291989 0.3394500418 0 0.5427579486 0.2729700878 0 0.6190407467 0.1976737089 0 0.7039343978 0.1170248595 0 0.7893800571 0.03731452142 0
          0.8694359391 -0.0338296105 0 0.940116259 -0.08974129305 0 0.9988031455 -0.1263665553 0 1.137788987 -0.1057292086 0 1.160458674 -0.06646415903 0 1.172193368 -0.02266968691 0
          1.172193368 0.02266968691 0 1.160458674 0.06646415903 0 1.137788987 0.1057292086 0 1.105729209 0.1377889872 0 1.066464159 0.1604586741 0 1.022669687 0.1721933676 0
          0.9773303131 0.1721933676 0 0.933535841 0.1604586741 0 0.8942707914 0.1377889872 0 0.8622110128 0.1057292086 0 0.8395413259 0.06646415903 0 0.8278066324 0.02266968691 0
          0.8278066324 -0.02266968691 0 0.8395413259 -0.06646415903 0 0.8622110128 -0.1057292086 0 0.8942707914 -0.1377889872 0 0.933535841 -0.1604586741 0 0.9773303131 -0.1721933676 0
          1.022669687 -0.1721933676 0 1.066464159 -0.1604586741 0 1.105729209 -0.1377889872 0 1.137788987 -0.1057292086 0 1.160458674 -0.06646415903 0 1.172193368 -0.02266968691 0
          1.172193368 0.02266968691 0 1.160458674 0.06646415903 0 1.137788987 0.1057292086 0 0.9988031455 0.1492114192 0 0.940116259 0.2311760552 0 0.8694359391 0.3105571247 0
          0.7893800571 0.3817012566 0 0.7039343978 0.4379422078 0 0.6190407467 0.4732516834 0 0.5427579486 0.4844285049 0 0.4844291989 0.4723783598 0 0.4526487262 0.4412719599 0
          0.5521427926 0.06371347431 0 0.5894749137 0.05821622558 0 0.6541886966 0.06320522435 0 0.7317159434 0.06294659221 0 0.8092270614 0.04822161094 0 0.8789518123 0.02031973341 0
          0.9378838255 -0.01246461688 0 0.9857740949 -0.04094793739 0 1.023283618 -0.05912039497 0 1.083825907 -0.06432188038 0 1.097617336 -0.04043442437 0 1.104756305 -0.01379142916 0
          1.104756305 0.01379142916 0 1.097617336 0.04043442437 0 1.083825907 0.06432188038 0 1.06432188 0.08382590654 0 1.040434424 0.0976173357 0 1.013791429 0.1047563047 0
          0.9862085708 0.1047563047 0 0.9595655756 0.0976173357 0 0.9356781196 0.08382590654 0 0.9161740935 0.06432188038 0 0.9023826643 0.04043442437 0 0.8952436953 0.01379142916 0
          0.8952436953 -0.01379142916 0 0.9023826643 -0.04043442437 0 0.9161740935 -0.06432188038 0 0.9356781196 -0.08382590654 0 0.9595655756 -0.0976173357 0 0.9862085708 -0.1047563047 0
          1.013791429 -0.1047563047 0 1.040434424 -0.0976173357 0 1.06432188 -0.08382590654 0 1.083825907 -0.06432188038 0 1.097617336 -0.04043442437 0 1.104756305 -0.01379142916 0
          1.104756305 0.01379142916 0 1.097617336 0.04043442437 0 1.083825907 0.06432188038 0 1.023283618 0.1085314181 0 0.9857740949 0.154286734 0 0.9378838255 0.1970479926 0
          0.8789518123 0.2298323429 0 0.8092270614 0.2434562823 0 0.7317159434 0.2305984053 0 0.6541886966 0.1918489851 0 0.5894749137 0.1390850743 0 0.5521427926 0.09129633263 0
          0.624285279 -0.2844374619 0 0.6391600624 -0.3599563838 0 0.6773450029 -0.2343605579 0 0.6831213194 -0.3187070302 0 0.7537427863 -0.1583794773 0 0.7584330039 -0.23537663 0
          0.8313058604 -0.090825077 0 0.8375102902 -0.1481828399 0 0.8968319773 -0.05067219247 0 0.9028821663 -0.08560913106 0 0.9472450549 -0.03705904927 0 0.95073731 -0.05414665233 0
          0.9849027455 -0.03829805942 0 0.9846567745 -0.04412050411 0 1.0131521 -0.04263443754 0 1.00929054 -0.04250647631 0 1.03434888 -0.04323471487 0 1.02772869 -0.04063169752 0
          1.049642866 -0.03794680239 0 1.04139923 -0.03502118636 0 1.06584228 -0.02340228448 0 1.053890183 -0.02468086708 0 1.069655716 -0.00556363494 0 1.058441798 -0.009892081317 0
          1.068722229 0.01265416712 0 1.059010701 0.005570833437 0 1.063105437 0.03000960861 0 1.055558122 0.0206541051 0 1.053188113 0.04531994486 0 1.048319349 0.03432983363 0
          1.039646107 0.05754180177 0 1.037787693 0.04566604073 0 1.023402284 0.06584227997 0 1.024680867 0.05389018262 0 1.005563635 0.06965571561 0 1.009892081 0.05844179763 0
          0.9873458329 0.06872222934 0 0.9944291666 0.05901070071 0 0.9699903914 0.06310543671 0 0.9793458949 0.05555812205 0 0.9546800551 0.05318811285 0 0.9656701664 0.04831934919 0
          0.9424581982 0.039646107 0 0.9543339593 0.03778769253 0 0.93415772 0.02340228448 0 0.9461098174 0.02468086708 0 0.9303442844 0.00556363494 0 0.9415582024 0.009892081317 0
          0.9312777707 -0.01265416712 0 0.9409892993 -0.005570833437 0 0.9368945633 -0.03000960861 0 0.944441878 -0.0206541051 0 0.9468118871 -0.04531994486 0 0.9516806508 -0.03432983363 0
          0.960353893 -0.05754180177 0 0.9622123075 -0.04566604073 0 0.9765977155 -0.06584227997 0 0.9753191329 -0.05389018262 0 0.9944363651 -0.06965571561 0 0.9901079187 -0.05844179763 0
          1.012654167 -0.06872222934 0 1.005570833 -0.05901070071 0 1.030009609 -0.06310543671 0 1.020654105 -0.05555812205 0 1.045319945 -0.05318811285 0 1.034329834 -0.04831934919 0
          1.057541802 -0.039646107 0 1.045666041 -0.03778769253 0 1.06584228 -0.02340228448 0 1.053890183 -0.02468086708 0 1.069655716 -0.00556363494 0 1.058441798 -0.009892081317 0
          1.068722229 0.01265416712 0 1.059010701 0.005570833437 0 1.063105437 0.03000960861 0 1.055558122 0.0206541051 0 1.044329388 0.04991990602 0 1.044453433 0.03597192997 0
          1.026802187 0.07141997532 0 1.032019895 0.05184666645 0 1.003043938 0.09055631764 0 1.015008861 0.06554184405 0 0.9714676042 0.1024279901 0 0.9923464245 0.07358411458 0
          0.929235552 0.09757138158 0 0.9614571874 0.06826041662 0 0.873014022 0.06341443241 0 0.9180120865 0.03726015477 0 0.8019308111 -0.008177760908 0 0.8576420344 -0.03077973604 0
          0.7226261771 -0.1095127664 0 0.7812987256 -0.1341091876 0 0.6524917192 -0.2122374804 0 0.7023539356 -0.2485883129 0 0.6146600225 -0.2786796522 0 0.6468141764 -0.3347285937 0
          0.6988648074 -0.1603779335 0 0.7607311534 -0.1609910595 0 0.844984949 -0.1399511465 0 0.9144252085 -0.1022960215 0 0.9586556924 -0.0680715774 0 0.9846399967 -0.0482669396 0
          1.001223208 -0.0396746541 0 1.013432974 -0.03513781414 0 1.023131581 -0.03021592248 0 1.030673221 -0.02347143915 0 1.036128876 -0.01496507047 0 1.03877106 -0.00510430685 0
          1.03877106 0.00510430685 0 1.036128876 0.01496507047 0 1.031024569 0.02380598928 0 1.023805989 0.03102456925 0 1.01496507 0.0361288761 0 1.005104307 0.03877105975 0
          0.9948956931 0.03877105975 0 0.9850349295 0.0361288761 0 0.9761940107 0.03102456925 0 0.9689754307 0.02380598928 0 0.9638711239 0.01496507047 0 0.9612289402 0.00510430685 0
          0.9612289402 -0.00510430685 0 0.9638711239 -0.01496507047 0 0.9689754307 -0.02380598928 0 0.9761940107 -0.03102456925 0 0.9850349295 -0.0361288761 0 0.9948956931 -0.03877105975 0
          1.005104307 -0.03877105975 0 1.01496507 -0.0361288761 0 1.023805989 -0.03102456925 0 1.031024569 -0.02380598928 0 1.036128876 -0.01496507047 0 1.03877106 -0.00510430685 0
          1.03877106 0.00510430685 0 1.036128876 0.01496507047 0 1.030673221 0.0241405394 0 1.023131581 0.03183321602 0 1.013432974 0.03711993806 0 1.001223208 0.0378674654 0
          0.9846399967 0.0292751799 0 0.9586556924 0.004186174805 0 0.9144252085 -0.04024688303 0 0.844984949 -0.09233916791 0 0.7607311534 -0.1310609186 0 0.6988648074 -0.1501693198 0
          0.7615348892 0.2592738223 0 0.8374605833 0.1592088695 0 0.919171923 0.05141233581 0 0.9660337617 -0.005581414233 0 0.9861555888 -0.02205648002 0 0.9959096593 -0.02440805002 0
          1.002910024 -0.02382541917 0 1.009062838 -0.02200697989 0 1.01447225 -0.01886839423 0 1.018870756 -0.01447845609 0 1.021977864 -0.009103467985 0 1.02358693 -0.003105278278 0
          1.02358693 0.003105278278 0 1.02197952 0.00910421525 0 1.018874242 0.014482715 0 1.014482715 0.01887424165 0 1.009104215 0.02197951993 0 1.003105278 0.02358693025 0
          0.9968947217 0.02358693025 0 0.9908957847 0.02197951993 0 0.985517285 0.01887424165 0 0.9811257583 0.014482715 0 0.9780204801 0.00910421525 0 0.9764130698 0.003105278278 0
          0.9764130698 -0.003105278278 0 0.9780204801 -0.00910421525 0 0.9811257583 -0.014482715 0 0.985517285 -0.01887424165 0 0.9908957847 -0.02197951993 0 0.9968947217 -0.02358693025 0
          1.003105278 -0.02358693025 0 1.009104215 -0.02197951993 0 1.014482715 -0.01887424165 0 1.018874242 -0.014482715 0 1.02197952 -0.00910421525 0 1.02358693 -0.003105278278 0
          1.02358693 0.003105278278 0 1.021977864 0.009104962516 0 1.018870756 0.0144869739 0 1.01447225 0.01888008908 0 1.009062838 0.02195205997 0 1.002910024 0.02334844133 0
          0.9959096593 0.02276581048 0 0.9861555888 0.02190255985 0 0.9660337617 0.03216706908 0 0.919171923 0.08037776581 0 0.8374605833 0.1774173 0 0.7615348892 0.2654843788 0
          0.8206041789 -0.1707146811 0 0.9048877284 -0.07643383091 0 0.9674655918 -0.0185242607 0 0.9880911051 -0.01070394299 0 0.9941636589 -0.01306873017 0 0.9980888808 -0.01432428557 0
          1.001887645 -0.01434923727 0 1.005538567 -0.01337168057 0 1.008810756 -0.0114824244 0 1.011482414 -0.008810765863 0 1.013371556 -0.005538679432 0 1.014349447 -0.001889140576 0
          1.014349447 0.001889140576 0 1.013371556 0.005538679919 0 1.011482416 0.008810767379 0 1.008810767 0.0114824156 0 1.00553868 0.01337155618 0 1.001889141 0.0143494473 0
          0.9981108594 0.0143494473 0 0.9944613201 0.01337155618 0 0.9911892326 0.0114824156 0 0.9885175844 0.008810767379 0 0.9866284438 0.005538679919 0 0.9856505527 0.001889140576 0
          0.9856505527 -0.001889140576 0 0.9866284438 -0.005538679919 0 0.9885175844 -0.008810767379 0 0.9911892326 -0.0114824156 0 0.9944613201 -0.01337155618 0 0.9981108594 -0.0143494473 0
          1.001889141 -0.0143494473 0 1.00553868 -0.01337155618 0 1.008810767 -0.0114824156 0 1.011482416 -0.008810767379 0 1.013371556 -0.005538679919 0 1.014349447 -0.001889140576 0
          1.014349447 0.001889140576 0 1.013371556 0.005538680406 0 1.011482414 0.008810768895 0 1.008810756 0.01148240681 0 1.005538567 0.01337143178 0 1.001887645 0.01434965732 0
          0.9980888808 0.01437460903 0 0.9941636589 0.01367438218 0 0.9880911051 0.01226088821 0 0.9674655918 -0.0009027259404 0 0.9048877284 -0.06535647108 0 0.8206041789 -0.1669364 0
          0.8751027325 0.1307264287 0 0.9555006219 0.03229547598 0 0.9891531043 -0.003452285063 0 0.9944774173 -0.007052746806 0 0.9966270944 -0.008138788865 0 0.9988506691 -0.008729722693 0
          1.001149285 -0.008729691593 0 1.003369535 -0.008134777969 0 1.005360157 -0.006985492212 0 1.006985492 -0.005360156698 0 1.008134778 -0.003369535364 0 1.008729692 -0.001149285763 0
          1.008729692 0.001149285763 0 1.008134778 0.003369535364 0 1.006985492 0.005360156698 0 1.005360157 0.006985492212 0 1.003369535 0.008134777975 0 1.001149286 0.008729692062 0
          0.9988507142 0.008729692062 0 0.9966304646 0.008134777975 0 0.9946398433 0.006985492212 0 0.9930145078 0.005360156698 0 0.991865222 0.003369535364 0 0.9912703079 0.001149285763 0
          0.9912703079 -0.001149285763 0 0.991865222 -0.003369535364 0 0.9930145078 -0.005360156698 0 0.9946398433 -0.006985492212 0 0.9966304646 -0.008134777975 0 0.9988507142 -0.008729692062 0
          1.001149286 -0.008729692062 0 1.003369535 -0.008134777975 0 1.005360157 -0.006985492212 0 1.006985492 -0.005360156698 0 1.008134778 -0.003369535364 0 1.008729692 -0.001149285763 0
          1.008729692 0.001149285763 0 1.008134778 0.003369535364 0 1.006985492 0.005360156698 0 1.005360157 0.006985492211 0 1.003369535 0.008134777981 0 1.001149285 0.008729692532 0
          0.9988506691 0.008729661432 0 0.9966270944 0.008130767085 0 0.9944774173 0.006918237617 0 0.9891531043 0.007268028334 0 0.9555006219 0.03903454671 0 0.8751027325 0.1330250002 0
        </DataArray>
        <DataArray type="Float64" Name="pressure" format="ascii">
          71.92494897 71.92304502 71.91405566 71.89718352 71.84317974 71.81011456
          71.77588296 71.74281778 71.71317235 71.68896696 71.67185116 71.66299137
          71.66299137 71.67185116 71.68896696 71.71317235 71.74281778 71.77588296
          71.81011456 71.84317974 71.87282517 71.89703056 71.91414636 71.92300615
          71.92300615 71.91414636 71.89703056 71.87282517 71.84317974 71.81011456
          71.77588296 71.74281778 71.71317235 71.68896696 71.67185116 71.66299137
          71.66299137 71.67185116 71.68896696 71.71317235 71.74281778 71.77588296
          71.81011456 71.84317974 71.89399188 71.9047609 71.914156 71.92137869
          71.8907528 71.91086835 71.9025937 71.85854423 71.77729952 71.66479488
          71.26366084 71.14646799 71.04139575 70.95560463 70.89494114 70.86353941
          70.86353941 70.89494114 70.95560463 71.04139575 71.14646799 71.26366084
          71.38498781 71.50218066 71.6072529 71.69304402 71.75370751 71.78510924
          71.78510924 71.75370751 71.69304402 71.6072529 71.50218066 71.38498781
          71.26366084 71.14646799 71.04139575 70.95560463 70.89494114 70.86353941
          70.86353941 70.89494114 70.95560463 71.04139575 71.14646799 71.26366084
          71.61257153 71.66448252 71.71190676 71.75866086 71.80634068 71.85261102
          71.81046761 71.76935119 71.83348973 71.79475117 71.83526822 71.80429968
          71.80875978 71.79073482 71.75194855 71.75028124 71.66922807 71.6846107
          71.57068467 71.60100465 71.24713296 71.51060968 71.1791354 71.24145289
          71.12485465 71.19110555 71.08798986 71.15457978 71.07105331 71.13436476
          71.07519918 71.1318381 71.10014496 71.14717199 71.14419062 71.17932145
          71.20433453 71.22609555 71.27647797 71.28430671 71.3557045 71.34998794
          71.43661495 71.41866316 71.51369541 71.48565229 71.58169297 71.54639011
          71.63597372 71.59673745 71.67283851 71.63326322 71.68977506 71.65347824
          71.68562919 71.6560049 71.66068341 71.64067101 71.61663775 71.60852155
          71.55649384 71.56174745 71.4843504 71.50353629 71.40512387 71.43785506
          71.32421342 71.36917983 71.24713296 71.30219071 71.1791354 71.24145289
          71.12485465 71.19110555 71.08798986 71.15457978 71.07105331 71.13436476
          71.07519918 71.1318381 71.10014496 71.14717199 71.14419062 71.17932145
          71.20433453 71.22609555 71.50029743 71.47709102 71.5510721 71.5255409
          71.59423435 71.56794928 71.63106108 71.60421641 71.66488432 71.63652333
          71.69940747 71.66806152 71.73667508 71.70124201 71.7754245 71.73608329
          71.74774469 71.75362244 71.744022 71.71742826 71.6739622 71.6163148
          71.55003978 71.48263539 71.42178331 71.27570021 71.25303052 71.24129583
          71.24129583 71.25303052 71.27570021 71.30775998 71.34702503 71.39081951
          71.43615888 71.47995335 71.5192184 71.55127818 71.57394787 71.58568256
          71.58568256 71.57394787 71.55127818 71.5192184 71.47995335 71.43615888
          71.39081951 71.34702503 71.30775998 71.27570021 71.25303052 71.24129583
          71.24129583 71.25303052 71.27570021 71.41863554 71.45994095 71.50238914
          71.54416307 71.58491292 71.62498213 71.66394285 71.69966495 71.72876552
          71.77411089 71.75313653 71.71259255 71.65888618 71.59998455 71.54208684
          71.48868071 71.44185778 71.40326914 71.33916348 71.32537205 71.31823308
          71.31823308 71.32537205 71.33916348 71.3586675 71.38255496 71.40919796
          71.43678081 71.46342381 71.48731127 71.50681529 71.52060672 71.52774569
          71.52774569 71.52060672 71.50681529 71.48731127 71.46342381 71.43678081
          71.40919796 71.38255496 71.3586675 71.33916348 71.32537205 71.31823308
          71.31823308 71.32537205 71.33916348 71.39912721 71.43079395 71.46934444
          71.51588183 71.57151173 71.63427951 71.69618699 71.74515876 71.77197309
          71.69325304 71.65952434 71.67171087 71.64445697 71.63196531 71.61326004
          71.57891211 71.56688061 71.5251338 71.51730886 71.47924814 71.47515478
          71.44282135 71.44282364 71.41442399 71.41833433 71.39269801 71.39963283
          71.37697638 71.38570201 71.36028771 71.3729246 71.35647428 71.36837298
          71.35740776 71.36780408 71.36302456 71.37125666 71.37294188 71.37849543
          71.38648389 71.38902709 71.40272771 71.40213391 71.42056636 71.4169227
          71.43878416 71.43238561 71.4561396 71.44746889 71.47144994 71.46114461
          71.48367179 71.47248082 71.49197227 71.48070496 71.49578571 71.48525658
          71.49485222 71.48582548 71.48923543 71.4823729 71.47931811 71.47513413
          71.4657761 71.46460247 71.44953228 71.45149565 71.43169363 71.43670686
          71.41347583 71.42124395 71.39612038 71.40616067 71.38081005 71.39248495
          71.36858819 71.38114874 71.36028771 71.3729246 71.35647428 71.36837298
          71.35740776 71.36780408 71.36302456 71.37125666 71.3820135 71.38248295
          71.39885966 71.39469486 71.42142263 71.41130207 71.45145103 71.4334884
          71.49207199 71.46404172 71.54548399 71.50650417 71.60699148 71.5603228
          71.66148061 71.61436494 71.69317633 71.65102283 71.70083678 71.66336552
          71.67150488 71.62625642 71.56177848 71.50525246 71.46674419 71.44264862
          71.42656043 71.4144309 71.40471581 71.39715233 71.39167793 71.38903574
          71.38903574 71.39167793 71.39678223 71.40400081 71.41284173 71.4227025
          71.43291111 71.44277187 71.45161279 71.45883137 71.46393568 71.46657786
          71.46657786 71.46393568 71.45883137 71.45161279 71.44277187 71.43291111
          71.4227025 71.41284173 71.40400081 71.39678223 71.39167793 71.38903574
          71.38903574 71.39167793 71.3971364 71.40466564 71.41435929 71.4266305
          71.44338495 71.4690523 71.50967479 71.56730839 71.630627 71.67309001
          71.60499228 71.56522758 71.5048113 71.46194524 71.44207676 71.43235553
          71.42537334 71.41922537 71.41381645 71.40941781 71.40631061 71.40470151
          71.40470151 71.40630892 71.40941419 71.41380572 71.41918422 71.42518316
          71.43139371 71.43739265 71.44277115 71.44716268 71.45026796 71.45187537
          71.45187537 71.45026796 71.44716268 71.44277115 71.43739265 71.43139371
          71.42518316 71.41918422 71.41380572 71.40941419 71.40630892 71.40470151
          71.40470151 71.4063106 71.40941768 71.41381623 71.41922658 71.4253846
          71.43239426 71.44208014 71.46144345 71.50290262 71.56216287 71.60336276
          71.57730407 71.51623946 71.46040502 71.44035213 71.43430534 71.43037813
          71.42657905 71.42292812 71.41965593 71.41698428 71.41509514 71.41411724
          71.41411724 71.41509513 71.41698428 71.41965592 71.42292801 71.42657755
          71.43035583 71.43400537 71.43727746 71.43994911 71.44183825 71.44281614
          71.44281614 71.44183825 71.43994911 71.43727746 71.43400537 71.43035583
          71.42657755 71.42292801 71.41965592 71.41698428 71.41509513 71.41411724
          71.41411724 71.41509514 71.41698428 71.41965594 71.42292813 71.42657905
          71.43037741 71.43429724 71.44033425 71.46057619 71.51702479 71.57794194
          71.53712433 71.47155921 71.43935354 71.43405389 71.43190553 71.42968199
          71.42738338 71.42516313 71.42317251 71.42154717 71.42039789 71.41980297
          71.41980297 71.42039789 71.42154717 71.42317251 71.42516313 71.42738338
          71.42968195 71.4319022 71.43389282 71.43551816 71.43666744 71.43726236
          71.43726236 71.43666744 71.43551816 71.43389282 71.4319022 71.42968195
          71.42738338 71.42516313 71.42317251 71.42154717 71.42039789 71.41980297
          71.41980297 71.42039789 71.42154717 71.42317251 71.42516313 71.42738338
          71.429682 71.43190559 71.43405483 71.43933308 71.47131886 71.53682121
        </DataArray>
        <DataArray type="Float64" Name="mach" format="ascii">
          0.008503292742 0.01050288165 0.01702216369 0.02503170914 0.04129179122 0.04863675667
          0.05522264123 0.06091318674 0.06559794092 0.06918894211 0.07161996834 0.07284662664
          0.07284662664 0.07161996834 0.06918894211 0.06559794092 0.06091318674 0.05522264123
          0.04863675667 0.04129179122 0.03336093329 0.02509263412 0.01696889846 0.01053975832
          0.01053975832 0.01696889846 0.02509263412 0.03336093329 0.04129179122 0.04863675667
          0.05522264123 0.06091318674 0.06559794092 0.06918894211 0.07161996834 0.07284662664
          0.07284662664 0.07161996834 0.06918894211 0.06559794092 0.06091318674 0.05522264123
          0.04863675667 0.04129179122 0.026273728 0.02180154738 0.0169632257 0.01198217522
          0.02747690084 0.01879844257 0.02277221178 0.03739176988 0.05496572717 0.07259859979
          0.1153559572 0.1251389807 0.1333082486 0.1396291803 0.1439338214 0.1461130685
          0.1461130685 0.1439338214 0.1396291803 0.1333082486 0.1251389807 0.1153559572
          0.104276404 0.09233258412 0.08013603975 0.06859720638 0.05909943611 0.0535272356
          0.0535272356 0.05909943611 0.06859720638 0.08013603975 0.09233258412 0.104276404
          0.1153559572 0.1251389807 0.1333082486 0.1396291803 0.1439338214 0.1461130685
          0.1461130685 0.1439338214 0.1396291803 0.1333082486 0.1251389807 0.1153559572
          0.07946920215 0.07264161749 0.06579053666 0.05825579668 0.04940580326 0.03894407636
          0.04856418843 0.05639217392 0.04357252623 0.05169620771 0.04316294233 0.04981678514
          0.04891422342 0.05246667141 0.05939614093 0.05967602944 0.07198531042 0.06981567863
          0.08457938031 0.08091244632 0.1167847448 0.0914138604 0.1224896289 0.1172717954
          0.126861804 0.1215045574 0.129748236 0.1244863056 0.1310533018 0.1261066055
          0.1307350241 0.1263076827 0.1288035717 0.1250824703 0.1253216141 0.1224743781
          0.1204066291 0.1185787383 0.114235784 0.1135462006 0.1070545667 0.1075886137
          0.09919079138 0.1009879672 0.09107522889 0.09410824233 0.08326659474 0.08740725329
          0.07646638708 0.08143845576 0.07148196947 0.07682016251 0.06907205679 0.07414124448
          0.06966965172 0.07379960302 0.07316280716 0.07584940704 0.07895561027 0.07997748156
          0.08624238136 0.08563046219 0.09424669409 0.09218544071 0.1023226915 0.09906544765
          0.1099645871 0.1057851179 0.1167847448 0.1119551454 0.1224896289 0.1172717954
          0.126861804 0.1215045574 0.129748236 0.1244863056 0.1310533018 0.1261066055
          0.1307350241 0.1263076827 0.1288035717 0.1250824703 0.1253216141 0.1224743781
          0.1204066291 0.1185787383 0.09253660951 0.09501503311 0.0868693914 0.0897635045
          0.08174544183 0.08490245516 0.07710639574 0.08051428368 0.07258627816 0.07639445305
          0.06766332758 0.07214719533 0.06191292369 0.0673917026 0.05530553575 0.0620083907
          0.06009934137 0.05911381963 0.06071527383 0.06494610724 0.07132459079 0.07899652183
          0.08698826699 0.09442877217 0.1006778899 0.1143040676 0.1162769109 0.1172852345
          0.1172852345 0.1162769109 0.1143040676 0.1114550829 0.1078643802 0.1037143341
          0.09923684847 0.09471282019 0.0904659849 0.08684564083 0.08419235296 0.08278570955
          0.08278570955 0.08419235296 0.08684564083 0.0904659849 0.09471282019 0.09923684847
          0.1037143341 0.1078643802 0.1114550829 0.1143040676 0.1162769109 0.1172852345
          0.1172852345 0.1162769109 0.1143040676 0.1009907079 0.09680616594 0.09230997067
          0.0876619426 0.08287869406 0.07789110462 0.0727158808 0.06762527123 0.06317699421
          0.05554236361 0.05919591273 0.06568624371 0.07340808013 0.08103850084 0.08789872367
          0.09378539433 0.09865979793 0.1025041921 0.1085927171 0.109858874 0.1105086414
          0.1105086414 0.109858874 0.1085927171 0.1067767183 0.1045100007 0.1019228853
          0.09917403554 0.0964450925 0.09393152183 0.09182856097 0.09031219668 0.08951724684
          0.08951724684 0.09031219668 0.09182856097 0.09393152183 0.0964450925 0.09917403554
          0.1019228853 0.1045100007 0.1067767183 0.1085927171 0.109858874 0.1105086414
          0.1105086414 0.109858874 0.1085927171 0.1029083659 0.09977705709 0.0958281923
          0.09083452888 0.0844814546 0.07668770666 0.06813754921 0.0605278549 0.05592564702
          0.06856673299 0.07332108269 0.07163955549 0.07534846845 0.07698899306 0.07938247142
          0.08360015862 0.08502834448 0.08980890168 0.09067708682 0.09478736669 0.09521892617
          0.09856189889 0.09856166626 0.1014077449 0.1010205912 0.1035326367 0.1028591114
          0.1050436999 0.1042077297 0.106624484 0.1054296517 0.1069824514 0.1058615522
          0.1068949348 0.1059154124 0.1063668407 0.1055881249 0.1054280085 0.1048986396
          0.1041324962 0.1038874117 0.1025571151 0.1026151256 0.1007989424 0.1011605232
          0.09897143657 0.09961709142 0.09719873912 0.09808834621 0.09560785731 0.09668153189
          0.09431878145 0.09549979401 0.09343323782 0.09463330431 0.09302359202 0.09415034622
          0.09312403412 0.09408980859 0.09372613833 0.09445660891 0.09477997391 0.09522109867
          0.09620046568 0.09632259429 0.09787737177 0.09767620428 0.09968666874 0.09918150656
          0.1015014 0.1007315594 0.1032007926 0.1022210931 0.1046772252 0.1035532606
          0.1058411705 0.1046447872 0.106624484 0.1054296517 0.1069824514 0.1058615522
          0.1068949348 0.1059154124 0.1063668407 0.1055881249 0.1045619207 0.104516907
          0.1029344203 0.1033391442 0.1007137823 0.1017157902 0.09768078043 0.09950610909
          0.09342254913 0.09638089197 0.08751096774 0.09186248155 0.08016867385 0.0857968282
          0.07305374838 0.07924309004 0.06857791784 0.07447175694 0.06745179536 0.07279524092
          0.07166830468 0.07772726373 0.08562683459 0.09199882786 0.0960996093 0.09857945547
          0.1002013007 0.1014070623 0.1023626509 0.1031005242 0.1036313426 0.1038865764
          0.1038865764 0.1036313426 0.1031364954 0.1024326297 0.1015639846 0.1005863617
          0.09956422188 0.09856692785 0.09766418845 0.09692091761 0.09639191287 0.0961169448
          0.0961169448 0.09639191287 0.09692091761 0.09766418845 0.09856692785 0.09956422188
          0.1005863617 0.1015639846 0.1024326297 0.1031364954 0.1036313426 0.1038865764
          0.1038865764 0.1036313426 0.1031020726 0.1023675633 0.1014141388 0.1001942938
          0.0985045922 0.09585872422 0.09151621061 0.08497797489 0.07716269276 0.07144677606
          0.08041780507 0.08522270561 0.09204683428 0.0965985421 0.09863755764 0.0996201175
          0.1003199403 0.1009321655 0.1014677649 0.1019012663 0.1022063919 0.1023640516
          0.1023640516 0.1022065585 0.1019016216 0.1014688243 0.1009362508 0.100338935
          0.09971680923 0.09911220389 0.09856700144 0.09811961653 0.09780204201 0.09763725073
          0.09763725073 0.09780204201 0.09811961653 0.09856700144 0.09911220389 0.09971680923
          0.100338935 0.1009362508 0.1014688243 0.1019016216 0.1022065585 0.1023640516
          0.1023640516 0.1022063932 0.1019012784 0.1014677867 0.1009320457 0.1003188165
          0.09961622145 0.09863721401 0.09665056347 0.09225424948 0.08558189088 0.08062030189
          0.08379244119 0.09079509749 0.0967581328 0.09881258011 0.0994238151 0.09981880577
          0.1001994389 0.1005638822 0.1008894092 0.1011544231 0.1013414008 0.1014380533
          0.1014380533 0.1013414008 0.1011544233 0.1008894103 0.1005638934 0.100199589
          0.09982104399 0.0994540405 0.09912384807 0.09885343564 0.09866178136 0.09856242856
          0.09856242856 0.09866178136 0.09885343564 0.09912384807 0.0994540405 0.09982104399
          0.100199589 0.1005638934 0.1008894103 0.1011544233 0.1013414008 0.1014380533
          0.1014380533 0.1013414008 0.1011544231 0.1008894091 0.1005638819 0.1001994395
          0.09981887826 0.09942463124 0.09881439277 0.09674041017 0.09070844942 0.08371622022
          0.08846211514 0.09559640838 0.09891378002 0.09944915215 0.09966536801 0.09988865976
          0.1001189723 0.1003409351 0.1005395281 0.1007013906 0.100815689 0.1008748038
          0.1008748038 0.100815689 0.1007013906 0.1005395281 0.1003409351 0.1001189724
          0.09988866426 0.09966570241 0.09946537875 0.09930151785 0.09918548861 0.09912537453
          0.09912537453 0.09918548861 0.09930151785 0.09946537875 0.09966570241 0.09988866426
          0.1001189724 0.1003409351 0.1005395281 0.1007013906 0.100815689 0.1008748038
          0.1008748038 0.100815689 0.1007013906 0.1005395281 0.1003409351 0.1001189723
          0.09988865971 0.09966536145 0.09944905749 0.09891585171 0.09562158875 0.08849641339
        </DataArray>
        <DataArray type="Float64" Name="temperature" format="ascii">
          71.57004299 71.56950168 71.5669458 71.56214806 71.54678619 71.53737642
          71.52763145 71.51821538 71.50977053 71.50287349 71.49799554 71.4954702
          71.4954702 71.49799554 71.50287349 71.50977053 71.51821538 71.52763145
          71.53737642 71.54678619 71.55522012 71.56210456 71.56697159 71.56949063
          71.56949063 71.56697159 71.56210456 71.55522012 71.54678619 71.53737642
          71.52763145 71.51821538 71.50977053 71.50287349 71.49799554 71.4954702
          71.4954702 71.49799554 71.50287349 71.50977053 71.51821538 71.52763145
          71.53737642 71.54678619 71.5612404 71.56430285 71.56697433 71.56902792
          71.56031921 71.56603953 71.56368658 71.5511576 71.52803478 71.49598428
          71.38141522 71.3478565 71.31773499 71.29311727 71.27569709 71.26667555
          71.26667555 71.27569709 71.29311727 71.31773499 71.3478565 71.38141522
          71.41611625 71.4495949 71.47957773 71.50403531 71.52131682 71.53025829
          71.53025829 71.52131682 71.50403531 71.47957773 71.4495949 71.41611625
          71.38141522 71.3478565 71.31773499 71.29311727 71.27569709 71.26667555
          71.26667555 71.27569709 71.29311727 71.31773499 71.3478565 71.38141522
          71.48109459 71.49589524 71.50940996 71.52272745 71.53630224 71.5494696
          71.53747691 71.52577162 71.5440289 71.53300322 71.54453499 71.53572129
          71.53699081 71.53185985 71.52081589 71.52034104 71.49724789 71.50163205
          71.46914639 71.47779564 71.37668477 71.45200132 71.35721493 71.37505889
          71.34166311 71.36064332 71.33109625 71.35018062 71.32624027 71.34438843
          71.32742904 71.34366439 71.3345808 71.34805821 71.34720397 71.35726822
          71.36443178 71.37066252 71.38508307 71.38732317 71.40774472 71.40611017
          71.43086948 71.42574036 71.45288222 71.44487559 71.47228699 71.4622141
          71.48776788 71.47657852 71.49827695 71.48699504 71.50310377 71.49275839
          71.5019223 71.49347866 71.49481231 71.48910715 71.48225421 71.47993956
          71.46509734 71.46659641 71.44450383 71.44998194 71.42187134 71.43122377
          71.39873928 71.41159736 71.37668477 71.39243981 71.35721493 71.37505889
          71.34166311 71.36064332 71.33109625 71.35018062 71.32624027 71.34438843
          71.32742904 71.34366439 71.3345808 71.34805821 71.34720397 71.35726822
          71.36443178 71.37066252 71.44905723 71.44243081 71.4635502 71.45626357
          71.47586454 71.46836595 71.48636714 71.4787117 71.49600977 71.48792458
          71.50584859 71.49691539 71.51646577 71.50637133 71.52750091 71.5162972
          71.51961863 71.5212926 71.51855836 71.51098303 71.49859722 71.48216211
          71.46325561 71.4440141 71.4266319 71.38486051 71.3783728 71.37501394
          71.37501394 71.3783728 71.38486051 71.394033 71.40526295 71.41778313
          71.43073919 71.44324821 71.45445883 71.46360901 71.4700774 71.47342511
          71.47342511 71.4700774 71.46360901 71.45445883 71.44324821 71.43073919
          71.41778313 71.40526295 71.394033 71.38486051 71.3783728 71.37501394
          71.37501394 71.3783728 71.38486051 71.42573246 71.43753274 71.44965442
          71.46157854 71.47320555 71.48463375 71.49574141 71.50592196 71.51421274
          71.52712689 71.52115421 71.50960534 71.4943 71.47750469 71.46098601
          71.44574035 71.43236728 71.42134129 71.40301487 71.39907066 71.39702878
          71.39702878 71.39907066 71.40301487 71.40859189 71.41542084 71.42303561
          71.43091687 71.43852752 71.44534931 71.45091808 71.45485513 71.45689289
          71.45689289 71.45485513 71.45091808 71.44534931 71.43852752 71.43091687
          71.42303561 71.41542084 71.40859189 71.40301487 71.39907066 71.39702878
          71.39702878 71.39907066 71.40301487 71.42015756 71.42920643 71.44021849
          71.45350638 71.46938236 71.48728481 71.50493092 71.51888213 71.52651819
          71.50409488 71.49448192 71.49795555 71.49018655 71.48662496 71.48129095
          71.47149366 71.46806104 71.45614737 71.45391374 71.44304682 71.44187786
          71.43264254 71.4326432 71.42452902 71.42564639 71.41832004 71.42030206
          71.41382618 71.4163204 71.40905513 71.41266791 71.40796481 71.41136669
          71.40823171 71.41120405 71.40983761 71.41219108 71.41267285 71.41426042
          71.41654388 71.41727081 71.42118655 71.42101685 71.42628417 71.42524303
          71.4314892 71.42966117 71.43644696 71.43397019 71.44081981 71.43787654
          71.44431005 71.44111422 71.44668022 71.44346284 71.44776906 71.4447626
          71.44750253 71.44492505 71.44589875 71.44393914 71.4430668 71.44187196
          71.43919936 71.43886416 71.43455961 71.43512045 71.42946347 71.43089574
          71.42425807 71.42647779 71.4192982 71.42216764 71.41492206 71.41825914
          71.41142822 71.41501887 71.40905513 71.41266791 71.40796481 71.41136669
          71.40823171 71.41120405 71.40983761 71.41219108 71.41526606 71.41540026
          71.42008109 71.41889077 71.42652884 71.4236369 71.43510771 71.42997624
          71.44670869 71.438704 71.46195551 71.45082926 71.47950317 71.46618991
          71.49503956 71.48160605 71.50407302 71.4920584 71.50625586 71.49557685
          71.49789684 71.48499712 71.46660527 71.4504719 71.43947585 71.4325932
          71.42799685 71.42453099 71.42175472 71.41959313 71.41802848 71.41727329
          71.41727329 71.41802848 71.41948736 71.42155039 71.42407688 71.42689454
          71.42981131 71.43262841 71.43515392 71.43721582 71.43867371 71.43942835
          71.43942835 71.43867371 71.43721582 71.43515392 71.43262841 71.42981131
          71.42689454 71.42407688 71.42155039 71.41948736 71.41802848 71.41727329
          71.41727329 71.41802848 71.41958858 71.42174039 71.42451053 71.42801687
          71.43280355 71.44013505 71.45173443 71.46818309 71.48624336 71.49834863
          71.47893298 71.46758939 71.45034595 71.43810521 71.43242983 71.42965258
          71.42765768 71.425901 71.42435541 71.42309844 71.42221049 71.42175064
          71.42175064 71.42221 71.42309741 71.42435234 71.42588924 71.42760333
          71.42937778 71.43109167 71.4326282 71.43388272 71.43476976 71.43522892
          71.43522892 71.43476976 71.43388272 71.4326282 71.43109167 71.42937778
          71.42760333 71.42588924 71.42435234 71.42309741 71.42221 71.42175064
          71.42175064 71.42221048 71.42309841 71.42435535 71.42590135 71.42766089
          71.42966365 71.4324308 71.43796189 71.44980102 71.46671494 71.47846822
          71.4710349 71.45360847 71.43766529 71.43193714 71.43020964 71.42908762
          71.42800217 71.42695901 71.42602403 71.42526062 71.4247208 71.42444136
          71.42444136 71.4247208 71.42526062 71.42602403 71.42695898 71.42800174
          71.42908125 71.43012394 71.43105876 71.43182201 71.4323617 71.43264106
          71.43264106 71.4323617 71.43182201 71.43105876 71.43012394 71.42908125
          71.42800174 71.42695898 71.42602403 71.42526062 71.4247208 71.42444136
          71.42444136 71.4247208 71.42526062 71.42602403 71.42695901 71.42800217
          71.42908742 71.43020733 71.43193204 71.43771418 71.45383265 71.47121688
          71.45956972 71.44085101 71.43165187 71.4301378 71.42952401 71.42888873
          71.42823198 71.42759761 71.42702884 71.42656443 71.42623604 71.42606605
          71.42606605 71.42623604 71.42656443 71.42702884 71.42759761 71.42823198
          71.42888872 71.42952306 71.43009179 71.43055614 71.43088448 71.43105444
          71.43105444 71.43088448 71.43055614 71.43009179 71.42952306 71.42888872
          71.42823198 71.42759761 71.42702884 71.42656443 71.42623604 71.42606605
          71.42606605 71.42623604 71.42656443 71.42702884 71.42759761 71.42823198
          71.42888873 71.42952403 71.43013807 71.43164602 71.44078237 71.45948321
        </DataArray>
        <DataArray type="Float64" Name="total_energy" format="ascii">
          179.8160128 179.8131663 179.7997253 179.7744937 179.6936948 179.6441949
          179.5929258 179.5433815 179.4989426 179.4626455 179.4369724 179.4236808
          179.4236808 179.4369724 179.4626455 179.4989426 179.5433815 179.5929258
          179.6441949 179.6936948 179.7380566 179.7742649 179.7998609 179.8131081
          179.8131081 179.7998609 179.7742649 179.7380566 179.6936948 179.6441949
          179.5929258 179.5433815 179.4989426 179.4626455 179.4369724 179.4236808
          179.4236808 179.4369724 179.4626455 179.4989426 179.5433815 179.5929258
          179.6441949 179.6936948 179.76972 179.785826 179.7998754 179.8106749
          179.7648753 179.7949593 179.782585 179.7166886 179.5950479 179.4263866
          178.8229658 178.6460658 178.4872275 178.3573722 178.2654615 178.217856
          178.217856 178.2654615 178.3573722 178.4872275 178.6460658 178.8229658
          179.0058162 179.1821562 179.3400247 179.46876 179.5597009 179.6067464
          179.6067464 179.5597009 179.46876 179.3400247 179.1821562 179.0058162
          178.8229658 178.6460658 178.4872275 178.3573722 178.2654615 178.217856
          178.217856 178.2654615 178.3573722 178.4872275 178.6460658 178.8229658
          179.34801 179.4259179 179.4970451 179.5671232 179.6385439 179.7078098
          179.6447235 179.5831404 179.6791907 179.6211878 179.6818529 179.6354875
          179.6421663 179.6151725 179.557065 179.5545665 179.4330374 179.4561118
          179.2851069 179.330643 178.798034 179.1948288 178.6954042 178.7894646
          178.6134109 178.7134777 178.5576914 178.6583193 178.5320834 178.6277806
          178.5383525 178.623963 178.5760663 178.6471293 178.6426255 178.6956852
          178.7334485 178.7662918 178.8422963 178.8541018 178.9617107 178.9530986
          179.0835334 179.0565156 179.1994676 179.1573027 179.3016419 179.2486068
          179.3831386 179.3242354 179.4384536 179.3790705 179.4638574 179.4094072
          179.4576394 179.4131984 179.4202181 179.3901883 179.3541145 179.3419295
          179.263788 179.271681 179.1553448 179.1841944 179.0361345 179.0853996
          178.9142607 178.9820089 178.798034 178.8810657 178.6954042 178.7894646
          178.6134109 178.7134777 178.5576914 178.6583193 178.5320834 178.6277806
          178.5383525 178.623963 178.5760663 178.6471293 178.6426255 178.6956852
          178.7334485 178.7662918 179.1793247 179.144427 179.2556419 179.2172735
          179.3204766 179.2809978 179.3757652 179.3354656 179.4265207 179.3839635
          179.478303 179.4312873 179.5341749 179.481054 179.592239 179.5332879
          179.5507652 179.5595734 179.5451862 179.5053234 179.4401392 179.3536297
          179.2540908 179.1527656 179.061212 178.8411234 178.8069309 178.7892276
          178.7892276 178.8069309 178.8411234 178.8894612 178.9486347 179.0145977
          179.0828471 179.1487319 179.20777 179.2559516 179.2900086 179.3076338
          179.3076338 179.2900086 179.2559516 179.20777 179.1487319 179.0828471
          179.0145977 178.9486347 178.8894612 178.8411234 178.8069309 178.7892276
          178.7892276 178.8069309 178.8411234 179.0564741 179.1186299 179.1824697
          179.2452603 179.3064779 179.3666407 179.4251083 179.4786891 179.5223192
          179.5902711 179.5588453 179.4980733 179.4175215 179.3291113 179.2421403
          179.1618569 179.0914228 179.0333422 178.9367896 178.9160069 178.9052475
          178.9052475 178.9160069 178.9367896 178.9661742 179.0021526 179.0422677
          179.083783 179.1238692 179.1597975 179.1891243 179.2098569 179.2205874
          179.2205874 179.2098569 179.1891243 179.1597975 179.1238692 179.083783
          179.0422677 179.0021526 178.9661742 178.9367896 178.9160069 178.9052475
          178.9052475 178.9160069 178.9367896 179.0271063 179.0747734 179.1327753
          179.2027544 179.2863493 179.3805958 179.4734735 179.5468899 179.5870685
          179.4690735 179.418479 179.436762 179.39587 179.3771224 179.3490436
          179.2974651 179.2793925 179.2166616 179.2048996 179.1476713 179.1415148
          179.0928727 179.0928761 179.0501347 179.0560207 179.0174262 179.0278676
          178.9937514 179.0068917 178.9686149 178.9876491 178.9628703 178.9807936
          178.9642766 178.9799367 178.9727375 178.985137 178.9876751 178.9960391
          179.0080691 179.0118987 179.0325271 179.0316331 179.0593803 179.0538959
          179.0867977 179.0771688 179.1129111 179.0998657 179.1359423 179.1204406
          179.1543242 179.1374929 179.1668066 179.1498623 179.1725408 179.1567076
          179.1711372 179.1575631 179.1626911 179.1523708 179.1477765 179.1414837
          179.1274077 179.1256423 179.1029703 179.1059243 179.0761274 179.0836717
          179.0487074 179.0604002 179.0225792 179.0376954 178.9995249 179.0171054
          178.9811178 179.0000349 178.9686149 178.9876491 178.9628703 178.9807936
          178.9642766 178.9799367 178.9727375 178.985137 179.0013372 179.0020441
          179.0267035 179.0204328 179.0606691 179.0454352 179.1058571 179.0788284
          179.1669566 179.1247988 179.2472452 179.1886566 179.3396322 179.2695407
          179.4214141 179.3507024 179.4689585 179.4057228 179.4804463 179.4242421
          179.4364529 179.3685535 179.2717276 179.1867747 179.128864 179.0926128
          179.068402 179.0501451 179.0355202 179.0241329 179.0158902 179.0119117
          179.0119117 179.0158902 179.0235757 179.0344438 179.0477529 179.0625955
          179.0779596 179.0927982 179.1061005 179.1169606 179.1246393 179.1286138
          179.1286138 179.1246393 179.1169606 179.1061005 179.0927982 179.0779596
          179.0625955 179.0477529 179.0344438 179.0235757 179.0158902 179.0119117
          179.0119117 179.0158902 179.024109 179.0354446 179.0500373 179.0685074
          179.0937207 179.1323359 179.1934233 179.2800351 179.3751137 179.4388308
          179.3366305 179.2769092 179.1861114 179.121645 179.0917523 179.0771235
          179.0666154 179.0573619 179.0492201 179.0425987 179.0379211 179.0354986
          179.0354986 179.0379185 179.0425933 179.049204 179.0572999 179.0663291
          179.075676 179.0847037 179.0927971 179.0994049 179.1040771 179.1064956
          179.1064956 179.1040771 179.0994049 179.0927971 179.0847037 179.075676
          179.0663291 179.0572999 179.049204 179.0425933 179.0379185 179.0354986
          179.0354986 179.0379211 179.0425985 179.0492198 179.0573637 179.0666323
          179.0771818 179.0917574 179.1208902 179.1832417 179.2723051 179.3341838
          179.2950498 179.203292 179.119328 179.0891571 179.0800578 179.0741476
          179.06843 179.0629351 179.05801 179.0539886 179.0511449 179.0496729
          179.0496729 179.0511449 179.0539886 179.0580099 179.0629349 179.0684277
          179.0741141 179.0796064 179.0845304 179.0885507 179.0913934 179.0928648
          179.0928648 179.0913934 179.0885507 179.0845304 179.0796064 179.0741141
          179.0684277 179.0629349 179.0580099 179.0539886 179.0511449 179.0496729
          179.0496729 179.0511449 179.0539886 179.05801 179.0629351 179.06843
          179.0741465 179.0800456 179.0891302 179.1195855 179.2044726 179.2960079
          179.2346828 179.1361067 179.0876545 179.0796794 179.0764463 179.0731
          179.0696405 179.066299 179.0633029 179.0608566 179.0591267 179.0582313
          179.0582313 179.0591267 179.0608566 179.0633029 179.066299 179.0696405
          179.0730999 179.0764413 179.079437 179.0818829 179.0836124 179.0845077
          179.0845077 179.0836124 179.0818829 179.079437 179.0764413 179.0730999
          179.0696405 179.066299 179.0633029 179.0608566 179.0591267 179.0582313
          179.0582313 179.0591267 179.0608566 179.0633029 179.066299 179.0696405
          179.0731 179.0764464 179.0796808 179.0876237 179.1357452 179.2342272
        </DataArray>
        <DataArray type="Float64" Name="vorticity" format="ascii">
          -9.612159242 -9.546045762 -9.492667639 -9.458803765 -11.13522281 -11.13522281
          -11.13522281 -11.13522281 -11.13522281 -11.13522281 -11.13522281 -11.13522281
          -11.13522281 -11.13522281 -11.13522281 -11.13522281 -11.13522281 -11.13522281
          -11.13522281 -11.13522281 -11.13522281 -11.13522281 -11.13522281 -11.13522281
          11.13522281 11.13522281 11.13522281 11.13522281 11.13522281 11.13522281
          11.13522281 11.13522281 11.13522281 11.13522281 11.13522281 11.13522281
          11.13522281 11.13522281 11.13522281 11.13522281 11.13522281 11.13522281
          11.13522281 11.13522281 12.34719681 12.43002396 12.50879575 12.58520024
          1.051065046 1.151174149 1.249916781 1.333495606 1.388912548 1.406403267
          -0.0911949227 -0.0911949227 -0.0911949227 -0.0911949227 -0.0911949227 -0.0911949227
          -0.0911949227 -0.0911949227 -0.0911949227 -0.0911949227 -0.0911949227 -0.0911949227
          -0.0911949227 -0.0911949227 -0.0911949227 -0.0911949227 -0.0911949227 -0.0911949227
          0.0911949227 0.0911949227 0.0911949227 0.0911949227 0.0911949227 0.0911949227
          0.0911949227 0.0911949227 0.0911949227 0.0911949227 0.0911949227 0.0911949227
          0.0911949227 0.0911949227 0.0911949227 0.0911949227 0.0911949227 0.0911949227
          0.8744112324 0.9267491572 0.9697113595 1.014359868 1.070406157 1.143530863
          0.5709790711 0.2236329062 0.7179830751 0.380505935 0.8759371654 0.5655968786
          1.020370089 0.7488242453 1.130105709 0.9024085477 1.191233999 1.006800366
          1.19828787 1.053034241 -2.467567566e-06 1.041653432 -2.467567566e-06 -2.996762859e-09
          -2.467567566e-06 -2.996762859e-09 -2.467567566e-06 -2.996762859e-09 -2.467567566e-06 -2.996762859e-09
          -2.467567566e-06 -2.996762859e-09 -2.467567566e-06 -2.996762859e-09 -2.467567566e-06 -2.996762859e-09
          -2.467567566e-06 -2.996762859e-09 -2.467567566e-06 -2.996762859e-09 -2.467567566e-06 -2.996762859e-09
          -2.467567566e-06 -2.996762859e-09 -2.467567566e-06 -2.996762859e-09 -2.467567566e-06 -2.996762859e-09
          -2.467567566e-06 -2.996762859e-09 -2.467567566e-06 -2.996762859e-09 -2.467567566e-06 -2.996762859e-09
          2.467567566e-06 2.996762859e-09 2.467567566e-06 2.996762859e-09 2.467567566e-06 2.996762859e-09
          2.467567566e-06 2.996762859e-09 2.467567566e-06 2.996762859e-09 2.467567566e-06 2.996762859e-09
          2.467567566e-06 2.996762859e-09 2.467567566e-06 2.996762859e-09 2.467567566e-06 2.996762859e-09
          2.467567566e-06 2.996762859e-09 2.467567566e-06 2.996762859e-09 2.467567566e-06 2.996762859e-09
          2.467567566e-06 2.996762859e-09 2.467567566e-06 2.996762859e-09 2.467567566e-06 2.996762859e-09
          2.467567566e-06 2.996762859e-09 0.4248073829 0.3186619225 0.4517059924 0.3281090201
          0.4446398629 0.2959338941 0.4156991019 0.2329146913 0.3829901483 0.1584947634
          0.3676621707 0.09851077922 0.3886327325 0.07921854488 0.4567719521 0.1193663439
          -0.5736815919 -0.3556300877 -0.09233129986 0.1693132826 0.3902889372 0.5470982236
          0.6330505913 0.6544858116 0.624639099 -9.75320561e-21 -9.75320561e-21 -9.75320561e-21
          -9.75320561e-21 -9.75320561e-21 -9.75320561e-21 -9.75320561e-21 -9.75320561e-21 -9.75320561e-21
          -9.75320561e-21 -9.75320561e-21 -9.75320561e-21 -9.75320561e-21 -9.75320561e-21 -9.75320561e-21
          9.75320561e-21 9.75320561e-21 9.75320561e-21 9.75320561e-21 9.75320561e-21 9.75320561e-21
          9.75320561e-21 9.75320561e-21 9.75320561e-21 9.75320561e-21 9.75320561e-21 9.75320561e-21
          9.75320561e-21 9.75320561e-21 9.75320561e-21 0.1132776768 0.09430533428 0.01873250785
          -0.113701321 -0.2898962058 -0.4797921359 -0.6398762964 -0.7250453112 -0.7045172703
          -1.119686192 -0.8712863699 -0.5828680766 -0.3038138786 -0.0701895517 0.0983527189
          0.1990444133 0.2422317177 0.2443037384 -2.779680403e-46 -2.779680403e-46 -2.779680403e-46
          -2.779680403e-46 -2.779680403e-46 -2.779680403e-46 -2.779680403e-46 -2.779680403e-46 -2.779680403e-46
          -2.779680403e-46 -2.779680403e-46 -2.779680403e-46 -2.779680403e-46 -2.779680403e-46 -2.779680403e-46
          2.779680403e-46 2.779680403e-46 2.779680403e-46 2.779680403e-46 2.779680403e-46 2.779680403e-46
          2.779680403e-46 2.779680403e-46 2.779680403e-46 2.779680403e-46 2.779680403e-46 2.779680403e-46
          2.779680403e-46 2.779680403e-46 2.779680403e-46 -0.007319919666 -0.06847476241 -0.191115173
          -0.385117365 -0.6411958603 -0.9205326328 -1.158583634 -1.288620334 -1.273095628
          -0.5535374467 -0.1392496113 -0.4017357335 -0.04218888388 -0.2828450421 -0.03568399212
          -0.1797164743 -0.05419385246 -0.08549134669 -0.04955761558 -0.009487805084 -0.02198685966
          0.03921014985 0.00753121634 0.06145166204 0.0257579133 0.06504054554 0.0318401655
          0.05841950307 0.03025519056 -1.468150882e-83 -2.597514529e-104 -1.468150882e-83 -2.597514529e-104
          -1.468150882e-83 -2.597514529e-104 -1.468150882e-83 -2.597514529e-104 -1.468150882e-83 -2.597514529e-104
          -1.468150882e-83 -2.597514529e-104 -1.468150882e-83 -2.597514529e-104 -1.468150882e-83 -2.597514529e-104
          -1.468150882e-83 -2.597514529e-104 -1.468150882e-83 -2.597514529e-104 -1.468150882e-83 -2.597514529e-104
          -1.468150882e-83 -2.597514529e-104 -1.468150882e-83 -2.597514529e-104 -1.468150882e-83 -2.597514529e-104
          1.468150882e-83 2.597514529e-104 1.468150882e-83 2.597514529e-104 1.468150882e-83 2.597514529e-104
          1.468150882e-83 2.597514529e-104 1.468150882e-83 2.597514529e-104 1.468150882e-83 2.597514529e-104
          1.468150882e-83 2.597514529e-104 1.468150882e-83 2.597514529e-104 1.468150882e-83 2.597514529e-104
          1.468150882e-83 2.597514529e-104 1.468150882e-83 2.597514529e-104 1.468150882e-83 2.597514529e-104
          1.468150882e-83 2.597514529e-104 1.468150882e-83 2.597514529e-104 -0.008098409354 -0.004565554945
          -0.0303080577 -0.01568044245 -0.0843422521 -0.04575952016 -0.1870060881 -0.1083182635
          -0.3488628012 -0.2156142145 -0.5562996267 -0.362811323 -0.7573661044 -0.5083076297
          -0.8754853793 -0.5764340821 -0.8590449917 -0.5076578683 -0.7269701344 -0.3261814563
          0.9365288454 0.8326624 0.5309870344 0.2424277318 0.07782824094 0.01699985151
          0.003321618704 0.002372281482 0.002740106605 0.002554629914 -3.665017244e-178 -3.665017244e-178
          -3.665017244e-178 -3.665017244e-178 -3.665017244e-178 -3.665017244e-178 -3.665017244e-178 -3.665017244e-178
          -3.665017244e-178 -3.665017244e-178 -3.665017244e-178 -3.665017244e-178 -3.665017244e-178 -3.665017244e-178
          3.665017244e-178 3.665017244e-178 3.665017244e-178 3.665017244e-178 3.665017244e-178 3.665017244e-178
          3.665017244e-178 3.665017244e-178 3.665017244e-178 3.665017244e-178 3.665017244e-178 3.665017244e-178
          3.665017244e-178 3.665017244e-178 -0.001184093303 -0.004056960571 -0.01194301875 -0.02946887541
          -0.05898838107 -0.08686248132 -0.0645754999 0.08311341995 0.3873148741 0.7437004779
          0.06834981631 0.2537491927 0.2335229114 0.1151816279 0.03553523361 0.007398790295
          0.001092565827 0.0001334143684 3.366207924e-05 2.29890304e-05 1.688385933e-05 0
          0 0 0 0 0 0
          0 0 0 0 0 0
          0 0 0 0 0 0
          0 0 0 0 0 0
          0 -6.514323838e-06 -2.456257783e-05 -0.0001015647706 -0.0003622622303 -0.001022439855
          -0.00195877962 -0.002406862731 -0.008971991975 -0.05339221975 -0.1413291407 -0.1341277461
          -0.173426024 -0.03603205254 -0.003121273139 0.001877385175 0.0008757917826 0.0001544172356
          1.552157003e-05 1.07426646e-06 6.589678157e-08 1.085523304e-08 5.662436752e-09 0
          0 0 0 0 0 0
          0 0 0 0 0 0
          0 0 0 0 0 0
          0 0 0 0 0 0
          0 -3.642560113e-09 -2.083081913e-08 -1.235689104e-07 -6.652095043e-07 -5.252577933e-06
          -0.0001132641222 -0.002178885401 -0.02343361504 -0.1281174095 -0.330595153 -0.3728184683
          0.2072514266 0.1508359404 0.02654868364 0.001400915693 2.585483052e-05 2.289700462e-07
          3.310242938e-09 8.876091135e-11 2.060997641e-12 5.945003591e-14 1.018847645e-14 0
          0 0 0 0 0 0
          0 0 0 0 0 0
          0 0 0 0 0 0
          0 0 0 0 0 0
          0 -1.054761296e-14 -1.072338199e-13 -1.354393641e-12 -5.440706465e-11 -6.052871773e-09
          -4.756213558e-07 -1.848844184e-05 -0.0003003955582 -0.002845857399 -0.01717472389 0.02732052332
        </DataArray>
        <DataArray type="Int32" Name="rank" format="ascii">
          2 2 2 2 2 2
          2 2 2 2 2 2
          3 3 3 3 3 3
          3 3 3 3 3 3
          0 0 0 0 0 0
          0 0 0 0 0 0
          1 1 1 1 1 1
          1 1 1 1 1 1
          2 2 2 2 2 2
          2 2 2 2 2 2
          3 3 3 3 3 3
          3 3 3 3 3 3
          0 0 0 0 0 0
          0 0 0 0 0 0
          1 1 1 1 1 1
          1 1 1 1 1 1
          2 2 2 2 2 2
          2 2 2 2 2 2
          2 2 2 2 2 2
          2 2 2 2 2 2
          3 3 3 3 3 3
          3 3 3 3 3 3
          3 3 3 3 3 3
          3 3 3 3 3 3
          0 0 0 0 0 0
          0 0 0 0 0 0
          0 0 0 0 0 0
          0 0 0 0 0 0
          1 1 1 1 1 1
          1 1 1 1 1 1
          1 1 1 1 1 1
          1 1 1 1 1 1
          2 2 2 2 2 2
          2 2 2 2 2 2
          3 3 3 3 3 3
          3 3 3 3 3 3
          0 0 0 0 0 0
          0 0 0 0 0 0
          1 1 1 1 1 1
          1 1 1 1 1 1
          2 2 2 2 2 2
          2 2 2 2 2 2
          3 3 3 3 3 3
          3 3 3 3 3 3
          0 0 0 0 0 0
          0 0 0 0 0 0
          1 1 1 1 1 1
          1 1 1 1 1 1
          2 2 2 2 2 2
          2 2 2 2 2 2
          2 2 2 2 2 2
          2 2 2 2 2 2
          3 3 3 3 3 3
          3 3 3 3 3 3
          3 3 3 3 3 3
          3 3 3 3 3 3
          0 0 0 0 0 0
          0 0 0 0 0 0
          0 0 0 0 0 0
          0 0 0 0 0 0
          1 1 1 1 1 1
          1 1 1 1 1 1
          1 1 1 1 1 1
          1 1 1 1 1 1
          2 2 2 2 2 2
          2 2 2 2 2 2
          3 3 3 3 3 3
          3 3 3 3 3 3
          0 0 0 0 0 0
          0 0 0 0 0 0
          1 1 1 1 1 1
          1 1 1 1 1 1
          2 2 2 2 2 2
          2 2 2 2 2 2
          3 3 3 3 3 3
          3 3 3 3 3 3
          0 0 0 0 0 0
          0 0 0 0 0 0
          1 1 1 1 1 1
          1 1 1 1 1 1
          2 2 2 2 2 2
          2 2 2 2 2 2
          3 3 3 3 3 3
          3 3 3 3 3 3
          0 0 0 0 0 0
          0 0 0 0 0 0
          1 1 1 1 1 1
          1 1 1 1 1 1
          2 2 2 2 2 2
          2 2 2 2 2 2
          3 3 3 3 3 3
          3 3 3 3 3 3
          0 0 0 0 0 0
          0 0 0 0 0 0
          1 1 1 1 1 1
          1 1 1 1 1 1
        </DataArray>
      </CellData>
    </Piece>
  </UnstructuredGrid>
</VTKFile>
